<svg id="svg2" xmlns="http://www.w3.org/2000/svg" viewBox="0 0 527.9 656.1">
    <defs>
        <style>
            .cls-1
            {
                fill:#f9fafe;
                stroke:#1d1d1d;
                stroke-linejoin:round;
                stroke-width:0.9px;
            }

            #EG, #SA, #KW, #AE {
                fill: #4F7314;
            }
        </style>
    </defs>
    <title>RD_map</title>
    <path id="AF" class="cls-1"
          d="M509.32,216.7h-5.4l-3.8-.5-2.5,2.9-2.1.7-1.5,1.3-2.6-2.1-1-5.4-1.6-.3v-2l-3.2-1.5-1.7,2.3.2,2.6-.6.9-3.2-.1-.9,3-2.1-1.3-3.3,2.1-1.8-.8-4.3-1.4H465l-1.6-.2-2.9-1.7-.3,2.3-4.1,1.2.1,5.2-2.5,2-4,.9-.4,3-3.9.8-5.9-2.4-.5,8-.5,4.7,2.5.9-1.6,3.5,2.7,5.1,1.1,4,4.3,1.1,1.1,4-3.9,5.8,9.6,3.2,5.3-.9,3.3.8.9-1.4,3.8.5,6.6-2.6-.8-5.4,2.3-3.6h4l.2-1.7,4-.9,2.1.6,1.7-1.8-1.1-3.8,1.5-3.8,3-1.6-3-4.2,5.1.2.9-2.3-.8-2.5,2-2.7-1.4-3.2-1.9-2.8,2.4-2.8,5.3-1.3,5.8-.8,2.4-1.2,2.8-.7-1.4-1.9Z"
          transform="translate(-17.07 -20.95)"/>
    <path id="AO" class="cls-1"
          d="M207.72,492.5l-16.6-.1-1.9.7-1.7-.1-2.3.9-.5,1.2,2.8,4,1.1,4.3,1.6,6.1-1.7,2.6-.3,1.3,1.3,3.8,1.5,3.9,1.6,2.2.3,3.6-.7,4.8-1.8,2.8-3.3,4.2-1.3,2.6-1.9,5.7-.3,2.7-2,5.9-.9,5.5.5,4,2.7-1.2,3.3-1,3.6.1,3.2,2.9.9-.4,22.5-.3,3.7,3,13.4.9,10.3-2.5-3.5-4-3.6-5.2.8-20.3,11.6.1-.5-2.2.9-2.4-.9-3,.7-3-.5-2-2.6-.4-3.5,1-2.4-.2-1.4.6.5-7.6-1.9-2.3-.3-4,.9-3.8-1.2-2.4v-4h-6.8l.5-2.3h-2.9l-.3,1.1-3.4.3-1.5,3.7-.9,1.6-3-.9-1.9.9-3.7.5-2.1-3.3-1.3-2.1-1.6-3.8-1.3-4.7Zm-21.8-1.3.2-2.7.9-1.7,2-1.3-2-2.2-1.8,1.1-2.2,2.7,1.4,4.8,1.5-.7Z"
          transform="translate(-17.07 -20.95)"/>
    <path id="AL" class="cls-1"
          d="M216.92,183.4l-2,3.1.5,1.9h0l1,1-.5,1.9-.1,4.3.7,3,3,2.1.2,1.4,1,.4,2.1-3,.1-2.1,1.6-.9v-1.6l-2.3-1.6-.9-2.6.4-2.1h0l-.5-2.3-1.3-.6-1.3-1.6-1.3.5-.4-1.2Z"
          transform="translate(-17.07 -20.95)"/>
    <path id="AE" class="cls-1"
          d="M423.32,291.5l-1.3-2.2-3,3.9-3.7,4.1-3.3,4.3-3.3-.2-4.6-.2-4.2,1-.3-1.7-1,.3.4,1.5,2.6,6.4,16.8,3.2,1-1.3-.1-2.6,1.4-2.6-.3-2.6,2.4-1.3-1.1-.8.1-4.2h2.8l-1.3-5Z"
          transform="translate(-17.07 -20.95)"/>
    <path id="AM" class="cls-1"
          d="M358.42,208l-.9-4.4-2.5-1.1-2.5-1.7,1-2-3.1-2.2.7-1.5-2.2-1.1-1.4-1.7-6.9,1,1.3,2.2v3.1l4.2,1.5,2.4,1.9,1-.2,1.8,1.7h2.3l.2,1,2.8,3.7,1.8-.2Z"
          transform="translate(-17.07 -20.95)"/>
    <path id="AT" class="cls-1"
          d="M199.62,146.9l-2.3-1.2-2.3.3-4-1.9-1.7.5-2.6,2.5-3.8-2-1.5,2.9-1.7.8,1,4-.4,1.1-1.7-1.3-2.4-.2-3.4,1.2-4.4-.3-.6,1.6-2.6-1.7-1.5.3.2,1.1-.7,1.6,2.3,1.1,2.6.2,3.1.9.5-1.2,4.8-1.1,1.3,2.2,7.2,1.6,4.2.4,2.4-1.4,4.3-.1.9-1.1,1.3-4-1.1-1.3h2.8l.2-2.6-.7-2.1.3-.8Z"
          transform="translate(-17.07 -20.95)"/>
    <path id="AZ" class="cls-1"
          d="M349.52,201.8l-1,.2,1.2,2.4,3.2,2.9,3.7.9-2.8-3.7-.2-1h-2.3l-1.8-1.7Zm10.4-9.3-4.3-3.8-1.5-.2-1.1.9,3.2,3.4-.6.7-2.8-.4-4.2-1.8-1.1,1,1.4,1.7,2.2,1.1-.7,1.5,3.1,2.2-1,2,2.5,1.7,2.5,1.1.9,4.4,5.3-4.7,1.9-.5,1.9,1.9-1.2,3.1,3.8,3.4,1.3-.3-.8-3.2,1.7-1.5.4-2.2-.1-5,4.2-.5-2-1.7-2.5-.2-3.5-4.5-3.4-3.2h0l-2.6,2.5-.5,1.5-2.4-.4Z"
          transform="translate(-17.07 -20.95)"/>
    <path id="BI" class="cls-1"
          d="M287.62,472.9l-.3-2.5h0l-3-.4-1.7,3.6-3.5-.5,1.4,2.9.1,1.1,2,6.1-.1.3.6-.1,2.1-2.3,2.2-3.3,1.4-1.4v-2l-1.2-1.5Z"
          transform="translate(-17.07 -20.95)"/>
    <path id="BE" class="cls-1"
          d="M140.12,129.1l-4.4,1.3-3.6-.5h0l-3.8,1.2.7,2.2,2.2.1,2.4,2.4,3.4,2.9,2.5-.4,4.4,2.8.4-3.5,1.3-.2.4-4.2-2.8-1.4-3.1-2.7Z"
          transform="translate(-17.07 -20.95)"/>
    <path id="BJ" class="cls-1"
          d="M136.32,380.9l-4.3-3.7h-2l-1.9,1.9-1.2,1.9-2.7.6-1.2,2.8-1.9.7-.7,3.3,1.7,1.9,2,2.3.2,3.1,1.1,1.3-.2,14.6,1.4,4.4,4.6-.8.3-10.2-.1-4.1,1-4,1.7-1.9,2.7-4-.6-1.7,1.1-2.5-1.2-3.8.2-2.1Z"
          transform="translate(-17.07 -20.95)"/>
    <path id="BF" class="cls-1"
          d="M118.22,360.1h-3.6l-1.4-1.2-3,.9-5.2,2.6-1.1,2-4.3,2.9-.8,1.6-2.3,1.3-2.7-.9-1.6,1.6-.8,4.4-4.5,5.2.2,2.2-1.6,2.7.4,3.7,2.5,1.4,1,2.1,2.5,1.3,1.9-1.6,2.7-.2,3.8,1.6-.8-4.8.2-3.6,9.7-.3,2.4.5,1.8-1,2.6.5,4.9.1,1.9-.7,1.2-2.8,2.7-.6,1.2-1.9.1-4.4-6.4-1.4-.2-3.1-3.1-4.1-.8-2.9.5-3.1Z"
          transform="translate(-17.07 -20.95)"/>
    <path id="BG" class="cls-1"
          d="M261,177.2l-3-.7-4-2.2-5.8,1.4-2.3,1.6-7.5-.3-4-1-1.9.5-1.8-2.6-1.1,1.4.7,2.3,2.8,2.6-1.7,1.9-.7,2,.6.7-.7.9,2.8,2,.8,4.1,3.8.2,3.9-1.7,3.9,2.1,4.6-.6-.3-3,5-2,4.5.8-2.1-3.5,1.3-4.4,2.2-2.5Z"
          transform="translate(-17.07 -20.95)"/>
    <path id="BA" class="cls-1"
          d="M201.62,167.8l-2.3.1-1,1.3-1.9-1.4-.9,2.5,2.7,2.9,1.3,1.9,2.5,2.3,2,1.4,2.2,2.5,4.7,2.4.4-3.4,1.5-1.4.9-.6,1.2-.3.5-2.9-2.7-2.3,1-2.7h-1.8l-2.4-1.4-3.5.1-4.4-1Z"
          transform="translate(-17.07 -20.95)"/>
    <path id="BY" class="cls-1"
          d="M252.22,102.3l-5.2-1.5-4.6,2.3-2.6,1,.9,2.6-3.5,2-.5,3.4-4.8,2.2h-4.6l.6,2.7,1.7,2.3.3,2.4-2.7,1.2,1.9,2.9.5,2.7,2.2-.3,2.4-1.6,3.7-.2,5,.5,5.6,1.5,3.8.1,2,.9,1.6-1.1,1.5,1.5,4.3-.3,2,.6-.2-3.1,1.2-1.4,4.1-.3h0l-2-3.9-1.5-2,.8-.6,3.9.2,1.6-1.3-1.7-1.6-3.4-1.1.1-1.1-2.2-1.1-3.7-3.9.6-1.6-1-2.9-4.8-1.4-2.3.7-1-1.4Z"
          transform="translate(-17.07 -20.95)"/>
    <path id="BW" class="cls-1"
          d="M256.12,567.9l-1-.5-3.2,1.5h-1.6l-3.7,2.5-2-2.6L236,571l-4.1.2-.9,22.7-5.4.2-.6,18.5,1.4,1,3,6.1-.7,3.8,1.1,2.3,4-.7,2.8-2.8,2.7-1.9,1.5-3.1,2.7-1.5,2.3.8,2.5,1.8,4.4.3,3.6-1.5.6-2,1.2-3,3-.5,1.7-2.4,2-4.3,5.2-4.7,8-4.7-3.4-2.9-4.2-.9-1.5-4.1.1-2.2-2.3-.7-6-7-1.6-3.7L258,573l-1.9-5.1Z"
          transform="translate(-17.07 -20.95)"/>
    <path id="CF" class="cls-1"
          d="M249.92,400.2l-.5-.3-2-1.8-.3-2,.8-2.6v-2.6l-3.3-4-.7-2.7-3.5,1.1-2.8,2.5-4,7-5.2,2.9-5.4-.4-1.6.6.6,2.3-2.9,2.2-2.3,2.5-7.1,2.4-1.4-1.4-.9-.2-1,1.7-4.7.4-2.7,6.5-1.4,1.1-.4,5,.6,2.7-.4,1.9,2.6,3.3.5,2.3,2.1,3.2,2.6,2.1.3,2.9.6,1.8,2.9-5.9,3.3-3.4,3.8,1.1,3.6.4.5-4.5,2.2-3.2,3-2,4.6,2.1,3.6,2.4,4.1.6,4.2,1.2,1.6-3.8.8-.5,2.6.6,6.2-3.1,2.2,1.3,1.8-.2.9-1.5,2-.6,4.3.7,3.6.1,1.8-.6-.9-2.1-4.2-2.5-1.5-3.8-2.4-2.7-3.8-3.4-.1-2-3.1-2.6-3.8-2.5Z"
          transform="translate(-17.07 -20.95)"/>
    <path id="CH" class="cls-1"
          d="M163.72,153.5l-5.4-1.9-1,1.4h-4.2l-1.3,1-2.3-.6.2,1.6-3.5,3.5v2.8l2.4-.9,1.8,2.7,2.2,1.3,2.4-.3,2.7-2.1.9,1,2.4-.2.9-2.5,3.8.8,2.1-1.1.3-2.5-2.6-.2-2.3-1.1.7-1.6-.2-1.1Z"
          transform="translate(-17.07 -20.95)"/>
    <path id="CI" class="cls-1"
          d="M85.92,389.1l-2.3.9-1.3.8-.9-2.7-1.6.7-1-.1-1,1.9-4.3-.1-1.6-1-.7.6-1.1.5-.5,2.2,1.3,2.6,1.3,5.1-2,.8-.6.9.4,1.2-.3,2.8h-.9l-.3,1.8.6,3.1-1.2,2.8,1.6,1.8,1.8.4,2.3,2.7.2,2.5-.5.8-.5,5.2,1.1.2,5.6-2.4,3.9-1.8,6.6-1.1,3.6-.1,3.9,1.3,2.6-.1.2-2.5-2.4-5.5,1.5-7.2,2.3-5.3-1.4-9.1-3.8-1.6-2.7.2-1.9,1.6-2.5-1.3-1-2.1-2.5-1.4Z"
          transform="translate(-17.07 -20.95)"/>
    <path id="CM" class="cls-1"
          d="M199.52,385.8l.2-4.3-.5-4.2-2.2-4.1-1.6.4-.2,2,2.3,2.6-.6,1.1-.3,2.1-4.6,5-1.5,4-.7,3.3-1.2,1.4-1.1,4.5-3,2.6-.8,3.2-1.2,2.6-.5,2.6-3.9,2.2-3.2-2.6-2.1.1-3.3,3.7-1.6.1-2.7,6.1-1.4,4.5v1.8l1.4.9,1.1,2.8,2.6,1.1,2.2,4.2-.8,5,9.2.2,2.6-.4,3.4.8,3.4-.8.7.3,7.1.3,4.5,1.7,4.5,1.5.4-3.5-.6-1.8-.3-2.9-2.6-2.1-2.1-3.2-.5-2.3-2.6-3.3.4-1.9-.6-2.7.4-5,1.4-1.1,2.7-6.5.9-1.7-1.8-4.4-.8-2.6-2.5-1.1-3.3-3.7,1.2-3,2.5.6,1.6-.4,3.1.1-3.1-5.8Z"
          transform="translate(-17.07 -20.95)"/>
    <path id="CD" class="cls-1"
          d="M264.32,422.3l-4.3-.7-2,.6-.9,1.5-1.8.2-2.2-1.3-6.2,3.1-2.6-.6-.8.5-1.6,3.8-4.2-1.2-4.1-.6-3.6-2.4-4.6-2.1-3,2-2.2,3.2-.5,4.5-.3,3.8-1.6,3.4-1.1,4-.7,5.6.3,3.6-.9,2.2-.2,2.4-.6,2-3.7,3.1-2.6,3.2-2.5,6.2.2,5.3-1.4,2-3.3,3.1-3.4,4-2-1.1-.4-1.8-3.1-.1-1.9,2.4-1.5-.6-2,1.3-.9,1.7-.2,2.7-1.5.7.8,2,2.3-.9,1.7.1,1.9-.7,16.6.1,1.3,4.7,1.6,3.8,1.3,2.1,2.1,3.3,3.7-.5,1.9-.9,3,.9.9-1.6,1.5-3.7,3.4-.3.3-1.1h2.9l-.5,2.3h6.8v4l1.2,2.4-.9,3.8.3,4,1.9,2.3-.5,7.6,1.4-.6,2.4.2,3.5-1,2.6.4,1.9.1.3,2,2.6-.1,3.5.6,1.8,2.8,4.5.9,3.4-2,1.2,3.4,4.3.8,2,2.8,2.1,3.5h4.3l-.3-6.9-1.5,1.2-3.9-2.5-1.4-1.1.8-6.4,1.2-7.5-1.2-2.8,1.6-4.1,1.6-.7,7.5-1.1,1,.3.2-1.1-1.5-1.7-.7-3.5-3.4-3.5-1.8-4.5,1-2.7-1.5-3.6,1.1-10.2.1.1-.1-1.1-1.4-2.9.6-3.5.8-.4.2-3.8,1.6-1.8.1-4.8,1.3-2.4.3-5.1,1.2-3,2.1-3.3,2.2-1.7,1.8-2.3-2.3-.8.3-7.5h0l-5-4.2-1.4-2.7-3.1,1.3-2.6-.4-1.5,1.1-2.5-.8-3.5-5.2-1.8.6-3.6-.1Z"
          transform="translate(-17.07 -20.95)"/>
    <path id="CG" class="cls-1"
          d="M219.72,432.8l-3.6-.4-3.8-1.1-3.3,3.4-2.9,5.9-.4,3.5-4.5-1.5-4.5-1.7-7.1-.3-.4,2.8,1.5,3.3,4.2-.5,1.4,1.2-2.4,7.4,2.7,3.8.6,4.9-.8,4.3-1.7,3-4.9-.3-3-3-.5,2.8-3.8.8-1.9,1.6,2.1,4.2-4.3,3.5,4.6,6.7,2.2-2.7,1.8-1.1,2,2.2,1.5.6,1.9-2.4,3.1.1.4,1.8,2,1.1,3.4-4,3.3-3.1,1.4-2-.2-5.3,2.5-6.2,2.6-3.2,3.7-3.1.6-2,.2-2.4.9-2.2-.3-3.6.7-5.6,1.1-4,1.6-3.4.3-3.8Z"
          transform="translate(-17.07 -20.95)"/>
    <path id="CZ" class="cls-1"
          d="M188.82,131.4l-2.1.6-1.4-.7-1.1,1.2-3.4,1.2-1.7,1.5-3.4,1.3,1,1.9.7,2.6,2.6,1.5,2.9,2.6,3.8,2,2.6-2.5,1.7-.5,4,1.9,2.3-.3,2.3,1.2.6-1.4,2.2.1,1.6-.6.1-.6.9-.3.2-1.4,1.1-.3.6-1.1h1.5l-2.6-3.1-3.6-.3-.7-2-3.4-.6-.6,1.5-2.7-1.2.1-1.7-3.7-.6-2.4-1.9Z"
          transform="translate(-17.07 -20.95)"/>
    <path id="DE" class="cls-1"
          d="M183,115.2l-2.4-1.9-5.5-2.4-2.5,1.7-4.7,1.1-.1-2.1-4.9-1.4-.2-2.3-3,.9-3.6-.8.4,3.4,1.2,2.2-3,3-1-1.3-3.9.3-.9,1.3,1,2-1,5.6-1.1,2.3h-2.9l1.1,6.4-.4,4.2,1,1.4-.2,2.7,2.4,1.6,7.1,1.2-2.3,4.2-.5,4.5h4.2l1-1.4,5.4,1.9,1.5-.3,2.6,1.7.6-1.6,4.4.3,3.4-1.2,2.4.2,1.7,1.3.4-1.1-1-4,1.7-.8,1.5-2.9-2.9-2.6-2.6-1.5-.7-2.6-1-1.9,3.4-1.3,1.7-1.5,3.4-1.2,1.1-1.2,1.4.7,2.1-.6-2.3-3.9.1-2.1-1.4-3.3-2-2.2,1.2-1.6-1.4-3.1Z"
          transform="translate(-17.07 -20.95)"/>
    <path id="DJ" class="cls-1"
          d="M357.22,382.1l-2.5-1.7,3.1-1.5.1-2.7-1.4-1.9-1.6,1.5-2.4-.5-1.9,2.8-1.8,3,.5,1.7.2,2,3.1.1,1.3-.5,1.3,1.1,2-3.4Z"
          transform="translate(-17.07 -20.95)"/>
    <path id="DK" class="cls-1"
          d="M175.32,104.1l-1.7-3-6.7,2,.9,2.5,5.1,3.4,2.4-4.9Zm-8.6-5.1-2.6-.9-.7-1.6,1.3-2-.1-3L161,93.1l-1.5,1.7-4,.4-1.2,1.7-.7,1.6.4,6.1,2.1,3.4,3.6.8,3-.9-1.5-3,3.1-4.3,1.4.7,1-2.3Z"
          transform="translate(-17.07 -20.95)"/>
    <path id="DZ" class="cls-1"
          d="M160.42,219.8l-3.6.4-2.2-1.5H149l-4.9,2.6-2.7-1-8.7.5-8.9,1.2-5,2-3.4,2.6-5.7,1.2-5.1,3.5,2,4.1.3,3.9,1.8,6.7,1.4,1.4-1,2.5-7,1-2.5,2.4-3.1.5-.3,4.7-6.3,2.5-2.1,3.2-4.4,1.7-5.4,1-8.9,4.7-.1,7.5v.4l-.1,1.2,20.3,15.5,18.4,13.9,18.6,13.8,1.3,3,3.4,1.8,2.6,1.1.1,4,6.1-.6,7.8-2.8,15.8-12.5,18.6-12.2-2.5-4-4.3-2.9-2.6,1.2-2-3.6-.2-2.7-3.4-4.7,2.1-2.6-.5-4,.6-3.5-.5-2.9.9-5.2-.4-3-1.9-5.6-2.6-11.3-3.4-2.6v-1.5l-4.5-3.8-.6-4.8,3.2-3.6,1.1-5.3-1-6.2,1-3.3Z"
          transform="translate(-17.07 -20.95)"/>
    <path id="EG" class="cls-1"
          d="M269.12,257.7l-5.5-1.9-5.3-1.7-7.1.2-1.8,3,1.1,2.7-1.2,3.9,2,5.1,1.3,22.7,1,23.4h65.3l-1-1.3-6.8-5.7-.4-4.2,1-1.1-5.3-7-2-3.6-2.3-3.5-4.8-9.9-3.9-6.4-2.8-6.7.5-.6,4.6,9.1,2.7,2.9,2,2,1.2-1.1,1.2-3.3.7-4.8,1.3-2.5-.7-1.7-3.9-9.2h0l-2.5,1.6-4.2-.4-4.4-1.5-1.1,2.1-1.7-3.2-3.9-.8-4.7.6-2.1,1.8-3.9,2-2.6-1Z"
          transform="translate(-17.07 -20.95)"/>
    <path id="ER" class="cls-1"
          d="M337.52,356.9l-3.2-3.1-1.8-5.9-3.7-7.3-2.6,3.6-4,1-1.6,2-.4,4.2-1.9,9.4.7,2.5,6.5,1.3,1.5-4.7,3.5,2.9,3.2-1.5,1.4,1.3,3.9.1,4.9,2.5,1.6,2.2,2.5,2.1,2.5,3.7,2,2.1,2.4.5,1.6-1.5-2.8-1.9-1.9-2.2-3.2-3.7-3.2-3.6Z"
          transform="translate(-17.07 -20.95)"/>
    <path id="EE" class="cls-1"
          d="M232.62,80.4l-5.5.9-5.4,1.6.9,3.4,3.3,2.1,1.5-.8.1,3.5,3.7-1,2.1.7,4.4,2.2h3.8l1.6-1.9-2.5-5.5,2.6-3.4-.9-1h0l-4.6.2Z"
          transform="translate(-17.07 -20.95)"/>
    <path id="ET" class="cls-1"
          d="M327,359.9l-1.5,4.7-6.5-1.3-.7,5.5-2.1,6.2-3.2,3.2-2.3,4.8-.5,2.6-2.6,1.8-1.4,6.7v.7l.2,5-.8,2-3,.1-1.8,3.6,3.4.5,2.9,3.1,1,2.5,2.6,1.5,3.5,6.9,2.9,1.1v3.6l2,2.1H323l7.2,5.4H332l1.3-.1,1.2.7,3.8.5,1.6-2.7L345,428l2.3,2.1h3.8l1.5-2,3.6-.1,4.9-4.5,7.4-.3,15.4-19.1-4.8.1-18.5-7.6-2.2-2.2-2.1-3.1-2.2-3.5,1.1-2.3-1.3-1.1-1.3.5-3.1-.1-.2-2-.5-1.7,1.8-3,1.9-2.8-2-2.1-2.5-3.7-2.5-2.1-1.6-2.2-4.9-2.5-3.9-.1-1.4-1.3-3.2,1.5-3.5-2.9Z"
          transform="translate(-17.07 -20.95)"/>
    <path id="FI" class="cls-1"
          d="M232.82,27.3l.8-3.8-5.7-2.1-5.8,1.8L221,27.1l-3.4,2.4-4.7-1.3-5.3.3-5.1-2.9-2.1,1.4,5.9,2.7,7.2,3.7,1.7,8.4,1.9,2.2,6.4,2.6.9,2.3-2.6,1.2-8.7,6.1-3.3,3.6-1.5,3.3,2.9,5.2-.1,5.7,4.7,1.9,3.1,3.1,7.1-1.2,7.5-2.1,8-.5h0l7.9-7.4,3.3-3.3.9-2.9-7.3-3.9.9-3.7-4.9-4.1,1.7-4.8-6.4-6.3,2.8-4.1-7.2-3.7-.4-3.7Z"
          transform="translate(-17.07 -20.95)"/>
    <path id="GA" class="cls-1"
          d="M189.62,440.6l-.7-.3-3.4.8-3.4-.8-2.6.4v7.6h-8.2l-1.9.3-1.1,4.8L167,458l-1.3,2-.2,2.1,3.4,6.6,3.7,5.3,5.8,6.4,4.3-3.5-2.1-4.2,1.9-1.6,3.8-.8.5-2.8,3,3,4.9.3,1.7-3,.8-4.3-.6-4.9-2.7-3.8,2.4-7.4-1.4-1.2-4.2.5-1.5-3.3.4-2.8Z"
          transform="translate(-17.07 -20.95)"/>
    <path id="GB" class="cls-1"
          d="M89.42,110.4l-4.9-3.7-3.9.3.8,3.2-1.1,3.2,2.9-.1,3.5,1.3Zm13-24.3-5.5.5-3.6-.4L89.62,91l-1.9,6.1,2.2,3,.1,5.8,2.6-2.8,1.4,1.6-1.7,2.7,1,1.6,5.7,1.1h.1l3.1,3.8-.8,3.5h0l-7.1-.6-1,4,2.6,3.3-5.1,1.9,1.3,2.4,7.5,1h0l-4.3,1.3L88,137.2l2.5,1.2,3.5-2.3,4.5.7,3.3-2.9,2.2,1.2,8.3-1.7,6.5.1,4.3-3.3-1.9-3.1,2.4-1.8.5-3.9-5.8-1.2-1.3-2.3-2.9-6.9-3.2-1-4.1-7.1-.4-.6-4.8-.4,4.2-5.3,1.3-4.9h-5l-4.7.8,5-6.4Z"
          transform="translate(-17.07 -20.95)"/>
    <path id="GE" class="cls-1"
          d="M339.42,183.1l-7.5-2.9-7.7-1-4.5-1.1-.5.7,2.2,1.9,3,.7,3.4,2.3,2.1,4.2-.3,2.7,5.4-.3,5.6,3,6.9-1,1.1-1,4.2,1.8,2.8.4.6-.7-3.2-3.4,1.1-.9-3.5-1.4-2.1-2.5-5.1-1.3-2.9,1-1.1-1.2Z"
          transform="translate(-17.07 -20.95)"/>
    <path id="GH" class="cls-1"
          d="M116.22,385l-2.6-.5-1.8,1-2.4-.5-9.7.3-.2,3.6.8,4.8,1.4,9.1-2.3,5.3-1.5,7.2,2.4,5.5-.2,2.5,5,1.8,5-1.9,3.2-2.1,8.7-3.8-1.2-2.2-1.5-4-.4-3.2,1.2-5.7-1.4-2.3-.6-5.1.1-4.6-2.4-3.3.4-1.9Z"
          transform="translate(-17.07 -20.95)"/>
    <path id="GN" class="cls-1"
          d="M51.82,375.9l-.8.4-3-.5-.4.7-1.3.1-4-1.5-2.7-.1-.1,2.1-.6.7.4,2.1-.8.9h-1.3l-1.4,1-1.7-.1-2.6,3.1,1.6,1.1.8,1.4.7,2.8,1.3,1.2,1.5.9,2.1,2.5,2.4,3.7,3-2.8.7-1.7,1-1.4,1.5-.2,1.3-1.2h4.5l1.5,2.3,1.2,2.7-.2,1.8.9,1.7v2.3l1.5-.3,1.2-.2,1.5-.7,2.3,3.9-.4,2.6,1.1,1.3,1.6.1,1.1-2.6,1.6.2h.9l.3-2.8-.4-1.2.6-.9,2-.8-1.3-5.1-1.3-2.6.5-2.2,1.1-.5-1.7-1.8.3-1.9-.7-.7-1.2.6.2-2.1,1.2-1.6L67,379.9l-.6-1.7-1.3-1.4-1.1-.2-1.3.9-1.8.8-1.6,1.4-2.4-.5-1.5-1.6-.9-.2-1.5.8h-.9l-.3-2.3Z"
          transform="translate(-17.07 -20.95)"/>
    <path id="GM" class="cls-1"
          d="M22.22,371.4l5,.1,1.4-.9h1l2.1-1.5,2.4,1.4,2.4.1,2.4-1.5-1.1-1.8L36,368.4l-1.8-.1-2.1-1.5-1.8.1L29,368.4l-6.1.2-.7,2.8Z"
          transform="translate(-17.07 -20.95)"/>
    <path id="GW" class="cls-1"
          d="M39.62,375l-10.3-.3-1.5.7-1.8-.2-3,1.1.3,1.3L25,379v.9l1.2,1.8,2.4.5,2.9,2.6,2.6-3.1,1.7.1,1.4-1h1.3l.8-.9-.4-2.1.6-.7.1-2.1Z"
          transform="translate(-17.07 -20.95)"/>
    <path id="GQ" class="cls-1" d="M179.52,440.7l-9.2-.2-1.9,7.2,1,.9,1.9-.3h8.2v-7.6Z"
          transform="translate(-17.07 -20.95)"/>
    <path id="GR" class="cls-1"
          d="M241.32,227.8l-.8,2.8,6.6,1.2v1.1l7.6-.6.5-1.9-2.8.8v-1.1l-3.9-.5-4.1.4-3.1-2.2Zm11.5-37.4-2.7-1.6.3,3-4.6.6-3.9-2.1L238,192l-3.8-.2-1,.2-.7,1.1-2.8-.1-1.9,1.3-3.3.6v1.6l-1.6.9-.1,2.1-2.1,3,.5,1.9,2.9,3.6,2.3,3,1.3,4.3,2.3,5.1,4.6,2.9,3.4-.1-2.4-5.7,3.3-.7-1.9-3.3,5,1.7-.4-3.7-2.7-1.8-3.2-3,1.8-1.4-2.8-3-1.6-3.8.9-1.3,3,3.2h2.9l2.5-1-3.9-3.6,6.1-1.6,2.7.6,3.2.2,1.1-.7,1.2-3.9Z"
          transform="translate(-17.07 -20.95)"/>
    <path id="HR" class="cls-1"
          d="M204.42,163.3l-4-2.6-1.6-.8-3.9,1.7-.3,2.5-1.7.6.2,1.7-2-.1-1.8-1-.8,1-3.5-.2-.2.1v2.2l1.7,2,1.3-2.6,3.3,1,.3,2,2.5,2.6-1,.5,4.6,4.5,4.8,1.8,3.1,2.2,5,2.3h0l.5-1-4.7-2.4-2.2-2.5-2-1.4-2.5-2.3-1.3-1.9-2.7-2.9.9-2.5,1.9,1.4,1-1.3,2.3-.1,4.4,1,3.5-.1,2.4,1.4h0l1.7-2.3-1.7-1.8-1.5-2.4h0l-1.8.9-4.2-1.2Z"
          transform="translate(-17.07 -20.95)"/>
    <path id="HU" class="cls-1"
          d="M218.52,146.7l-1.6.4-1,1.5-2.2.7-.6-.4-2.3,1-1.9.2-.3,1.2-4.1.8-1.9-.7-2.6-1.6-.2,2.6H197l1.1,1.3-1.3,4,.8.1,1.2,2.1,1.6.8,4,2.6,4.2,1.2,1.8-.9h0l3.7-1.6,3.2.2,3.8-1.1,2.6-4.3,1.9-4.2,2.9-1.3-.6-1.6L225,148l-1,.6-5.5-1.9Z"
          transform="translate(-17.07 -20.95)"/>
    <path id="IE" class="cls-1"
          d="M86.72,114.6l-3.5-1.3-2.9.1,1.1-3.2-.8-3.2-3.7,2.8-6.7,4.7,2.1,6.1-4.2,6.4,6.7.9,8.7-3.6,3.9-5.4-.7-4.3Z"
          transform="translate(-17.07 -20.95)"/>
    <path id="IR" class="cls-1"
          d="M352.92,207.3l-3.2-2.9-1.2-2.4-3.3,1.8,2.9,7.3-.7,2,3.7,5.2h0l4.7,7.8,3.7,1.9,1,3.8-2.3,2.2-.5,5,4.6,6.1,7,3.4,3.5,4.9-.2,4.6h1.7l.5,3.3,3.4,3.4,1.7-2.5,3.7,2.1,2.8-1,5.1,8.4,4.3,6.1,5.5,1.8,6.1,4.9,6.9,2.1,5.1-3.1,4-1.1,2.8,1.1,3.2,7.8,6.3.8,6.1,1.5,10.5,1.9,1.2-7.4,7.4-3.3-.9-2.9-2.7-1-1-5.7-5.6-2.7-2.8-3.9-3.2-3.3,3.9-5.8-1.1-4-4.3-1.1-1.1-4-2.7-5.1,1.6-3.5-2.5-.9.5-4.7.5-8-1.6-5.5-3.9-.2-7.3-5.7-4.3-.7-6.5-3.3-3.8-.6-2.1,1.2-3.5-.2-3,3.7-4.4,1.2-.2,1.6-7.9,1.7-7.6-1.1-4.3-3.3-5.2-1.3-2.5-4.8-1.3.3-3.8-3.4,1.2-3.1-1.9-1.9-1.9.5-5.3,4.7-1.8.2-3.7-.9Z"
          transform="translate(-17.07 -20.95)"/>
    <path id="IQ" class="cls-1"
          d="M346.72,217.8l-6.2-.9-2.1,1-2.1,4.1-2.7,1.6,1.2,4.7-.9,7.8-11,6.7,3.1,7.7,6.7,1.7,8.5,4.5,16.7,12.7,10.2.5,3.2-6.1,3.7.5,3.2.4-3.4-3.4-.5-3.3h-1.7l.2-4.6-3.5-4.9-7-3.4-4.6-6.1.5-5,2.3-2.2-1-3.8-3.7-1.9-4.7-7.8h0l-2.3,1.1-2.1-1.6Z"
          transform="translate(-17.07 -20.95)"/>
    <path id="IL" class="cls-1"
          d="M307.22,243.4l-1.4.1-.4,1.1h-1.8l-.1.1-.6,1.6-.6,4.8-1.1,2.9.4.4-1.4,2.1h0l3.9,9.2.7,1.7,1.7-10.2-.4-2.4-2.4.8.1-1.7,1.2-.8-1.4-.7.7-4.3,2,.9.7-2h-.1l.6-1-.3-2.6Z"
          transform="translate(-17.07 -20.95)"/>
    <path id="IT" class="cls-1"
          d="M197.22,211.5l-4,.5-5.2.7-6.2-.6-.6,3.4,7.5,3.3,2.7.7,4.2,2.4.9-3.3-.9-2Zm-33.7-18.9-2.5,1.9-2.8-.3,1.3,3.6.4,7.6,2.1,1.7,2-2.1,2.4.4.4-8.4-3.3-4.4Zm14.3-34.3-1.3-2.2-4.8,1.1-.5,1.2-3.1-.9-.3,2.5-2.1,1.1-3.8-.8-.9,2.5-2.4.2-.9-1-2.7,2.1-2.4.3-2.2-1.3-.2,1.7,1.6,2.4-1.7,1.8,1.5,4.8,2.7.8-.5,2.7,2.1-.5,2.8-2.8,2.3-.9,4.2,2.1,2.6.7,1.9,6,3.6,3.6,4.9,4,4.2,2.8,3.9.4,2.3,2.5,3.4,1.2,1.7,2.7,2.2.8,1.8,3.2,2.3,3.7-1.1,1.3-.8,3.5.1,2,2.1-.5,2.5-5.6,2.1-.4.4-3.3-3.9-2.3,1.9-4.1,4.5,1,3.1,3,.8-2.3-.6-1.2-4.7-3.2-3.9-1.9-4.8-2.3,1.4-1.2-1.4-1.4-4,.1-6-5-2.9-5.1-4.9-3.1-1.9-3.1.5-1.8-.4-3,3.9-2.2,4.1.9-1.4-2.7.3-3-7.2-1.6Z"
          transform="translate(-17.07 -20.95)"/>
    <path id="JO" class="cls-1"
          d="M326,250.5l-3.1-7.7-9.6,6.7L307,247l-.7,2,.4,3.9-.6,1.9.4,2.4-1.7,10.2.3.9,6.1,1,2.1-2,1.1-2.3,4-.8.7-2.2,1.7-1-6.1-6.4,10.4-3.1.9-1Z"
          transform="translate(-17.07 -20.95)"/>
    <path id="KZ" class="cls-1"
          d="M448.22,106.7l-9-1.3-3.1,2.5-10.8,2.2-1.7,1.5-16.8,2.1-1.4,2.1,5,4.1-3.9,1.6,1.5,1.7-3.6,2.9,9.4,4.2-.2,3-6.9-.3-.8,1.8-7.3-3.2-7.6.2-4.3,2.5-6.6-2.4-11.9-4.3-7.5.2-8.1,6.6.7,4.6-6-3.6-2.1,6.8,1.7,1.2-1.7,4.7,5.3,4.3,3.6-.2,4.2,4.1.2,3.2,2.8,1,4.4-1.3,5-2.7,4.7,1.5,4.9-.3,1.9,3.9.6,6-4.6-.9-4,1,.9,4.5-5-.6.6,2,3.2,1.6,3.7,5.5,6.4,2.1,1.5,2.1-.7,2.6.7,1.5,1.8-2,5.5-1.3,3.8,1.7,4.9,4.9,2.5-.3-6.2-22.8,11.9-3.6,1.1.5,9.1,4.5,4.8,2.3,6.5,5.5,5.7-.9,8.6-.5,7.5,4.5,1.5,6.2,2.5.1,2.6,5,6.6.2,2.3,3h1.9l.9-4.5,5.4-4.3,2.5-1.2.3-2.7,3.1-.8,9.1,2.1-.5-3.6,2.5-1.3,8.1,2.6,1.6-.7,8.6.2,7.8.6,3.3,2.2,3.5.9-1.7-3.5,2.9-1.6-8.7-10.7,9-2.4,2-1.4-1-11.1,10.7,2,1.6-2.8-2.5-6.2,3.8-.6,1.8-4.2-4.3-3.8-6,.9-3.3-2.6-3.9-1.2-4.1-3.6-3.2-1.1-6.2,1.6-8.3-3.6-1.1,3.3L486,117.4l-8.3-4.7.8-1.9-9.1,5.7-4.4.4-1.2-3.3-7-2.1-4.3,1.5-4.3-6.3Z"
          transform="translate(-17.07 -20.95)"/>
    <path id="KE" class="cls-1"
          d="M351.12,430.1h-3.8L345,428l-5.1,2.6-1.6,2.7-3.8-.5-1.2-.7-1.3.1h-1.8l-7.2-5.4h-3.9l-2-2.1v-3.6l-2.9-1.1-3.8,4.2L307,428l2.7,4.4.7,3.2,2.6,7.3-2.1,4.7-2.7,4.2-1.6,2.6v.3l1.4,2.4-.4,4.7,20.2,13,.4,3.7,8,6.3,2.2-2.1,1.2-4.2,1.8-2.6.9-4.5,2.1-.4,1.4-2.7,4-2.5-3.3-5.3-.2-23.2,4.8-7.2Z"
          transform="translate(-17.07 -20.95)"/>
    <path id="KG" class="cls-1"
          d="M526.62,185.5l-3.5-.9-3.3-2.2-7.8-.6-8.6-.2-1.6.7-8.1-2.6-2.5,1.3.5,3.6-9.1-2.1-3.1.8-.3,2.7,1.8.6-3.1,4.1,4.6,2.3,3.2-1.6,7.1,3.3-5.2,4.5-4.1-.6-1.4,2-5.9-1.1.6,3.7,5.4-.5,7.1,2,9.5-.9,1-1.5-1.1-1.5,4-3,3.2-1.2,5.7.9.6-4,6.4-.8,1-2.4,6.8-3.4.2-1.4Z"
          transform="translate(-17.07 -20.95)"/>
    <path id="KW" class="cls-1" d="M375,264.3l-3.7-.5-3.2,6.1,4.9.6,1.7,3.1,3.8-.2-2.4-4.8.3-1.5-1.4-2.8Z"
          transform="translate(-17.07 -20.95)"/>
    <path id="LB" class="cls-1" d="M307.22,243.4l.9-3.5,2.6-2.4-1.2-2.5-2.4-.3-.1.2-2.1,4.5-1.3,5.2h1.8l.4-1.1,1.4-.1Z"
          transform="translate(-17.07 -20.95)"/>
    <path id="LR" class="cls-1"
          d="M68.82,406.2l-1.6-.2-1.1,2.6-1.6-.1-1.1-1.3.4-2.6-2.3-3.9-1.5.7-1.2.2-2.6,3-2.6,3.4-.3,1.9-1.3,2,3.7,4.1,4.8,3.5,5.1,4.8,5.7,3.1,1.5-.1.5-5.2.5-.8-.2-2.5-2.3-2.7-1.8-.4-1.6-1.8,1.2-2.8-.6-3.1.3-1.8Z"
          transform="translate(-17.07 -20.95)"/>
    <path id="LY" class="cls-1"
          d="M251.22,254.3l-1.5-2.1-5.4-.8-1.8-1.1h-2l-2-2.8-7.3-1.3-3.6.8-3.7,3-1.5,3.1,1.5,4.8-2.4,3-2.5,1.6-5.9-3.1-7.7-2.7-4.9-1.2-2.8-5.7-7.2-2.8-4.5-1.1-2.2.6-6.4-2.2-.1,4.9-2.6,1.8-1.5,2-3.7,2.5.7,2.6-.4,2.7-2.6,1.4,1.9,5.6.4,3-.9,5.2.5,2.9-.6,3.5.5,4-2.1,2.6,3.4,4.7.2,2.7,2,3.6,2.6-1.2,4.3,2.9,2.5,4,8.8,2.8,3.1,3.5,3.9-2.4,5.4-3.5,22.3,12.2,22.4,12.2v-2.7h6.3l-.5-12.7-1-23.4-1.3-22.7-2-5.1,1.2-3.9-1.1-2.7,1.8-3Z"
          transform="translate(-17.07 -20.95)"/>
    <path id="LS" class="cls-1"
          d="M267.52,649.4l1.1-2,3.1-1,1.1-2.1,1.9-3.1-1.7-1.9-2.3-2-2.6,1.3-3.1,2.5-3.2,4,3.7,4.9,2-.6Z"
          transform="translate(-17.07 -20.95)"/>
    <path id="LT" class="cls-1"
          d="M239.82,104.1l-5-2.9-2.5-.4-.9-1.3-4.4.6-7.9-.4-5,1.9,1.7,5,5,1.1,2.2.9-.2,1.7.6,1.5,2.5.6,1.4,1.9h4.6l4.8-2.2.5-3.4,3.5-2-.9-2.6Z"
          transform="translate(-17.07 -20.95)"/>
    <path id="LU" class="cls-1" d="M146.42,141.5l.2-2.7-1-1.4-1.3.2-.4,3.5,1.1.5Z"
          transform="translate(-17.07 -20.95)"/>
    <path id="LV" class="cls-1"
          d="M241.52,93h-3.8l-4.4-2.2-2.1-.7-3.7,1-.2,4.6-3.6.1-4.4-4.5-4,2.1-1.7,3.7.5,4.5,5-1.9,7.9.4,4.4-.6.9,1.3,2.5.4,5,2.9,2.6-1,4.6-2.3-2.1-3.6-1-2.8-2.4-1.4Z"
          transform="translate(-17.07 -20.95)"/>
    <path id="MA" class="cls-1"
          d="M104.62,231.3l-2.3-.1-5.5-1.4-5,.4-3.1-2.7h-3.9L83,231.4l-3.7,6.7-4,2.6-5.4,2.9-3.5,4.3-.9,3.4-2.1,5.4,1.1,7.9-4.7,5.3-2.7,1.7-4.4,4.4-5.1.7-2.8,2.4-.1.1-3.6,6.5-3.7,2.3-2.1,4-.2,3.3-1.6,3.8-1.9,1-3.1,4-2,4.5.3,2.2-1.9,3.3-2.2,1.7-.3,3h.1l12.4-.5.7-2.3,2.3-2.9,2-8.8,7.8-6.8,2.8-8.1,1.7-.4,1.9-5,4.6-.7,1.9.9h2.5l1.8-1.5,3.4-.2-.1-3.4H69l.1-7.5,8.9-4.7,5.4-1,4.4-1.7,2.1-3.2,6.3-2.5.3-4.7,3.1-.5,2.5-2.4,7-1,1-2.5-1.4-1.4-1.8-6.7-.3-3.9-2-4.1Z"
          transform="translate(-17.07 -20.95)"/>
    <path id="MD" class="cls-1"
          d="M257.92,166.2l1.2-.7.5-2.1,1.1-2-.5-1.1,1-.5.6.9,3,.2,1.2-.5-1-.6.2-1-2-1.5-1.1-2.6-1.9-1.1v-2.1l-2.5-1.6-2-.3-3.9-1.9-3.2.6-1.1.9,1.6.6,1.8,1.9,1.9,2.6,3.4,3.7.6,2.7-.2,2.7Z"
          transform="translate(-17.07 -20.95)"/>
    <path id="MG" class="cls-1"
          d="M395.12,541.3l-1.1-4.2-1.4-2.7-1.8-2.7-2,2.8-.3,3.8-3.3,4.5-2.3-.8.6,2.7-1.8,3.2-4.8,3.9-3.4,3.7h-2.4l-2.2,1.2-3.1,1.3-2.8.2-1,4.1-2.2,3.5.1,5.9.8,4,1.1,3-.8,4.1-2.9,4.8-.2,2.1-2.6,1.1-1.3,4.6.2,4.6,1.6,5-.1,5.7,1.2,3.3,4.2,2.3,3,1.7,5-2.7,4.6-1.5,3.1-7.4,2.8-8.9,4.3-12,3.3-8.8,2.7-7.4.8-5.4,1.6-1.5.7-2.7-.8-4.7,1.2-1.9,1.6,3.8,1.1-1.9.8-3.1-1.3-2.9-.5-7.7Z"
          transform="translate(-17.07 -20.95)"/>
    <path id="MK" class="cls-1"
          d="M233.42,187.7l-2.8-2-2.4.1-1.7.4-1.1.2-2.9,1-.1,1.2h-.7l-.4,2.1.9,2.6,2.3,1.6,3.3-.6,1.9-1.3,2.8.1.7-1.1,1-.2-.8-4.1Z"
          transform="translate(-17.07 -20.95)"/>
    <path id="ML" class="cls-1"
          d="M139.72,333.2l-6.1.6-.1-4-2.6-1.1-3.4-1.8-1.3-3-18.6-13.8-18.4-13.9-8.4.1,2.4,27.4,2.4,27.5,1,.8-1.3,4.4-22.3.1-.9,1.4-2.1-.4-3.2,1.3L53,357l-1.8.2-1,3.7-1.9,1.2.2,3.9,1.1,3.7,2.1,1.8.4,2.4-.3,2,.3,2.3H53l1.5-.8.9.2,1.5,1.6,2.4.5,1.6-1.4,1.8-.8,1.3-.9,1.1.2,1.3,1.4.6,1.7,2.3,2.7-1.2,1.6-.2,2.1,1.2-.6.7.7-.3,1.9,1.7,1.8.7-.6,1.6,1,4.3.1,1-1.9,1,.1,1.6-.7.9,2.7,1.3-.8,2.3-.9-.4-3.7,1.6-2.7-.2-2.2,4.5-5.2.8-4.4,1.6-1.6,2.7.9,2.3-1.3.8-1.6,4.3-2.9,1.1-2,5.2-2.6,3-.9,1.4,1.2h3.6l3.6-.3,2-2.2,7.6-.6,4.9-1,.5-3.9,3-4.3-.1-14.6Z"
          transform="translate(-17.07 -20.95)"/>
    <path id="ME" class="cls-1"
          d="M219.42,182.7l.4-.6-2-1.2-1.8-.7-.8-.8-1.5-1.1-.9.6-1.5,1.4-.4,3.4-.5,1h0l2.3,1.2,1.6,2.1,1.1.4h0l-.5-1.9,2-3.1.4,1.2,1.3-.5Z"
          transform="translate(-17.07 -20.95)"/>
    <path id="MZ" class="cls-1"
          d="M342.42,523.6l-.8-2.9h0l-4.6,3.7-6.2,2.5-3.3-.1-2.1,1.9-3.9.1-1.4.8-6.7-1.8-2.1.3-1.6,6,.7,7.3h.3l1.9,2,2.2,4.6.1,8.2-2.5,1.3-1.9,4.5-3.4-4-.2-4.5,1.3-2.9-.3-2.6-2.1-1.6-1.6.6-3-3-17.1,5.2.3,4.5.3,2.4,4.6-.1,2.6,1.3,1.1,1.6,2.6.5,2.8,2-.3,8.1-1.3,4.4-.5,4.7.8,1.9-.8,3.7-.9.6-1.6,4.6-6.2,7.2,2.2,9,1.1,4.5-1.4,7.1.4,2.3.6,2.9.3,2.8h4.1l.7-3.3-1.4-.5-.3-2.6,2.6-2.4,6.8-3.4,4.6-2.2,2.5-2.3.9-2.6-1.2-1.1,1.1-3,.5-6.2-1,.3V594l-.8-3.7-2.4-4.8.7-4.6,2.3-1.4,4.1-4.6,2.2-1.1,6.7-6.8,6.4-3.1,5.2-2.5,3.7-3.9,2.4-4.4,1.9-4.6-.9-3.1.2-9.9-.4-5.6.4-6.3Z"
          transform="translate(-17.07 -20.95)"/>
    <path id="MR" class="cls-1"
          d="M89.22,296.2l-20.3-15.5-.2,9.7-17.9-.3-.2,16.3-5.2.5L44,310.2l.9,9.2-21.6-.1-1.2,2.2,2.8,2.7,1.4,3-.7,3.2.6,3.2.5,6.3-.8,5.9-1.7,3.2.4,3.4,2-2,2.7.5,2.8-1.4h3.1l2.6,1.8,3.7,1.7,3.2,4.7,3.6,4.4,1.9-1.2,1-3.7L53,357l3.8,1.8,3.2-1.3,2.1.4.9-1.4,22.3-.1,1.3-4.4-1-.8-2.4-27.5-2.4-27.4,8.4-.1Z"
          transform="translate(-17.07 -20.95)"/>
    <path id="MW" class="cls-1"
          d="M308.62,544.4l.1-2.3-1.2-1.9.1-2.8-1.5-4.7,1.7-3.5-.1-7.7-1.9-4.1.2-.7h0l-1.1-1.7-5.4-1.2,2.6,2.8,1.2,5.4-1,1.8-1.2,5.1.9,5.3-1.8,2.2-1.9,5.9,2.9,1.7,3,3,1.6-.6,2.1,1.6.3,2.6-1.3,2.9.2,4.5,3.4,4,1.9-4.5,2.5-1.3-.1-8.2-2.2-4.6-1.9-2h-.3v.8l1.1.3,1,3.4-.2.8-1.9-2.5-1,1.6-.8-1.4Z"
          transform="translate(-17.07 -20.95)"/>
    <path id="NA" class="cls-1"
          d="M244.82,566.6l-10.3,2.5-13.4-.9-3.7-3-22.5.3-.9.4-3.2-2.9-3.6-.1-3.3,1-2.7,1.2.2,4.9,4.4,6.2,1.1,4,2.8,7.7,2.7,5.2,2.1,2.6.6,3.5v7.6l1.6,9.8,1.2,4.6,1,6.2,1.9,4.7,3.9,4.8,2.7-3.2,2.1,1.8.8,2.7,2.4.5,3.3,1.2,2.9-.5,5-3.2,1.1-23.6.6-18.5,5.4-.2.9-22.7,4.1-.2,8.6-2.2,2,2.6,3.7-2.5h1.6l3.2-1.5v-.5l-2.1-1.4-3.6-.4-4.6,1.5Z"
          transform="translate(-17.07 -20.95)"/>
    <path id="NE" class="cls-1"
          d="M190.72,308.5l-8.8-2.8-18.6,12.2-15.8,12.5-7.8,2.8.1,14.6-3,4.3-.5,3.9-4.9,1-7.6.6-2,2.2-3.6.3-.5,3.1.8,2.9,3.1,4.1.2,3.1,6.4,1.4-.1,4.4,1.9-1.9h2l4.3,3.7.3-5.7,1.6-2.6.8-3.6,1.4-1.4,6-.8,5.6,2.4,2.1,2.4,2.9.1,2.6-1.5,6.8,3.3,2.8-.2,3.3-2.7,3.3.2,1.6-.9,3,.4,4.3,1.8,4.3-3.5,1.3.2,3.9,7,1-.2.2-2,1.6-.4.5-2.9-3.6-.2V366l-2.4-2.3,2.3-8.4,6.9-6,.2-8.3,1.8-12.9,1.1-2.7-2.3-2.2-.2-2.1-2-1.6-1.6-9.9-3.9,2.4-3.1-3.5Z"
          transform="translate(-17.07 -20.95)"/>
    <path id="NG" class="cls-1"
          d="M195.22,375.6l-1,.2-3.9-7-1.3-.2-4.3,3.5-4.3-1.8-3-.4-1.6.9-3.3-.2-3.3,2.7-2.8.2-6.8-3.3-2.6,1.5-2.9-.1-2.1-2.4-5.6-2.4-6,.8L139,369l-.8,3.6-1.6,2.6-.3,5.7-.2,2.1,1.2,3.8-1.1,2.5.6,1.7-2.7,4-1.7,1.9-1,4,.1,4.1-.3,10.2h9.2l3.9,4.2,1.9,4.6,3,3.9,4.5.2,2.2-1.4,2.1.3,5.8-2.3,1.4-4.5,2.7-6.1,1.6-.1,3.3-3.7,2.1-.1,3.2,2.6,3.9-2.2.5-2.6,1.2-2.6.8-3.2,3-2.6,1.1-4.5,1.2-1.4.7-3.3,1.5-4,4.6-5,.3-2.1.6-1.1-2.3-2.6Z"
          transform="translate(-17.07 -20.95)"/>
    <path id="NL" class="cls-1"
          d="M144.92,126.8h2.9l1.1-2.3,1-5.6-1-2-3.9-.2-6.5,2.6-3.9,8.9-2.5,1.7h0l3.6.5,4.4-1.3,3.1,2.7,2.8,1.4-1.1-6.4Z"
          transform="translate(-17.07 -20.95)"/>
    <path id="OM" class="cls-1"
          d="M440.42,320.7l2.1-2,.8-1.8,1.6-3.8-.1-1.4-2.1-.8-1.6-2.1-2.9-3.7-3.3-1.1-4.1-.9-3.3-2.3-2.9-4.3h-2.8l-.1,4.2,1.1.8-2.4,1.3.3,2.6-1.4,2.6.1,2.6,2.9,4.5-2.6,12.7-16.1,6.4,5.2,10.5,2.1,4.4,2.5-.3,3.6-2.2,3.1.6,2.5-1.8-.2-2.5,2.1-1.6h3.4l1.2-1.3.2-3.1,3.3-2.4h2.6l.4-.8-1-4.2.6-3.2,1-1.5,2.5.3,1.7-4.4Zm-16.6-30.4.2-2.6-.7-.6-1.3,2.2,1.3,2.2Z"
          transform="translate(-17.07 -20.95)"/>
    <path id="PK" class="cls-1"
          d="M527.72,229.2l-9.4-2.6-2.9-5-4.7-3-2.8.7-2.4,1.2-5.8.8-5.3,1.3-2.4,2.8,1.9,2.8,1.4,3.2-2,2.7.8,2.5-.9,2.3-5.1-.2,3,4.2-3,1.6-1.5,3.8,1.1,3.8-1.7,1.8-2.1-.6-4,.9-.2,1.7h-4l-2.3,3.6.8,5.4-6.6,2.6-3.8-.5-.9,1.4-3.3-.8-5.3.9-9.6-3.2,3.2,3.3,2.8,3.9,5.6,2.7,1,5.7,2.7,1,.9,2.9-7.4,3.3-1.2,7.4,7.6-.9,8.9-.1,9.9-1.2,4.9,4.8,2.1,4.6,4.2,1.6,3.2-4.2h12l-1.8-5.5-3.5-3.2-1.3-4.9-4-2.9,4.9-6.6,6.4.5,4.5-6.7,2.1-6.5,3.9-6.3-1-4.5,3.7-3.7-5-3.1-2.9-4.3-3.2-5.6,1.9-2.8,8.5,1.6,5.7-1,3.7-5.4Z"
          transform="translate(-17.07 -20.95)"/>
    <path id="PL" class="cls-1"
          d="M208.82,111.2l-4.6-.1-.5-1.4-4.8-1.1-5.7,2.1-7.1,2.8-3.1,1.7,1.4,3.1-1.2,1.6,2,2.2,1.4,3.3-.1,2.1,2.3,3.9,2.4,1.9,3.7.6-.1,1.7,2.7,1.2.6-1.5,3.4.6.7,2,3.6.3,2.6,3.1.3.4,1.9-.9,2.7,2.2,2.8-1.3,2.4.6,3.4-.8,4.9,2.3,1.1.4-1.6-2.8,3.8-5.1,2.3-.7.3-1.8-3.1-5.3-.5-2.7-1.9-2.9,2.7-1.2-.3-2.4-1.7-2.3-.6-2.7-1.4-1.9-2.5-.6-8.7.1-5.9-.7Z"
          transform="translate(-17.07 -20.95)"/>
    <path id="PT" class="cls-1"
          d="M77,218.8l-.4-2.1,2-2.5.8-1.7-1.8-1.9,1.6-4.3-2-3.8,2.2-.5.3-3,.9-.9.2-4.9,2.4-1.7-1.3-3.1-3-.2-.9.8H75l-1.2-3.1-2.1.9-1.9,1.6.1,2.1.9,2.2.1,2.7-1.3,3.8-.4,2.5L67,204l-.6,4.2,1.2,2.4,2.3.6.4,4-1,5.1,2.8-.7,2.7.9,2.2-1.7Z"
          transform="translate(-17.07 -20.95)"/>
    <path id="PS" class="cls-1" d="M306.32,249l-2-.9-.7,4.3,1.4.7-1.2.8-.1,1.7,2.4-.8.6-1.9-.4-3.9Z"
          transform="translate(-17.07 -20.95)"/>
    <path id="QA" class="cls-1" d="M397.42,298.4l.8-3.8-.5-3.7-1.9-2-1.4.7-1.1,3.3.8,4.7,1.8,1.2,1.5-.4Z"
          transform="translate(-17.07 -20.95)"/>
    <path id="RO" class="cls-1"
          d="M247.52,149.2h-2.1l-1,1.5-3.6.6-1.6.9-2.4-1.5h-3.2l-3.2-.7-1.9,1.3-2.9,1.3-1.9,4.2-2.6,4.3-3.8,1.1,2.9,2.5.8,1.9,3.2,1.5.7,2.5,3.1,1.8,1.4-1.3,1.4.7-1.1,1.1,1,1,1.8,2.6,1.9-.5,4,1,7.5.3,2.3-1.6,5.8-1.4,4,2.2,3,.7.4-7.4,1.6.5,2.3-1.3-.4-1.6-2.4-1.1-2.2,1-2.4-1.1-1.3-2.8.2-2.7-.6-2.7-3.4-3.7-1.9-2.6-1.8-1.9-1.6-.6Z"
          transform="translate(-17.07 -20.95)"/>
    <path id="RW" class="cls-1"
          d="M287,462.3l-3.3,1.9-1.4-.6-1.6,1.8-.2,3.8-.8.4-.6,3.5,3.5.5,1.7-3.6,3,.4h0l1.6-.8.4-3.7-2.3-3.6Z"
          transform="translate(-17.07 -20.95)"/>
    <path id="EH" class="cls-1"
          d="M69,279.1h-.8l.1,3.4-3.4.2-1.8,1.5h-2.5l-1.9-.9-4.6.7-1.9,5-1.7.4-2.8,8.1-7.8,6.8-2,8.8-2.3,2.9-.7,2.3-12.4.5h-.1l-.3,2.7,1.2-2.2,21.6.1-.9-9.2,1.4-3.3,5.2-.5.2-16.3,17.9.3.2-9.7.1-1.2v-.4Z"
          transform="translate(-17.07 -20.95)"/>
    <path id="SA" class="cls-1"
          d="M368.12,269.9l-10.2-.5-16.7-12.7-8.5-4.5-6.7-1.7-.9,1-10.4,3.1,6.1,6.4-1.7,1-.7,2.2-4,.8-1.1,2.3-2.1,2-6.1-1-.5,2.5V273l-.6,3.5h2.7l3.2,4.4,3.7,5.1,2.5,4.7,1.7,1.5,1.7,3.3-.2,1.4,2.1,3.7,3,1.3,2.8,2.5,3.6,7v3.8l.9,4.4,4,6.1,2.5,1,4.1,4.4,1.9,5.2,3.2,5.3,3,2.3.6,2.5,1.8,1.9.9,2.8L356,349l-.7-2.7,1.2-3.1,2.4,1.7,1.5-.6,6.4-.2,1,.7,5.4.6,2.1-.3,1.6,2.1,2.5-1,3.5-6.7,5-2.9,15.7-2.4,16.1-6.4,2.6-12.7-2.9-4.5-1,1.3-16.8-3.2-2.6-6.4-.4-1.5-1.2-2.4-1.5.4-1.8-1.2-1-1.6-.9-2.1-1.7-1.8-1-2.1.4-2.1-.6-2.7-4-2.6-1.2-2.3-2.9-1.4-2.7-5.5-3.8.2-1.7-3.1-4.9-.6Z"
          transform="translate(-17.07 -20.95)"/>
    <path id="SD" class="cls-1"
          d="M320.22,351.4l.4-4.2,1.6-2,4-1,2.6-3.6-3.1-2.4-2.2-1.6L321,329l-1.1-6.5,1.1-1.2-2.1-6.2h-65.3l.5,12.7h-6.3v2.7l1.1,25.2-4.8-.4-2.4,4.7-1.4,3.9,1.2,1.5-1.8,1.9.7,2.7-1.4,2.6-.5,2.4,2-.4,1.2,2.5.1,3.7,2.1,1.8v1.6l.7,2.7,3.3,4v2.6l-.8,2.6.3,2,2,1.8.5.3,1.7-.7,1.9-1.2,1.3-5.7,1.5-2.9,4-.9,1,1.8,3,3.7,1.5.5,2-1.1,4.1.3.8,1.3h5.5l.2-1.3,2.9-1.2.5-1.9,2.1-1.3,4.8,3.7,2.8-.7,2.7-4.5,3-3.5-.6-3.9-1.4-1.8,3.4-.3.3-1.5,2.6.5-.5,4.7.8,4.6,2.9,2.5.7,2.2v3.1l.8.1v-.7l1.4-6.7,2.6-1.8.5-2.6,2.3-4.8,3.2-3.2,2.1-6.2.7-5.5-.7-2.5,1.9-9.4Z"
          transform="translate(-17.07 -20.95)"/>
    <path id="SS" class="cls-1"
          d="M305.42,391.6l-.7-2.2-2.9-2.5-.8-4.6.5-4.7-2.6-.5-.3,1.5-3.4.3,1.4,1.8.6,3.9-3,3.5-2.7,4.5-2.8.7-4.8-3.7-2.1,1.3-.5,1.9-2.9,1.2-.2,1.3h-5.5l-.8-1.3-4.1-.3-2,1.1-1.5-.5-3-3.7-1-1.8-4,.9-1.5,2.9-1.3,5.7-1.9,1.2-1.7.7,3.8,2.5,3.1,2.6.1,2,3.8,3.4,2.4,2.7,1.5,3.8,4.2,2.5.9,2.1,3.5,5.2,2.5.8,1.5-1.1,2.6.4,3.1-1.3,1.4,2.7,5,4.2h0l2.3-1.7,3.5,1.4,4.5-1.5,4,.1,3.4-3,3.4-3.8,3.8-4.2-3.5-6.9-2.6-1.5-1-2.5-2.9-3.1-3.4-.5,1.8-3.6,3-.1.8-2-.2-5-.8-.1v-3.1Z"
          transform="translate(-17.07 -20.95)"/>
    <path id="SN" class="cls-1"
          d="M48.32,362.1l-3.6-4.4-3.2-4.7-3.7-1.7-2.6-1.8h-3.1l-2.8,1.4-2.7-.5-2,2-1.3,3.3-2.8,4.4L18,361.3l2.7,2.3,2.2,5,6.1-.2,1.3-1.5,1.8-.1,2.1,1.5,1.8.1,1.8-1.1,1.1,1.8-2.4,1.5-2.4-.1-2.4-1.4-2.1,1.5h-1l-1.4.9-5-.1.8,4.9,3-1.1,1.8.2,1.5-.7,10.3.3,2.7.1,4,1.5,1.3-.1.4-.7,3,.5.8-.4.3-2-.4-2.4-2.1-1.8-1.1-3.7-.2-3.9Z"
          transform="translate(-17.07 -20.95)"/>
    <path id="SL" class="cls-1"
          d="M58.82,401.6l-1.5.3v-2.3l-.9-1.7.2-1.8-1.2-2.7-1.5-2.3h-4.5l-1.3,1.2-1.5.2-1,1.4-.7,1.7-3,2.8.7,4.7.9,2.3,2.9,3.5,4.1,2.5,1.5.5,1.3-2,.3-1.9,2.6-3.4,2.6-3Z"
          transform="translate(-17.07 -20.95)"/>
    <path id="RS" class="cls-1"
          d="M224.22,168.1l-3.2-1.5-.8-1.9-2.9-2.5-3.2-.2-3.7,1.6h0l1.5,2.4,1.7,1.8-1.7,2.3h1.8l-1,2.7,2.7,2.3-.5,2.9-1.2.3,1.5,1.1.8.8,1.8.7,2,1.2-.4.6,1.2-.5.5-2,.9-.4.8.9,1,.4.8,1,.8.3,1.1,1.1h.8l-.5,1.5-.5.7.2.5,1.7-.4,2.4-.1.7-.9-.6-.7.7-2,1.7-1.9-2.8-2.6-.7-2.3,1.1-1.4-1-1,1.1-1.1-1.4-.7-1.4,1.3-3.1-1.8-.7-2.5Z"
          transform="translate(-17.07 -20.95)"/>
    <path id="SK" class="cls-1"
          d="M226.82,143.8l-4.9-2.3-3.4.8-2.4-.6-2.8,1.3-2.7-2.2-1.9.9-.3-.4h-1.5l-.6,1.1-1.1.3-.2,1.4-.9.3-.1.6-1.6.6-2.2-.1-.6,1.4-.3.8.7,2.1,2.6,1.6,1.9.7,4.1-.8.3-1.2,1.9-.2,2.3-1,.6.4,2.2-.7,1-1.5,1.6-.4,5.5,1.9,1-.6.7-2.5,1.1-1.7Z"
          transform="translate(-17.07 -20.95)"/>
    <path id="SI" class="cls-1"
          d="M198.82,159.9l-1.2-2.1-.8-.1-.9,1.1-4.3.1-2.4,1.4-4.2-.4-.3,3,1.4,2.7-1.1.5,3.5.2.8-1,1.8,1,2,.1-.2-1.7,1.7-.6.3-2.5,3.9-1.7Z"
          transform="translate(-17.07 -20.95)"/>
    <path id="SE" class="cls-1"
          d="M217.12,44l-1.9-2.2-1.7-8.4-7.2-3.7-5.9-2.7-2.5.3v3.5l-7.9-.9-.6,3.1-4-.1-2.2,3.9-3.4,6.1-5.7,7.9,1.8,1.9-1.3,2.2-4.3-.1L168,60.1l1,7.6,3.1,2.9-.9,6.9-3.4,4-1.7,3.3,4.2,8.4,4.4,6.7,2,5.7,5.3-.3,2.2-4.7,5.7.5,2-5.5.6-10,4.6-1.3,3.3-6.6-4.8-3.3-3.6-4,2.1-8.1,7.7-4.9,6.1-4.5-1.2-3.5,3.4-3.9,7-1.5Z"
          transform="translate(-17.07 -20.95)"/>
    <path id="SZ" class="cls-1"
          d="M289.92,619.5l-2.7-1.2-1.6.5-.7,1.8-1.6,2.4-.1,2.2,3,3.5,3.3-.7,1.3-2.8-.3-2.8-.6-2.9Z"
          transform="translate(-17.07 -20.95)"/>
    <path id="SY" class="cls-1"
          d="M322.92,242.8l11-6.7.9-7.8-1.2-4.7,2.7-1.6,2.1-4.1-5.9,1.1-2.8-.2-5.7,2.5h-4.3l-3-1.2-5.5,1.8-1.9-1.3.1,3.6-1.2,1.5-1.2,1.4-1,2.6,1.1,5,2.4.3,1.2,2.5-2.6,2.4-.9,3.5.3,2.6-.6,1h.1l6.3,2.5,9.6-6.7Z"
          transform="translate(-17.07 -20.95)"/>
    <path id="TD" class="cls-1"
          d="M247.82,330.5l-22.4-12.2-22.3-12.2-5.4,3.5,1.6,9.9,2,1.6.2,2.1,2.3,2.2-1.1,2.7-1.8,12.9-.2,8.3-6.9,6-2.3,8.4,2.4,2.3v4.1l3.6.2-.5,2.9,2.2,4.1.5,4.2-.2,4.3,3.1,5.8-3.1-.1-1.6.4-2.5-.6-1.2,3,3.3,3.7,2.5,1.1.8,2.6,1.8,4.4-.9,1.7,4.7-.4,1-1.7.9.2,1.4,1.4,7.1-2.4,2.3-2.5,2.9-2.2-.6-2.3,1.6-.6,5.4.4,5.2-2.9,4-7,2.8-2.5,3.5-1.1v-1.6l-2.1-1.8-.1-3.7-1.2-2.5-2,.4.5-2.4,1.4-2.6-.7-2.7,1.8-1.9-1.2-1.5,1.4-3.9,2.4-4.7,4.8.4-1.1-25.2Z"
          transform="translate(-17.07 -20.95)"/>
    <path id="TG" class="cls-1"
          d="M121.12,385.1l-4.9-.1-.4,1.9,2.4,3.3-.1,4.6.6,5.1,1.4,2.3-1.2,5.7.4,3.2,1.5,4,1.2,2.2,4.6-1.3-1.4-4.4.2-14.6-1.1-1.3-.2-3.1-2-2.3-1.7-1.9.7-3.3Z"
          transform="translate(-17.07 -20.95)"/>
    <path id="TJ" class="cls-1"
          d="M483.52,198.6l-2.1.2-1.3-1.8.2-2.9-6.4,1.5-.5,4-1.5,3.5-4.4-.3-.6,2.8,4.2,1.6,2.4,4.7-1.3,6.6,1.8.8,3.3-2.1,2.1,1.3.9-3,3.2.1.6-.9-.2-2.6,1.7-2.3,3.2,1.5v2l1.6.3,1,5.4,2.6,2.1,1.5-1.3,2.1-.7,2.5-2.9,3.8.5h5.4l-1.8-3.7-.6-2.5-3.5-1.4-1.6.6-3-5.9-9.5.9-7.1-2-5.4.5-.6-3.7,5.9,1.1,1.4-2Z"
          transform="translate(-17.07 -20.95)"/>
    <path id="TM" class="cls-1"
          d="M465,217.1l-.8-4-7.7-2.7-6.2-3.2-4.2-3-7-4.4-4.3-6.4-2-1.2-5.5.3-2.3-1.3-1.9-4.9-7.8-3.3-3.3,3.6-3.8,2.2,1.6,3.1-5.8.1-2.5.3-4.9-4.9-3.8-1.7-5.5,1.3-1.8,2,2.5,4-.5-4.5,3.7-1.6,2.4,3.6,4.6,3.7-4,2-5.3-1.5.1,5.2,3.5.4-.4,4.4,4.5,2.1.7,6.8,1.8,4.5,4.4-1.2,3-3.7,3.5.2,2.1-1.2,3.8.6,6.5,3.3,4.3.7,7.3,5.7,3.9.2,1.6,5.5,5.9,2.4,3.9-.8.4-3,4-.9,2.5-2-.1-5.2,4.1-1.2.3-2.3,2.9,1.7,1.6.2Z"
          transform="translate(-17.07 -20.95)"/>
    <path id="TN" class="cls-1"
          d="M177.42,244.3l-2-1-1.5-3-2.8-.1-1.1-3.5,3.4-3.2.5-5.6-1.9-1.6-.1-3,2.5-3.2-.4-1.3-4.4,2.4.1-3.3-3.7-.7-5.6,2.6-1,3.3,1,6.2-1.1,5.3-3.2,3.6.6,4.8,4.5,3.8v1.5l3.4,2.6,2.6,11.3,2.6-1.4.4-2.7-.7-2.6,3.7-2.5,1.5-2,2.6-1.8.1-4.9Z"
          transform="translate(-17.07 -20.95)"/>
    <path id="TR" class="cls-1"
          d="M306,191.8l-9.7-4.4-8.5.2-5.7,1.7-5.6,4-9.9-.8-1.6,4.8-7.9.2-5.1,6.1,3.6,3-2,5,4.2,3.6,3.7,6.4,5.8-.1,5.4,3.5,3.6-.8.9-2.7,5.7.2,4.6,3.5,8-.7,3.1-3.7,4.6,1.5,3.2-.6-1.7,2.4,2.3,3,1.2-1.4,1.2-1.5-.1-3.6,1.9,1.3,5.5-1.8,3,1.2H324l5.7-2.5,2.8.2,5.9-1.1,2.1-1,6.2.9,2.1,1.6,2.3-1.1h0l-3.7-5.2.7-2-2.9-7.3,3.3-1.8-2.4-1.9-4.2-1.5v-3.1l-1.3-2.2-5.6-3-5.4.3-5.5,3.2-4.5-.6-5.8,1-7.8-2.4Zm-49.6,4,2-1.9,6.1-.4.7-1.5-4.7-2-.9-2.4-4.5-.8-5,2,2.7,1.6-1.2,3.9-1.1.7.1,1.3,1.9,2.9,3.9-3.4Z"
          transform="translate(-17.07 -20.95)"/>
    <path id="TZ" class="cls-1"
          d="M289,461.5l-2,.8,2.3,3.6-.4,3.7-1.6.8h0l.3,2.5,1.2,1.5v2l-1.4,1.4-2.2,3.3-2.1,2.3-.6.1-.3,2.7,1.1.9-.2,2.7,1,2.6-1.3,2.4,4.5,4.3.3,3.9,2.7,6.5h0l.3.2,2.2,1.1,3.5,1.1,3.2,1.9,5.4,1.2,1.1,1.7h0l.4-1.2,2.8,3.4.3,6.7,1.8,2.4v.1l2.1-.3,6.7,1.8,1.4-.8,3.9-.1,2.1-1.9,3.3.1,6.2-2.5,4.6-3.7h0l-2-1.4-2.2-6.3-1.8-3.9.4-3.1-.3-1.9,1.7-3.9-.2-1.6-3.5-2.3-.3-3.6,2.8-7.9-8-6.3-.4-3.7-20.2-13h0l-2.8,2.8-1.9,2.9,2.2,2.2-3.2,1.6-.7-.8-3.2.4-2.5,1.4-1.6-2.4,1.1-4.5.2-3.8h0l-6.2-.1Z"
          transform="translate(-17.07 -20.95)"/>
    <path id="UG" class="cls-1"
          d="M307,428l-3.4,3-4-.1-4.5,1.5-3.5-1.4-2.3,1.7h0l-.3,7.5,2.3.8-1.8,2.3-2.2,1.7-2.1,3.3-1.2,3-.3,5.1-1.3,2.4-.1,4.8,1.4.6,3.3-1.9,2-.8,6.2.1h0l-.3-2.5,2.6-3.7,3.5-.9,2.4-1.5,2.9,1.2.3.5v-.3l1.6-2.6,2.7-4.2,2.1-4.7-2.6-7.3-.7-3.2L307,428Z"
          transform="translate(-17.07 -20.95)"/>
    <path id="UA" class="cls-1"
          d="M277.92,123.9l-4.8.5-1.5-.3-1,1.4-1.8-.2h0l-4.1.3-1.2,1.4.2,3.1-2-.6-4.3.3-1.5-1.5-1.6,1.1-2-.9-3.8-.1-5.6-1.5-5-.5-3.7.2-2.4,1.6-2.2.3,3.1,5.3-.3,1.8-2.3.7-3.8,5.1,1.6,2.8-1.1-.4-1.1,1.7L225,148l2.9,1.7.6,1.6,1.9-1.3,3.2.7h3.2l2.4,1.5,1.6-.9,3.6-.6,1-1.5h2.1l1.1-.9,3.2-.6,3.9,1.9,2,.3,2.5,1.6v2.1l1.9,1.1,1.1,2.6,2,1.5-.2,1,1,.6-1.2.5-3-.2-.6-.9-1,.5.5,1.1-1.1,2-.5,2.1-1.2.7,2.4,1.1,2.2-1,2.4,1.1,3.3-4.6,1.3-3.4,4.5-.8.7,2.4,8,1.5,1.7,1.4-4.5,2.1-.7,1.2L285,169l-.6,2.9,3,1.3,6.3-3.6,5.3-1.1.6-2.2-5.1.4-2.7-1.5-1-3.9,3.9-2.3,4.6-.3,3-2,3.9-.5-.4-2.8,2.2-1.7,4.7-.5.3-2.1-1.8-3.4,1.3-3.2-.4-1.9-7.6-2-2.9.1-3.6-2.9-3.5,1-6.6-2.2-.2-1.2-2.2-2.7-4-.2-.7-1.9.9-1.3-3.8-3.4Z"
          transform="translate(-17.07 -20.95)"/>
    <path id="UZ" class="cls-1"
          d="M479.22,186l-2.5,1.2-5.4,4.3-.9,4.5h-1.9l-2.3-3-6.6-.2-2.6-5-2.5-.1-1.5-6.2-7.5-4.5-8.6.5-5.7.9-6.5-5.5-4.8-2.3-9.1-4.5-1.1-.5-11.9,3.6L404,192l5.8-.1-1.6-3.1,3.8-2.2,3.3-3.6,7.8,3.3,1.9,4.9,2.3,1.3,5.5-.3,2,1.2,4.3,6.4,7,4.4,4.2,3,6.2,3.2,7.7,2.7.8,4h2.9l4.3,1.4,1.3-6.6-2.4-4.7-4.2-1.6.6-2.8,4.4.3,1.5-3.5.5-4,6.4-1.5-.2,2.9,1.3,1.8,2.1-.2,4.1.6,5.2-4.5-7.1-3.3-3.2,1.6-4.6-2.3,3.1-4.1-1.8-.6Z"
          transform="translate(-17.07 -20.95)"/>
    <path id="YE" class="cls-1"
          d="M410.92,349.1l-2.1-4.4-5.2-10.5-15.7,2.4-5,2.9-3.5,6.7-2.5,1-1.6-2.1-2.1.3-5.4-.6-1-.7-6.4.2-1.5.6-2.4-1.7-1.2,3.1.7,2.7-2.3,2.1.4,2.7-.6,1.3.7,2.9-1.1.3,1.7,2.6,1.3,4.7,1,1.9v3.4l1.6,3.8,3.9.3,1.8-.9,2.7.2.8-1.7,1.5-.4,1.1-1.7,1.4-.4,4.7-.3,3.5-1.2,3.1-2.7,1.7.4,2.4-.3,4.7-4.5,8.8-3,5.3-2.7v-2.1l.9-2.9,3.9-1.7Z"
          transform="translate(-17.07 -20.95)"/>
    <path id="ZA" class="cls-1"
          d="M287.62,596.6l-2.9-.6-1.9.8-2.6-1.1-2.2-.1-8,4.7-5.2,4.7-2,4.3-1.7,2.4-3,.5-1.2,3-.6,2-3.6,1.5-4.4-.3-2.5-1.8-2.3-.8-2.7,1.5-1.5,3.1-2.7,1.9-2.8,2.8-4,.7-1.1-2.3.7-3.8-3-6.1-1.4-1-1.1,23.6-5,3.2-2.9.5-3.3-1.2-2.4-.5-.8-2.7-2.1-1.8-2.7,3.2,3.5,8.2v.1l2.5,5.3,3.2,6-.2,4.8-1.7,1.2,1.4,4.2-.2,3.8.6,1.7.3-.9,2.1,2.9,1.8.1,2.1,2.3,2.4-.2L226,674l4.6-1,5.6-2.5,2.2.3,3.3-.8,5.7,1.2,2.7-1.2,3.2,1,.8-1.8,2.7-.3,5.8-2.5,4.3-2.9,4.1-3.8,6.7-6.5,3.4-4.6,1.8-3.2,2.5-3.3,1.2-.9,3.9-3.2,1.6-2.9,1.1-5.2,1.7-4.7h-4.1l-1.3,2.8-3.3.7-3-3.5.1-2.2,1.6-2.4.7-1.8,1.6-.5,2.7,1.2-.4-2.3,1.4-7.1-1.1-4.5-2.2-9Zm-20.1,52.8-2,.6-3.7-4.9,3.2-4,3.1-2.5,2.6-1.3,2.3,2,1.7,1.9-1.9,3.1-1.1,2.1-3.1,1-1.1,2Z"
          transform="translate(-17.07 -20.95)"/>
    <path id="ZM" class="cls-1"
          d="M288.62,509.6l-1.9-.5.4-1.3-1-.3-7.5,1.1-1.6.7-1.6,4.1,1.2,2.8-1.2,7.5-.8,6.4,1.4,1.1,3.9,2.5,1.5-1.2.3,6.9h-4.3l-2.1-3.5-2-2.8-4.3-.8-1.2-3.4-3.4,2-4.5-.9-1.8-2.8-3.5-.6-2.6.1-.3-2-1.9-.1.5,2-.7,3,.9,3-.9,2.4.5,2.2-11.6-.1-.8,20.3,3.6,5.2,3.5,4,4.6-1.5,3.6.4,2.1,1.4v.5l1,.5,6.2.7,1.7.7,1.9-.1,3.2-4.1,5.1-5.3,2-.5.7-2.2,3.3-2.5,4.2-.9-.3-4.5,17.1-5.2-2.9-1.7,1.9-5.9,1.8-2.2-.9-5.3,1.2-5.1,1-1.8-1.2-5.4-2.6-2.8-3.2-1.9-3.5-1.1-2.2-1.1-.3-.2h0l.5,1.1-1,.4-1.2-1.4Z"
          transform="translate(-17.07 -20.95)"/>
    <path id="ZW" class="cls-1"
          d="M287.62,596.6l6.2-7.2,1.6-4.6.9-.6.8-3.7-.8-1.9.5-4.7,1.3-4.4.3-8.1-2.8-2-2.6-.5-1.1-1.6-2.6-1.3-4.6.1-.3-2.4-4.2.9-3.3,2.5-.7,2.2-2,.5-5.1,5.3-3.2,4.1-1.9.1-1.7-.7-6.2-.7L258,573l1.1,1.1,1.6,3.7,6,7,2.3.7-.1,2.2,1.5,4.1,4.2.9,3.4,2.9,2.2.1,2.6,1.1,1.9-.8,2.9.6Z"
          transform="translate(-17.07 -20.95)"/>
    <path id="SO" class="cls-1"
          d="M362.82,388.6l-2.6-2.7-1.2-2.6-1.8-1.2-2,3.4-1.1,2.3,2.2,3.5,2.1,3.1,2.2,2.2,18.5,7.6,4.8-.1-15.4,19.1-7.4.3-4.9,4.5-3.6.1-1.5,2-4.8,7.2.2,23.2,3.3,5.3,1.3-1.5,1.3-3.4,6.1-7.7,5.3-4.8,8.3-6.4,5.6-5.1,6.4-8.7,4.7-7.1,4.6-9.3,3.2-8.2,2.5-7.1,1.3-6.8,1.1-2.3-.2-3.4.4-3.7-.2-1.7h-2.1l-2.6,2.2-2.9.6-2.5.9-1.8.2h0l-3.2.2-1.9,1.1-2.8.5-4.8,1.9-6.1.8-5.2,1.6Z"
          transform="translate(-17.07 -20.95)"/>
    <path id="FR" class="cls-1"
          d="M165.12,186.7l-1.1-5.2-3.2,2.3-1,2.3,1.4,4.2,2.4,1.2Zm-31.5-50.9-2.4-2.4-2.2-.1-.7-2.2-4.3,1.2-1.4,5.1-11.3,4.8-4.6-2.6,1.4,7-8.2-1.6-6.4,1.3.4,4.6,7.5,2.4,3.6,3.1,5.1,6.5-1,12.3-2.7,3.7,2,2.4,9.4,2.8,1.9-1.3,5.7,2.8,6-.8.5-3.7,7.4-2,10,1.6,4.5-3.4.5-2.7-2.7-.8-1.5-4.8,1.7-1.8-1.6-2.4.2-1.7-1.8-2.7-2.4.9v-2.8l3.5-3.5-.2-1.6,2.3.6,1.3-1,.5-4.5,2.3-4.2-7.1-1.2-2.4-1.6-1.4.1-1.1-.5-4.4-2.8-2.5.4-3.4-2.9Z"
          transform="translate(-17.07 -20.95)"/>
    <path id="ES" class="cls-1"
          d="M124.42,208.6v-.2h-.5l-.3-.4-.1.2-.1.2v.2h.5l.4.1.1-.1Zm-.8-1.6h.3l.6-.7V206l-.3-.2-1.1.2-.2.3v.3l-.3.1-.1.4.1.2.8.1Zm-17.2-28.1-8.2-.2L94,179l-5.4-1h-6.8l-6.2-1.1-7.4,4.5,2,2.6-.4,4.4,1.9-1.6,2.1-.9L75,189h3l.9-.8,3,.2,1.3,3.1-2.4,1.7-.2,4.9-.9.9-.3,3-2.2.5,2,3.8-1.6,4.3,1.8,1.9-.8,1.7-2,2.5.4,2.1,4.8,1,1.4,3.7,2,2.2,2.5.6,2.1-2.5,3.3-2.3,5,.1h6.7l3.8-5,3.9-1.3,1.2-4.2,3-2.9-2-3.7,2-5.1,3.1-3.5.5-2.1,6.6-1.3,4.8-4.2-.3-3.5-6,.8-5.7-2.8-1.9,1.3-9.4-2.8-2-2.4Zm26,22.6.1-.3.1-.2.1-.1-.2-.2v-.1l.2-.2-.2-.1-1.3.4-.7.4-2.1,1.5v.3l.1.2h.4l.2.4.4-.4.3-.1.3.1.3.2.1.6.1.2.6.1.9.4.4-.2.5-.3.2-.6.3-.5.3-.5.3-.4-.1-.4-.3-.1-.3-.1-.5.2-.5-.2Zm6-.3.1-.4v-.1l-.5-.7-.9-.3-1,.1-.1.1v.4l.1.1.6.1,1.6.7Z"
          transform="translate(-17.07 -20.95)"/>
    <path id="AD" class="cls-1"
          d="M124.82,184.6l.1-.2.1-.2v-.1l-.2-.1-.7-.2-.3-.1-.2.1-.2.2-.1.3.1.1v.4l.1.2h.4l.3-.1.5-.3Z"
          transform="translate(-17.07 -20.95)"/>
    <path id="KM" class="cls-1"
          d="M360.52,533.4l-.4-.4h-.4v.2l.1.4,1.1.2-.4-.4Zm3.9-1.5h-.1l-.2.1-.1.2-.1.3H363l.8.5.5.5.2.2.1-.2.1-.7-.3-.9Zm-5.6-1.1.2-.3-.2-.7-.4-.8.1-1.4-.2-.2H358l-.1.1-.1.3-.3,2,.4.6.3.1.5.4.1-.1Z"
          transform="translate(-17.07 -20.95)"/>
    <path id="FO" class="cls-1"
          d="M86.42,69.8v-.3l-.1-.3V69h-.1l-.5-.1-.1-.2h-.1v.2l.1.4.5.4.3.2h.1l-.1-.1Zm.5-2.1v-.1l-.2-.2-.5-.2-.2-.1-.2.1v.2l.1.1.4.1.4.3h.1l.1-.2Zm-2.4-1.9-.2-.1-.5.1h-.3l.1.3.6.2h.6l.2-.1-.1-.2-.4-.2Zm2.5-.5-.8-.2-.6-.3-1,.1.7,1.1.8.7.4.2v-.3l-.4-.5L86,66v-.1l.1-.1h.2l.3.2h.2l.2-.7Zm1-.2-.3-.2-.4-.4v.9h.1l.3.1.3-.4Z"
          transform="translate(-17.07 -20.95)"/>
    <path id="LI" class="cls-1"
          d="M163.82,156.5v-.2l.1-.2-.1-.1-.1-.2-.1-.1v-.2l-.1-.1v-.2l-.1-.1-.2.6v.5l.1.2h.1l.4.1Z"
          transform="translate(-17.07 -20.95)"/>
    <path id="MT" class="cls-1" d="M193,226.9l-.2-.2-.5-.5-.5-.1.1.6.4.4h.5l.2-.2Zm-1.4-1.2h0v-.2l-.3-.1-.4.1.1.1.3.2Z"
          transform="translate(-17.07 -20.95)"/>
    <path id="ST" class="cls-1"
          d="M153.52,454.3l.5-.8V453l-.3-.5h-.4l-.5.4-.3.4v.3l.1.7.1.3.3.2.5-.5Zm4.3-9.2.2-.4v-.2l-.1-.1-.1-.1-.2.1-.3.5.1.2.2.2.2-.2Z"
          transform="translate(-17.07 -20.95)"/>
    <path id="CY" class="cls-1"
          d="M289.32,231.3l-.3-.1-.5.2-.4.4-.4.3-.5-.3.2.9.6,1.1.2.3.3.2,1.1.3h.9l.2.1.2.4h.4v-.4l.2-.2.3-.2h.3l.6-.1.6-.2.5-.4.9-1h1.2l.6-.1-.2-.4-.1-.1-.4-.5-.2-.4.1-.6,2.5-1.9.5-.5-.8.2-.6.4-.4.2-.7.4-2.3.8-.8.1h-.8l-1-.1-.9-.2v.7l-.2.6-.6.2-.3-.1Z"
          transform="translate(-17.07 -20.95)"/>
    <path id="YT" class="cls-1" d="M368.12,537.6v-.3l.2-.5v-.1l.1-.5-.3-.3h-.2l-.2-.3-.3.3.3.5-.1.3-.1.4.1.4.2.2.3-.1Z"
          transform="translate(-17.07 -20.95)"/>
    <path id="IC" class="cls-1"
          d="M19,278.1l-.2-.2-.7.5h-.6l.1.2.1.2.7.4.6-1.1Zm13.5-2.1v-.1h-.1l-.1.1-1.3-.1-.2.6-.5.4v.7l.5.7.3.1.5.1.7-.4.2-.4.1-.8-.1-.4V276Zm-9.7.8.5-.4v-.2l-.1-.3-.5-.3h-.2l-.2.2-.2.4.3.5.2.1Zm4.7-2.3,1.2-1v-.3l-1,.1-1.1,1-.3.1-1,.1h-.5l-.4.2.2.3.4,1,.7.9.6-.2.3-.2.4-.6.5-1.4Zm11.6,1.3,1.5-.5.3-1,.3-1.1v-.7l-.2-.3h-.5l-.3.2-.1.6-.7,1.3-.5,1.2-.7.6-.7.2.1.1.7.1.8-.7Zm-19.7-2,.5-.5.1-.3-.1-.5.2-.2-.1-.4-.3-.4H19l-.4.6.6,1.2.1.5Zm22.4-2.7.9-.3.5-.3.1-.9.2-.3-.2-.3-.2.2-.2.4-.6.2-.8.4-.2.3-.2.9.4.1.3-.4Z"
          transform="translate(-17.07 -20.95)"/>
</svg>