<?xml version="1.0" encoding="UTF-8" standalone="no"?><!DOCTYPE svg PUBLIC "-//W3C//DTD SVG 1.1//EN" "http://www.w3.org/Graphics/SVG/1.1/DTD/svg11.dtd"><svg width="100%" height="100%" viewBox="0 0 528 657" version="1.1" xmlns="http://www.w3.org/2000/svg" xmlns:xlink="http://www.w3.org/1999/xlink" xml:space="preserve" xmlns:serif="http://www.serif.com/" style="fill-rule:evenodd;clip-rule:evenodd;stroke-linejoin:round;"><path id="AF" d="M245.905,426.106l-2.695,0l-1.896,-0.249l-1.248,1.447l-1.048,0.35l-0.749,0.648l-1.298,-1.048l-0.499,-2.695l-0.798,-0.15l-0,-0.998l-1.598,-0.749l-0.848,1.148l0.1,1.298l-0.3,0.449l-1.597,-0.05l-0.449,1.498l-1.048,-0.649l-1.647,1.048l-0.899,-0.399l-2.146,-0.699l-1.457,-0l-0.799,-0.1l-1.447,-0.848l-0.15,1.148l-2.046,0.599l0.049,2.595l-1.247,0.998l-1.997,0.449l-0.199,1.498l-1.947,0.399l-2.945,-1.198l-0.249,3.993l-0.25,2.346l1.248,0.449l-0.799,1.747l1.348,2.546l0.549,1.996l2.146,0.549l0.549,1.996l-1.946,2.895l4.791,1.598l2.645,-0.45l1.648,0.4l0.449,-0.699l1.896,0.249l3.295,-1.297l-0.4,-2.696l1.148,-1.796l1.997,-0l0.099,-0.849l1.997,-0.449l1.048,0.299l0.849,-0.898l-0.549,-1.897l0.748,-1.896l1.498,-0.799l-1.498,-2.096l2.546,0.1l0.449,-1.148l-0.399,-1.248l0.998,-1.348l-0.699,-1.597l-0.948,-1.397l1.198,-1.398l2.645,-0.649l2.895,-0.399l1.198,-0.599l1.397,-0.349l-0.698,-0.949l0.009,0Z" style="fill:#f9fafe;fill-rule:nonzero;stroke:#1d1d1d;stroke-width:0.45px;"/><path id="AO" d="M95.372,563.763l-8.285,-0.05l-0.949,0.349l-0.848,-0.05l-1.148,0.449l-0.25,0.599l1.398,1.997l0.549,2.146l0.798,3.045l-0.848,1.297l-0.15,0.649l0.649,1.897l0.749,1.946l0.798,1.098l0.15,1.797l-0.349,2.396l-0.899,1.398l-1.647,2.096l-0.649,1.298l-0.948,2.844l-0.15,1.348l-0.998,2.945l-0.449,2.745l0.249,1.997l1.348,-0.599l1.647,-0.5l1.797,0.05l1.597,1.448l0.449,-0.2l11.23,-0.15l1.847,1.498l6.688,0.449l5.141,-1.248l-1.747,-1.996l-1.797,-2.596l0.4,-10.132l5.789,0.05l-0.249,-1.098l0.449,-1.198l-0.449,-1.497l0.349,-1.497l-0.249,-0.999l-1.298,-0.199l-1.747,0.499l-1.198,-0.1l-0.699,0.299l0.25,-3.793l-0.948,-1.148l-0.15,-1.996l0.449,-1.897l-0.599,-1.198l0,-1.996l-3.394,-0l0.25,-1.148l-1.448,-0l-0.149,0.549l-1.697,0.149l-0.749,1.847l-0.449,0.799l-1.498,-0.449l-0.948,0.449l-1.847,0.249l-1.048,-1.647l-0.649,-1.048l-0.798,-1.897l-0.649,-2.345Zm-10.881,-0.649l0.1,-1.348l0.449,-0.848l0.998,-0.649l-0.998,-1.098l-0.898,0.549l-1.098,1.347l0.699,2.396l0.748,-0.349Z" style="fill:#f9fafe;fill-rule:nonzero;stroke:#1d1d1d;stroke-width:0.45px;"/><path id="AL" d="M99.964,409.486l-0.998,1.547l0.249,0.948l0.499,0.499l-0.249,0.949l-0.05,2.146l0.349,1.497l1.498,1.048l0.099,0.699l0.499,0.2l1.049,-1.497l0.05,-1.049l0.798,-0.449l0,-0.798l-1.148,-0.799l-0.449,-1.298l0.2,-1.048l-0.25,-1.148l-0.649,-0.299l-0.649,-0.799l-0.649,0.25l-0.199,-0.599Z" style="fill:#f9fafe;fill-rule:nonzero;stroke:#1d1d1d;stroke-width:0.45px;"/><path id="AE" d="M202.981,463.44l-0.648,-1.098l-1.498,1.947l-1.846,2.046l-1.648,2.146l-1.647,-0.1l-2.296,-0.099l-2.096,0.499l-0.15,-0.849l-0.499,0.15l0.2,0.749l1.298,3.194l8.385,1.597l0.499,-0.649l-0.05,-1.297l0.699,-1.298l-0.15,-1.298l1.198,-0.649l-0.549,-0.399l0.05,-2.096l1.397,-0l-0.649,-2.496Z" style="fill:#f9fafe;fill-rule:nonzero;stroke:#1d1d1d;stroke-width:0.45px;"/><path id="AM" d="M170.589,421.764l-0.449,-2.196l-1.248,-0.549l-1.248,-0.849l0.499,-0.998l-1.547,-1.098l0.349,-0.749l-1.098,-0.549l-0.699,-0.848l-3.443,0.499l0.648,1.098l0,1.547l2.097,0.749l1.198,0.948l0.499,-0.1l0.898,0.849l1.148,-0l0.1,0.499l1.397,1.847l0.899,-0.1Z" style="fill:#f9fafe;fill-rule:nonzero;stroke:#1d1d1d;stroke-width:0.45px;"/><path id="AT" d="M91.329,391.268l-1.148,-0.599l-1.148,0.15l-1.996,-0.949l-0.849,0.25l-1.298,1.248l-1.896,-0.998l-0.749,1.447l-0.848,0.399l0.499,1.997l-0.2,0.549l-0.848,-0.649l-1.198,-0.1l-1.697,0.599l-2.196,-0.15l-0.3,0.799l-1.298,-0.849l-0.748,0.15l0.1,0.549l-0.35,0.799l1.148,0.549l1.298,0.1l1.547,0.449l0.25,-0.599l2.396,-0.549l0.648,1.098l3.594,0.798l2.096,0.2l1.198,-0.699l2.146,-0.05l0.45,-0.549l0.648,-1.996l-0.549,-0.649l1.398,0l0.1,-1.298l-0.35,-1.048l0.15,-0.399Z" style="fill:#f9fafe;fill-rule:nonzero;stroke:#1d1d1d;stroke-width:0.45px;"/><path id="AZ" d="M166.147,418.669l-0.499,0.1l0.598,1.198l1.598,1.448l1.846,0.449l-1.397,-1.847l-0.1,-0.499l-1.148,-0l-0.898,-0.849Zm5.19,-4.641l-2.146,-1.897l-0.748,-0.1l-0.549,0.449l1.597,1.697l-0.3,0.35l-1.397,-0.2l-2.097,-0.898l-0.549,0.499l0.699,0.848l1.098,0.549l-0.349,0.749l1.547,1.098l-0.499,0.998l1.248,0.849l1.248,0.549l0.449,2.196l2.645,-2.346l0.948,-0.249l0.949,0.948l-0.599,1.547l1.896,1.697l0.649,-0.15l-0.399,-1.597l0.849,-0.748l0.199,-1.098l-0.05,-2.496l2.097,-0.25l-0.999,-0.848l-1.247,-0.1l-1.747,-2.246l-1.697,-1.597l-1.298,1.248l-0.25,0.748l-1.198,-0.199Z" style="fill:#f9fafe;fill-rule:nonzero;stroke:#1d1d1d;stroke-width:0.45px;"/><path id="BI" d="M135.251,553.98l-0.149,-1.248l-1.498,-0.199l-0.848,1.796l-1.747,-0.249l0.699,1.447l0.05,0.549l0.998,3.045l-0.05,0.15l0.299,-0.05l1.048,-1.148l1.099,-1.647l0.698,-0.699l0,-0.998l-0.599,-0.749Z" style="fill:#f9fafe;fill-rule:nonzero;stroke:#1d1d1d;stroke-width:0.45px;"/><path id="BE" d="M61.632,382.384l-2.196,0.649l-1.797,-0.25l-1.897,0.599l0.349,1.098l1.099,0.05l1.197,1.198l1.697,1.447l1.248,-0.199l2.196,1.397l0.2,-1.747l0.649,-0.1l0.199,-2.096l-1.397,-0.699l-1.547,-1.347Z" style="fill:#f9fafe;fill-rule:nonzero;stroke:#1d1d1d;stroke-width:0.45px;"/><path id="BJ" d="M59.735,508.061l-2.146,-1.846l-0.998,-0l-0.949,0.948l-0.599,0.948l-1.347,0.3l-0.599,1.397l-0.949,0.35l-0.349,1.647l0.849,0.948l0.998,1.148l0.1,1.547l0.549,0.649l-0.1,7.287l0.699,2.196l2.296,-0.399l0.149,-5.091l-0.05,-2.046l0.499,-1.997l0.849,-0.948l1.348,-1.997l-0.3,-0.848l0.549,-1.248l-0.599,-1.897l0.1,-1.048Z" style="fill:#f9fafe;fill-rule:nonzero;stroke:#1d1d1d;stroke-width:0.45px;"/><path id="BF" d="M50.701,497.68l-1.797,-0l-0.699,-0.599l-1.497,0.449l-2.595,1.298l-0.549,0.998l-2.147,1.447l-0.399,0.799l-1.148,0.649l-1.347,-0.45l-0.799,0.799l-0.399,2.196l-2.246,2.596l0.099,1.098l-0.798,1.347l0.2,1.847l1.247,0.699l0.499,1.048l1.248,0.649l0.949,-0.799l1.347,-0.1l1.897,0.799l-0.399,-2.396l0.099,-1.797l4.842,-0.149l1.198,0.249l0.898,-0.499l1.298,0.25l2.445,0.05l0.949,-0.35l0.599,-1.397l1.347,-0.3l0.599,-0.948l0.05,-2.196l-3.194,-0.699l-0.1,-1.547l-1.547,-2.047l-0.4,-1.447l0.25,-1.547Z" style="fill:#f9fafe;fill-rule:nonzero;stroke:#1d1d1d;stroke-width:0.45px;"/><path id="BG" d="M121.965,406.391l-1.497,-0.349l-1.997,-1.098l-2.895,0.699l-1.148,0.798l-3.743,-0.15l-1.997,-0.499l-0.948,0.25l-0.898,-1.298l-0.549,0.699l0.349,1.148l1.398,1.298l-0.849,0.948l-0.349,0.998l0.299,0.349l-0.349,0.45l1.397,0.998l0.4,2.046l1.896,0.1l1.947,-0.848l1.946,1.048l2.296,-0.3l-0.149,-1.497l2.495,-0.998l2.246,0.399l-1.048,-1.747l0.649,-2.196l1.098,-1.248Z" style="fill:#f9fafe;fill-rule:nonzero;stroke:#1d1d1d;stroke-width:0.45px;"/><path id="BA" d="M92.327,401.7l-1.148,0.049l-0.499,0.649l-0.948,-0.698l-0.449,1.247l1.347,1.448l0.649,0.948l1.248,1.148l0.998,0.699l1.098,1.248l2.346,1.197l0.2,-1.697l0.748,-0.698l0.45,-0.3l0.599,-0.15l0.249,-1.447l-1.347,-1.148l0.499,-1.348l-0.899,0l-1.198,-0.698l-1.747,0.05l-2.196,-0.499Z" style="fill:#f9fafe;fill-rule:nonzero;stroke:#1d1d1d;stroke-width:0.45px;"/><path id="BY" d="M117.583,369.007l-2.596,-0.748l-2.296,1.148l-1.297,0.499l0.449,1.297l-1.747,0.999l-0.25,1.697l-2.395,1.098l-2.296,-0l0.299,1.347l0.849,1.148l0.149,1.198l-1.347,0.599l0.948,1.448l0.25,1.347l1.098,-0.15l1.198,-0.798l1.846,-0.1l2.496,0.25l2.795,0.748l1.897,0.05l0.998,0.449l0.798,-0.549l0.749,0.749l2.146,-0.15l0.998,0.3l-0.099,-1.547l0.599,-0.699l2.046,-0.15l-0.998,-1.946l-0.749,-0.999l0.399,-0.299l1.947,0.1l0.798,-0.649l-0.848,-0.799l-1.697,-0.549l0.05,-0.549l-1.098,-0.549l-1.847,-1.946l0.3,-0.799l-0.5,-1.447l-2.395,-0.699l-1.148,0.349l-0.499,-0.699Z" style="fill:#f9fafe;fill-rule:nonzero;stroke:#1d1d1d;stroke-width:0.45px;"/><path id="BW" d="M119.529,601.396l-0.499,-0.25l-1.597,0.749l-0.799,0l-1.846,1.248l-0.999,-1.298l-4.302,1.098l-2.046,0.1l-0.45,11.33l-2.695,0.1l-0.299,9.234l0.698,0.499l1.498,3.044l-0.35,1.897l0.549,1.148l1.997,-0.35l1.397,-1.397l1.348,-0.948l0.749,-1.548l1.347,-0.748l1.148,0.399l1.248,0.898l2.196,0.15l1.797,-0.749l0.299,-0.998l0.599,-1.497l1.498,-0.25l0.848,-1.198l0.999,-2.146l2.595,-2.346l3.993,-2.345l-1.697,-1.448l-2.096,-0.449l-0.749,-2.046l0.05,-1.099l-1.148,-0.349l-2.995,-3.494l-0.798,-1.846l-0.549,-0.549l-0.949,-2.546l0.01,0Z" style="fill:#f9fafe;fill-rule:nonzero;stroke:#1d1d1d;stroke-width:0.45px;"/><path id="CF" d="M116.435,517.694l-0.25,-0.15l-0.998,-0.898l-0.15,-0.998l0.399,-1.298l0,-1.298l-1.647,-1.996l-0.349,-1.348l-1.747,0.549l-1.397,1.248l-1.997,3.494l-2.595,1.447l-2.696,-0.199l-0.798,0.299l0.299,1.148l-1.447,1.098l-1.148,1.248l-3.544,1.198l-0.699,-0.699l-0.449,-0.1l-0.499,0.849l-2.346,0.199l-1.347,3.245l-0.699,0.549l-0.2,2.495l0.3,1.348l-0.2,0.948l1.298,1.647l0.249,1.148l1.048,1.598l1.298,1.048l0.15,1.447l0.299,0.898l1.448,-2.944l1.647,-1.697l1.897,0.549l1.796,0.199l0.25,-2.246l1.098,-1.597l1.497,-0.998l2.296,1.048l1.797,1.198l2.046,0.299l2.097,0.599l0.798,-1.896l0.4,-0.25l1.297,0.3l3.095,-1.548l1.098,0.649l0.898,-0.1l0.45,-0.748l0.998,-0.3l2.146,0.35l1.797,0.05l0.898,-0.3l-0.449,-1.048l-2.096,-1.248l-0.749,-1.896l-1.198,-1.348l-1.897,-1.697l-0.049,-0.998l-1.548,-1.298l-1.896,-1.248Z" style="fill:#f9fafe;fill-rule:nonzero;stroke:#1d1d1d;stroke-width:0.45px;"/><path id="CH" d="M73.411,394.562l-2.695,-0.948l-0.5,0.699l-2.096,-0l-0.649,0.499l-1.148,-0.3l0.1,0.799l-1.747,1.747l0,1.397l1.198,-0.449l0.899,1.348l1.098,0.649l1.198,-0.15l1.347,-1.048l0.449,0.499l1.198,-0.1l0.449,-1.248l1.897,0.399l1.048,-0.549l0.15,-1.247l-1.298,-0.1l-1.148,-0.549l0.35,-0.799l-0.1,-0.549Z" style="fill:#f9fafe;fill-rule:nonzero;stroke:#1d1d1d;stroke-width:0.45px;"/><path id="CI" d="M34.58,512.154l-1.148,0.449l-0.649,0.399l-0.449,-1.347l-0.799,0.349l-0.499,-0.05l-0.499,0.949l-2.146,-0.05l-0.799,-0.499l-0.349,0.299l-0.549,0.25l-0.25,1.098l0.649,1.297l0.649,2.546l-0.999,0.399l-0.299,0.449l0.2,0.599l-0.15,1.398l-0.449,-0l-0.15,0.898l0.299,1.548l-0.599,1.397l0.799,0.898l0.898,0.2l1.148,1.348l0.1,1.248l-0.249,0.399l-0.25,2.595l0.549,0.1l2.795,-1.198l1.947,-0.898l3.294,-0.549l1.797,-0.05l1.946,0.649l1.298,-0.05l0.1,-1.248l-1.198,-2.745l0.749,-3.594l1.148,-2.645l-0.699,-4.542l-1.897,-0.799l-1.347,0.1l-0.949,0.799l-1.248,-0.649l-0.499,-1.048l-1.247,-0.699Z" style="fill:#f9fafe;fill-rule:nonzero;stroke:#1d1d1d;stroke-width:0.45px;"/><path id="CM" d="M91.279,510.507l0.1,-2.146l-0.25,-2.097l-1.098,-2.046l-0.798,0.2l-0.1,0.998l1.148,1.298l-0.3,0.549l-0.149,1.048l-2.296,2.495l-0.749,1.997l-0.349,1.647l-0.599,0.699l-0.549,2.246l-1.498,1.297l-0.399,1.598l-0.599,1.297l-0.249,1.298l-1.947,1.098l-1.597,-1.298l-1.048,0.05l-1.647,1.847l-0.799,0.05l-1.348,3.045l-0.698,2.246l-0,0.898l0.698,0.449l0.55,1.398l1.297,0.549l1.098,2.096l-0.399,2.496l4.592,0.099l1.298,-0.199l1.697,0.399l1.697,-0.399l0.349,0.149l3.544,0.15l2.246,0.849l2.246,0.748l0.199,-1.747l-0.299,-0.898l-0.15,-1.447l-1.298,-1.048l-1.048,-1.598l-0.249,-1.148l-1.298,-1.647l0.2,-0.948l-0.3,-1.348l0.2,-2.495l0.699,-0.549l1.347,-3.245l0.449,-0.848l-0.898,-2.196l-0.399,-1.298l-1.248,-0.549l-1.647,-1.847l0.599,-1.497l1.248,0.3l0.798,-0.2l1.547,0.05l-1.547,-2.895Z" style="fill:#f9fafe;fill-rule:nonzero;stroke:#1d1d1d;stroke-width:0.45px;"/><path id="CD" d="M123.622,528.725l-2.146,-0.35l-0.998,0.3l-0.45,0.748l-0.898,0.1l-1.098,-0.649l-3.095,1.548l-1.297,-0.3l-0.4,0.25l-0.798,1.896l-2.097,-0.599l-2.046,-0.299l-1.797,-1.198l-2.296,-1.048l-1.497,0.998l-1.098,1.597l-0.25,2.246l-0.149,1.897l-0.799,1.697l-0.549,1.996l-0.349,2.796l0.149,1.796l-0.449,1.098l-0.1,1.198l-0.299,0.999l-1.847,1.547l-1.298,1.597l-1.247,3.094l0.099,2.646l-0.698,0.998l-1.647,1.547l-1.697,1.997l-0.999,-0.549l-0.199,-0.899l-1.548,-0.05l-0.948,1.198l-0.749,-0.299l-0.998,0.649l-0.449,0.848l-0.1,1.348l-0.748,0.349l0.399,0.998l1.148,-0.449l0.848,0.05l0.949,-0.349l8.285,0.05l0.649,2.345l0.798,1.897l0.649,1.048l1.048,1.647l1.847,-0.249l0.948,-0.449l1.498,0.449l0.449,-0.799l0.749,-1.847l1.697,-0.149l0.149,-0.549l1.448,-0l-0.25,1.148l3.394,-0l0,1.996l0.599,1.198l-0.449,1.897l0.15,1.996l0.948,1.148l-0.25,3.793l0.699,-0.299l1.198,0.1l1.747,-0.499l1.298,0.199l0.948,0.05l0.15,0.998l1.298,-0.049l1.746,0.299l0.899,1.398l2.246,0.449l1.697,-0.999l0.599,1.697l2.146,0.4l0.998,1.397l1.048,1.747l2.147,0l-0.15,-3.444l-0.749,0.599l-1.946,-1.248l-0.699,-0.549l0.399,-3.194l0.599,-3.743l-0.599,-1.398l0.799,-2.046l0.798,-0.35l3.744,-0.549l0.499,0.15l0.1,-0.549l-0.749,-0.848l-0.349,-1.747l-1.697,-1.747l-0.899,-2.246l0.499,-1.348l-0.748,-1.797l0.549,-5.091l0.05,0.05l-0.05,-0.549l-0.699,-1.447l0.299,-1.747l0.4,-0.2l0.099,-1.896l0.799,-0.899l0.05,-2.396l0.649,-1.197l0.15,-2.546l0.598,-1.497l1.049,-1.647l1.098,-0.849l0.898,-1.148l-1.148,-0.399l0.15,-3.744l-2.496,-2.096l-0.698,-1.347l-1.548,0.648l-1.297,-0.199l-0.749,0.549l-1.248,-0.399l-1.747,-2.596l-0.898,0.3l-1.797,-0.05Z" style="fill:#f9fafe;fill-rule:nonzero;stroke:#1d1d1d;stroke-width:0.45px;"/><path id="CG" d="M101.361,533.965l-1.796,-0.199l-1.897,-0.549l-1.647,1.697l-1.448,2.944l-0.199,1.747l-2.246,-0.748l-2.246,-0.849l-3.544,-0.15l-0.2,1.398l0.749,1.647l2.096,-0.249l0.699,0.598l-1.198,3.694l1.348,1.897l0.299,2.445l-0.399,2.146l-0.849,1.498l-2.445,-0.15l-1.498,-1.497l-0.249,1.397l-1.897,0.4l-0.948,0.798l1.048,2.096l-2.146,1.747l2.296,3.344l1.098,-1.347l0.898,-0.549l0.998,1.098l0.749,0.299l0.948,-1.198l1.548,0.05l0.199,0.899l0.999,0.549l1.697,-1.997l1.647,-1.547l0.698,-0.998l-0.099,-2.646l1.247,-3.094l1.298,-1.597l1.847,-1.547l0.299,-0.999l0.1,-1.198l0.449,-1.098l-0.149,-1.796l0.349,-2.796l0.549,-1.996l0.799,-1.697l0.149,-1.897Z" style="fill:#f9fafe;fill-rule:nonzero;stroke:#1d1d1d;stroke-width:0.45px;"/><path id="CZ" d="M85.939,383.532l-1.049,0.299l-0.698,-0.349l-0.549,0.599l-1.697,0.599l-0.849,0.748l-1.697,0.649l0.499,0.948l0.35,1.298l1.297,0.749l1.448,1.298l1.896,0.998l1.298,-1.248l0.849,-0.25l1.996,0.949l1.148,-0.15l1.148,0.599l0.3,-0.699l1.098,0.05l0.798,-0.299l0.05,-0.3l0.449,-0.15l0.1,-0.698l0.549,-0.15l0.3,-0.549l0.748,-0l-1.297,-1.547l-1.797,-0.15l-0.35,-0.998l-1.697,-0.3l-0.299,0.749l-1.348,-0.599l0.05,-0.849l-1.846,-0.299l-1.198,-0.948Z" style="fill:#f9fafe;fill-rule:nonzero;stroke:#1d1d1d;stroke-width:0.45px;"/><path id="DE" d="M83.034,375.446l-1.198,-0.948l-2.745,-1.198l-1.248,0.848l-2.346,0.549l-0.05,-1.048l-2.445,-0.699l-0.1,-1.148l-1.498,0.45l-1.796,-0.4l0.199,1.697l0.599,1.098l-1.497,1.498l-0.499,-0.649l-1.947,0.15l-0.449,0.648l0.499,0.999l-0.499,2.795l-0.549,1.148l-1.448,-0l0.549,3.194l-0.199,2.096l0.499,0.699l-0.1,1.348l1.198,0.798l3.544,0.599l-1.148,2.097l-0.25,2.246l2.096,-0l0.5,-0.699l2.695,0.948l0.749,-0.15l1.297,0.849l0.3,-0.799l2.196,0.15l1.697,-0.599l1.198,0.1l0.848,0.649l0.2,-0.549l-0.499,-1.997l0.848,-0.399l0.749,-1.447l-1.448,-1.298l-1.297,-0.749l-0.35,-1.298l-0.499,-0.948l1.697,-0.649l0.849,-0.748l1.697,-0.599l0.549,-0.599l0.699,0.349l1.048,-0.299l-1.148,-1.947l0.05,-1.048l-0.699,-1.647l-0.998,-1.098l0.599,-0.799l-0.699,-1.547Z" style="fill:#f9fafe;fill-rule:nonzero;stroke:#1d1d1d;stroke-width:0.45px;"/><path id="DJ" d="M169.99,508.66l-1.248,-0.848l1.547,-0.749l0.05,-1.348l-0.699,-0.948l-0.798,0.749l-1.198,-0.25l-0.948,1.398l-0.899,1.497l0.25,0.849l0.1,0.998l1.547,0.05l0.649,-0.25l0.649,0.549l0.998,-1.697Z" style="fill:#f9fafe;fill-rule:nonzero;stroke:#1d1d1d;stroke-width:0.45px;"/><path id="DK" d="M79.201,369.906l-0.849,-1.498l-3.344,0.999l0.449,1.247l2.546,1.697l1.198,-2.445Zm-4.293,-2.546l-1.298,-0.449l-0.349,-0.798l0.649,-0.999l-0.05,-1.497l-1.807,0.799l-0.748,0.848l-1.997,0.2l-0.599,0.848l-0.349,0.799l0.199,3.044l1.049,1.697l1.796,0.4l1.498,-0.45l-0.749,-1.497l1.547,-2.146l0.699,0.349l0.499,-1.148l0.01,0Z" style="fill:#f9fafe;fill-rule:nonzero;stroke:#1d1d1d;stroke-width:0.45px;"/><path id="DZ" d="M71.764,427.654l-1.797,0.199l-1.098,-0.748l-2.805,-0l-2.446,1.297l-1.347,-0.499l-4.343,0.25l-4.442,0.599l-2.495,0.998l-1.697,1.298l-2.845,0.599l-2.546,1.746l0.998,2.047l0.15,1.946l0.898,3.344l0.699,0.699l-0.499,1.248l-3.494,0.499l-1.248,1.198l-1.547,0.25l-0.15,2.345l-3.144,1.248l-1.048,1.597l-2.196,0.849l-2.695,0.499l-4.443,2.346l-0.049,3.743l-0,0.2l-0.05,0.599l10.132,7.736l9.183,6.938l9.284,6.888l0.649,1.497l1.697,0.898l1.298,0.549l0.049,1.997l3.045,-0.3l3.893,-1.397l7.886,-6.239l9.284,-6.089l-1.248,-1.997l-2.146,-1.447l-1.298,0.599l-0.998,-1.797l-0.1,-1.348l-1.697,-2.346l1.048,-1.297l-0.249,-1.997l0.299,-1.747l-0.249,-1.447l0.449,-2.595l-0.2,-1.498l-0.948,-2.795l-1.298,-5.64l-1.697,-1.298l0,-0.748l-2.246,-1.897l-0.299,-2.396l1.597,-1.797l0.549,-2.645l-0.499,-3.094l0.499,-1.647l0.01,-0Z" style="fill:#f9fafe;fill-rule:nonzero;stroke:#1d1d1d;stroke-width:0.45px;"/><path id="EG" d="M126.018,446.57l-2.745,-0.948l-2.646,-0.849l-3.543,0.1l-0.899,1.497l0.549,1.348l-0.599,1.947l0.998,2.545l0.649,11.33l0.499,11.679l32.593,0l-0.499,-0.648l-3.394,-2.845l-0.2,-2.097l0.499,-0.549l-2.645,-3.494l-0.998,-1.796l-1.148,-1.747l-2.396,-4.942l-1.947,-3.194l-1.397,-3.344l0.249,-0.299l2.296,4.542l1.348,1.447l0.998,0.998l0.599,-0.549l0.599,-1.647l0.349,-2.396l0.649,-1.247l-0.349,-0.849l-1.947,-4.592l-1.248,0.799l-2.096,-0.2l-2.196,-0.749l-0.549,1.049l-0.848,-1.598l-1.947,-0.399l-2.346,0.3l-1.048,0.898l-1.947,0.998l-1.297,-0.499Z" style="fill:#f9fafe;fill-rule:nonzero;stroke:#1d1d1d;stroke-width:0.45px;"/><path id="ER" d="M160.157,496.082l-1.597,-1.547l-0.898,-2.945l-1.847,-3.643l-1.298,1.797l-1.996,0.499l-0.799,0.998l-0.199,2.096l-0.949,4.692l0.35,1.248l3.244,0.649l0.749,-2.346l1.746,1.447l1.598,-0.748l0.698,0.648l1.947,0.05l2.446,1.248l0.798,1.098l1.248,1.048l1.248,1.847l0.998,1.048l1.198,0.25l0.798,-0.749l-1.397,-0.948l-0.948,-1.098l-1.598,-1.847l-1.597,-1.797l-3.943,-2.995Z" style="fill:#f9fafe;fill-rule:nonzero;stroke:#1d1d1d;stroke-width:0.45px;"/><path id="EE" d="M107.8,358.077l-2.745,0.449l-2.695,0.799l0.449,1.697l1.647,1.048l0.749,-0.4l0.049,1.747l1.847,-0.499l1.048,0.35l2.196,1.098l1.897,-0l0.799,-0.949l-1.248,-2.745l1.298,-1.697l-0.45,-0.499l-2.296,0.1l-2.545,-0.499Z" style="fill:#f9fafe;fill-rule:nonzero;stroke:#1d1d1d;stroke-width:0.45px;"/><path id="ET" d="M154.907,497.58l-0.749,2.346l-3.244,-0.649l-0.35,2.745l-1.048,3.094l-1.597,1.598l-1.148,2.395l-0.25,1.298l-1.297,0.899l-0.699,3.344l-0,0.349l0.1,2.496l-0.4,0.998l-1.497,0.05l-0.898,1.797l1.697,0.249l1.447,1.547l0.499,1.248l1.298,0.749l1.747,3.444l1.447,0.549l0,1.797l0.999,1.048l1.946,-0l3.594,2.695l0.898,-0l0.649,-0.05l0.599,0.349l1.897,0.25l0.798,-1.348l2.546,-1.297l1.148,1.048l1.896,-0l0.749,-0.998l1.797,-0.05l2.445,-2.246l3.694,-0.15l7.686,-9.533l-2.395,0.05l-9.234,-3.794l-1.098,-1.098l-1.048,-1.547l-1.098,-1.747l0.549,-1.148l-0.649,-0.549l-0.649,0.25l-1.547,-0.05l-0.1,-0.998l-0.25,-0.849l0.899,-1.497l0.948,-1.398l-0.998,-1.048l-1.248,-1.847l-1.248,-1.048l-0.798,-1.098l-2.446,-1.248l-1.947,-0.05l-0.698,-0.648l-1.598,0.748l-1.746,-1.447Z" style="fill:#f9fafe;fill-rule:nonzero;stroke:#1d1d1d;stroke-width:0.45px;"/><path id="FI" d="M107.9,331.574l0.399,-1.897l-2.845,-1.048l-2.895,0.898l-0.559,1.947l-1.697,1.198l-2.346,-0.649l-2.645,0.15l-2.545,-1.448l-1.049,0.699l2.945,1.348l3.594,1.846l0.848,4.193l0.949,1.098l3.194,1.298l0.449,1.148l-1.297,0.598l-4.343,3.045l-1.647,1.797l-0.749,1.647l1.448,2.595l-0.05,2.845l2.346,0.949l1.547,1.547l3.544,-0.599l3.743,-1.048l3.993,-0.25l3.943,-3.693l1.647,-1.647l0.449,-1.448l-3.643,-1.946l0.449,-1.847l-2.446,-2.046l0.849,-2.396l-3.194,-3.145l1.397,-2.046l-3.594,-1.847l-0.199,-1.846l0.01,-0Z" style="fill:#f9fafe;fill-rule:nonzero;stroke:#1d1d1d;stroke-width:0.45px;"/><path id="GA" d="M86.338,537.858l-0.349,-0.149l-1.697,0.399l-1.697,-0.399l-1.298,0.199l-0,3.794l-4.093,-0l-0.948,0.149l-0.549,2.396l-0.659,2.296l-0.649,0.998l-0.1,1.049l1.697,3.294l1.847,2.645l2.895,3.194l2.146,-1.747l-1.048,-2.096l0.948,-0.798l1.897,-0.4l0.249,-1.397l1.498,1.497l2.445,0.15l0.849,-1.498l0.399,-2.146l-0.299,-2.445l-1.348,-1.897l1.198,-3.694l-0.699,-0.598l-2.096,0.249l-0.749,-1.647l0.2,-1.398l0.01,0Z" style="fill:#f9fafe;fill-rule:nonzero;stroke:#1d1d1d;stroke-width:0.45px;"/><path id="GB" d="M36.326,373.05l-2.445,-1.847l-1.947,0.15l0.4,1.597l-0.549,1.598l1.447,-0.05l1.747,0.649l1.347,-2.097Zm6.489,-12.128l-2.745,0.249l-1.797,-0.199l-1.847,2.395l-0.948,3.045l1.098,1.497l0.05,2.895l1.298,-1.397l0.698,0.798l-0.848,1.348l0.499,0.798l2.845,0.549l0.05,0l1.547,1.897l-0.399,1.747l-3.544,-0.299l-0.499,1.996l1.298,1.647l-2.546,0.948l0.649,1.198l3.743,0.499l-2.146,0.649l-3.653,3.245l1.248,0.598l1.746,-1.147l2.246,0.349l1.648,-1.448l1.098,0.599l4.142,-0.848l3.245,0.05l2.146,-1.647l-0.949,-1.548l1.198,-0.898l0.25,-1.946l-2.895,-0.599l-0.649,-1.148l-1.447,-3.444l-1.598,-0.499l-2.046,-3.544l-0.2,-0.3l-2.395,-0.199l2.096,-2.646l0.649,-2.445l-2.496,-0l-2.346,0.399l2.496,-3.194l0.01,-0Z" style="fill:#f9fafe;fill-rule:nonzero;stroke:#1d1d1d;stroke-width:0.45px;"/><path id="GE" d="M161.106,409.336l-3.744,-1.447l-3.843,-0.5l-2.246,-0.549l-0.25,0.35l1.098,0.948l1.498,0.349l1.697,1.148l1.048,2.097l-0.15,1.347l2.695,-0.149l2.796,1.497l3.443,-0.499l0.549,-0.499l2.097,0.898l1.397,0.2l0.3,-0.35l-1.597,-1.697l0.549,-0.449l-1.747,-0.699l-1.048,-1.247l-2.546,-0.649l-1.447,0.499l-0.549,-0.599Z" style="fill:#f9fafe;fill-rule:nonzero;stroke:#1d1d1d;stroke-width:0.45px;"/><path id="GH" d="M49.703,510.108l-1.298,-0.25l-0.898,0.499l-1.198,-0.249l-4.842,0.149l-0.099,1.797l0.399,2.396l0.699,4.542l-1.148,2.645l-0.749,3.594l1.198,2.745l-0.1,1.248l2.496,0.898l2.495,-0.948l1.597,-1.048l4.343,-1.897l-0.599,-1.098l-0.749,-1.996l-0.2,-1.598l0.599,-2.845l-0.698,-1.148l-0.3,-2.545l0.05,-2.296l-1.198,-1.647l0.2,-0.948Z" style="fill:#f9fafe;fill-rule:nonzero;stroke:#1d1d1d;stroke-width:0.45px;"/><path id="GN" d="M17.56,505.566l-0.4,0.199l-1.497,-0.249l-0.2,0.349l-0.648,0.05l-1.997,-0.749l-1.348,-0.05l-0.049,1.049l-0.3,0.349l0.2,1.048l-0.4,0.449l-0.648,0l-0.699,0.499l-0.849,-0.049l-1.297,1.547l0.798,0.549l0.399,0.699l0.35,1.397l0.649,0.599l0.748,0.449l1.049,1.248l1.197,1.847l1.498,-1.398l0.349,-0.848l0.499,-0.699l0.749,-0.1l0.649,-0.599l2.246,0l0.748,1.148l0.599,1.348l-0.099,0.898l0.449,0.849l-0,1.148l0.748,-0.15l0.599,-0.1l0.749,-0.349l1.148,1.946l-0.2,1.298l0.549,0.649l0.799,0.05l0.549,-1.298l0.799,0.1l0.449,-0l0.15,-1.398l-0.2,-0.599l0.299,-0.449l0.999,-0.399l-0.649,-2.546l-0.649,-1.297l0.25,-1.098l0.549,-0.25l-0.849,-0.898l0.15,-0.949l-0.35,-0.349l-0.599,0.299l0.1,-1.048l0.599,-0.798l-1.158,-1.348l-0.299,-0.848l-0.649,-0.699l-0.549,-0.1l-0.649,0.449l-0.898,0.4l-0.799,0.698l-1.198,-0.249l-0.748,-0.799l-0.45,-0.1l-0.748,0.4l-0.45,-0l-0.149,-1.148l0.01,-0Z" style="fill:#f9fafe;fill-rule:nonzero;stroke:#1d1d1d;stroke-width:0.45px;"/><path id="GM" d="M2.786,503.32l2.495,0.05l0.699,-0.45l0.499,0l1.048,-0.748l1.198,0.698l1.198,0.05l1.198,-0.748l-0.549,-0.899l-0.908,0.549l-0.899,-0.05l-1.048,-0.748l-0.898,0.05l-0.649,0.748l-3.045,0.1l-0.349,1.398l0.01,-0Z" style="fill:#f9fafe;fill-rule:nonzero;stroke:#1d1d1d;stroke-width:0.45px;"/><path id="GW" d="M11.47,505.116l-5.14,-0.149l-0.749,0.349l-0.899,-0.1l-1.497,0.549l0.15,0.649l0.838,0.699l0,0.449l0.599,0.899l1.198,0.249l1.448,1.298l1.297,-1.547l0.849,0.049l0.699,-0.499l0.648,0l0.4,-0.449l-0.2,-1.048l0.3,-0.349l0.049,-1.049l0.01,0Z" style="fill:#f9fafe;fill-rule:nonzero;stroke:#1d1d1d;stroke-width:0.45px;"/><path id="GQ" d="M81.297,537.908l-4.592,-0.099l-0.948,3.593l0.499,0.449l0.948,-0.149l4.093,-0l-0,-3.794Z" style="fill:#f9fafe;fill-rule:nonzero;stroke:#1d1d1d;stroke-width:0.45px;"/><path id="GR" d="M112.142,431.647l-0.399,1.397l3.294,0.599l0,0.549l3.793,-0.299l0.25,-0.949l-1.398,0.399l0,-0.549l-1.946,-0.249l-2.046,0.2l-1.548,-1.098Zm5.74,-18.667l-1.348,-0.799l0.15,1.497l-2.296,0.3l-1.946,-1.048l-1.957,0.848l-1.896,-0.1l-0.5,0.1l-0.349,0.549l-1.397,-0.05l-0.949,0.649l-1.647,0.3l0,0.798l-0.798,0.449l-0.05,1.049l-1.049,1.497l0.25,0.948l1.447,1.797l1.148,1.497l0.649,2.147l1.148,2.545l2.296,1.447l1.697,-0.049l-1.198,-2.845l1.647,-0.35l-0.948,-1.647l2.496,0.849l-0.2,-1.847l-1.348,-0.899l-1.597,-1.497l0.899,-0.699l-1.398,-1.497l-0.798,-1.897l0.449,-0.648l1.497,1.597l1.448,-0l1.247,-0.499l-1.946,-1.797l3.044,-0.799l1.348,0.3l1.597,0.099l0.549,-0.349l0.599,-1.946l0.01,-0Z" style="fill:#f9fafe;fill-rule:nonzero;stroke:#1d1d1d;stroke-width:0.45px;"/><path id="HR" d="M93.725,399.453l-1.997,-1.297l-0.798,-0.4l-1.947,0.849l-0.149,1.248l-0.849,0.299l0.1,0.849l-0.998,-0.05l-0.899,-0.499l-0.399,0.499l-1.747,-0.1l-0.1,0.05l0,1.098l0.849,0.998l0.649,-1.297l1.647,0.499l0.149,0.998l1.248,1.298l-0.499,0.249l2.296,2.246l2.396,0.899l1.547,1.098l2.496,1.148l0.249,-0.5l-2.346,-1.197l-1.098,-1.248l-0.998,-0.699l-1.248,-1.148l-0.649,-0.948l-1.347,-1.448l0.449,-1.247l0.948,0.698l0.499,-0.649l1.148,-0.049l2.196,0.499l1.747,-0.05l1.198,0.698l0.849,-1.147l-0.849,-0.899l-0.748,-1.198l-0.899,0.449l-2.096,-0.599Z" style="fill:#f9fafe;fill-rule:nonzero;stroke:#1d1d1d;stroke-width:0.45px;"/><path id="HU" d="M100.762,391.168l-0.798,0.2l-0.499,0.748l-1.098,0.35l-0.3,-0.2l-1.148,0.499l-0.948,0.1l-0.15,0.599l-2.046,0.399l-0.949,-0.349l-1.297,-0.799l-0.1,1.298l-1.408,0l0.549,0.649l-0.648,1.996l0.399,0.05l0.599,1.048l0.798,0.4l1.997,1.297l2.096,0.599l0.899,-0.449l1.846,-0.798l1.597,0.099l1.897,-0.549l1.298,-2.146l0.948,-2.096l1.448,-0.649l-0.3,-0.798l-1.447,-0.849l-0.499,0.299l-2.746,-0.948l0.01,0Z" style="fill:#f9fafe;fill-rule:nonzero;stroke:#1d1d1d;stroke-width:0.45px;"/><path id="IE" d="M34.979,375.147l-1.747,-0.649l-1.447,0.05l0.549,-1.598l-0.4,-1.597l-1.846,1.398l-3.345,2.346l1.049,3.044l-2.097,3.195l3.344,0.449l4.343,-1.797l1.946,-2.695l-0.349,-2.146Z" style="fill:#f9fafe;fill-rule:nonzero;stroke:#1d1d1d;stroke-width:0.45px;"/><path id="IR" d="M167.844,421.415l-1.598,-1.448l-0.598,-1.198l-1.648,0.899l1.448,3.643l-0.349,0.998l1.846,2.596l2.346,3.893l1.847,0.948l0.499,1.897l-1.148,1.098l-0.25,2.496l2.296,3.044l3.494,1.697l1.747,2.446l-0.1,2.296l0.849,-0l0.249,1.647l1.697,1.697l0.849,-1.248l1.847,1.048l1.397,-0.499l2.546,4.193l2.146,3.044l2.745,0.899l3.045,2.445l3.443,1.049l2.546,-1.548l1.996,-0.549l1.398,0.549l1.597,3.893l3.145,0.4l3.044,0.748l5.241,0.949l0.599,-3.694l3.693,-1.647l-0.449,-1.447l-1.348,-0.499l-0.499,-2.845l-2.795,-1.348l-1.397,-1.947l-1.597,-1.647l1.946,-2.895l-0.549,-1.996l-2.146,-0.549l-0.549,-1.996l-1.348,-2.546l0.799,-1.747l-1.248,-0.449l0.25,-2.346l0.249,-3.993l-0.798,-2.745l-1.947,-0.1l-3.644,-2.845l-2.146,-0.349l-3.244,-1.647l-1.897,-0.3l-1.048,0.599l-1.747,-0.1l-1.497,1.847l-2.196,0.599l-0.1,0.799l-3.943,0.848l-3.793,-0.549l-2.146,-1.647l-2.596,-0.649l-1.248,-2.396l-0.649,0.15l-1.896,-1.697l0.599,-1.547l-0.949,-0.948l-0.948,0.249l-2.645,2.346l-0.899,0.1l-1.846,-0.449Z" style="fill:#f9fafe;fill-rule:nonzero;stroke:#1d1d1d;stroke-width:0.45px;"/><path id="IQ" d="M164.749,426.655l-3.094,-0.449l-1.049,0.499l-1.048,2.047l-1.347,0.798l0.599,2.346l-0.45,3.893l-5.49,3.344l1.547,3.843l3.345,0.849l4.242,2.246l8.335,6.339l5.091,0.249l1.597,-3.044l1.847,0.249l1.597,0.2l-1.697,-1.697l-0.249,-1.647l-0.849,-0l0.1,-2.296l-1.747,-2.446l-3.494,-1.697l-2.296,-3.044l0.25,-2.496l1.148,-1.098l-0.499,-1.897l-1.847,-0.948l-2.346,-3.893l-1.148,0.549l-1.048,-0.799Z" style="fill:#f9fafe;fill-rule:nonzero;stroke:#1d1d1d;stroke-width:0.45px;"/><path id="IL" d="M145.034,439.433l-0.699,0.05l-0.199,0.549l-0.899,-0l-0.05,0.05l-0.299,0.798l-0.3,2.396l-0.549,1.447l0.2,0.2l-0.699,1.048l1.947,4.592l0.349,0.849l0.849,-5.091l-0.2,-1.198l-1.198,0.399l0.05,-0.849l0.599,-0.399l-0.699,-0.349l0.35,-2.146l0.998,0.449l0.349,-0.998l-0.05,-0l0.3,-0.5l-0.15,-1.297Z" style="fill:#f9fafe;fill-rule:nonzero;stroke:#1d1d1d;stroke-width:0.45px;"/><path id="IT" d="M90.131,423.511l-1.996,0.249l-2.596,0.35l-3.094,-0.3l-0.3,1.697l3.744,1.647l1.347,0.35l2.097,1.198l0.449,-1.647l-0.449,-0.999l0.798,-2.545Zm-16.82,-9.433l-1.248,0.948l-1.397,-0.15l0.649,1.797l0.199,3.793l1.048,0.849l0.999,-1.048l1.197,0.199l0.2,-4.192l-1.647,-2.196Zm7.137,-17.12l-0.648,-1.098l-2.396,0.549l-0.25,0.599l-1.547,-0.449l-0.15,1.247l-1.048,0.549l-1.897,-0.399l-0.449,1.248l-1.198,0.1l-0.449,-0.499l-1.347,1.048l-1.198,0.15l-1.098,-0.649l-0.1,0.848l0.798,1.198l-0.848,0.898l0.749,2.396l1.347,0.4l-0.249,1.347l1.048,-0.249l1.397,-1.398l1.148,-0.449l2.096,1.048l1.298,0.349l0.949,2.995l1.796,1.797l2.446,1.996l2.096,1.398l1.947,0.2l1.148,1.247l1.697,0.599l0.848,1.348l1.098,0.399l0.899,1.597l1.148,1.847l-0.549,0.649l-0.4,1.747l0.05,0.998l1.048,-0.25l1.248,-2.795l1.048,-0.199l0.2,-1.647l-1.946,-1.148l0.948,-2.047l2.246,0.499l1.547,1.498l0.399,-1.148l-0.299,-0.599l-2.346,-1.597l-1.946,-0.949l-2.396,-1.148l0.699,-0.598l-0.699,-0.699l-1.997,0.05l-2.994,-2.496l-1.448,-2.545l-2.445,-1.548l-0.949,-1.547l0.25,-0.898l-0.2,-1.498l1.947,-1.098l2.046,0.449l-0.699,-1.347l0.15,-1.498l-3.594,-0.798Z" style="fill:#f9fafe;fill-rule:nonzero;stroke:#1d1d1d;stroke-width:0.45px;"/><path id="JO" d="M154.407,442.976l-1.547,-3.843l-4.791,3.344l-3.145,-1.247l-0.349,0.998l0.199,1.946l-0.299,0.949l0.2,1.198l-0.849,5.091l0.15,0.449l3.045,0.499l1.048,-0.998l0.549,-1.148l1.996,-0.4l0.35,-1.098l0.848,-0.499l-3.045,-3.194l5.191,-1.547l0.449,-0.5Z" style="fill:#f9fafe;fill-rule:nonzero;stroke:#1d1d1d;stroke-width:0.45px;"/><path id="KZ" d="M215.409,371.203l-4.492,-0.648l-1.547,1.247l-5.39,1.098l-0.849,0.749l-8.385,1.048l-0.699,1.048l2.496,2.047l-1.947,0.798l0.749,0.849l-1.797,1.447l4.692,2.097l-0.1,1.497l-3.444,-0.15l-0.399,0.899l-3.644,-1.598l-3.793,0.1l-2.146,1.248l-3.294,-1.198l-5.94,-2.146l-3.743,0.1l-4.043,3.294l0.349,2.296l-2.994,-1.797l-1.049,3.394l0.849,0.599l-0.849,2.346l2.646,2.146l1.797,-0.1l2.096,2.047l0.1,1.597l1.397,0.499l2.196,-0.649l2.496,-1.348l2.346,0.749l2.445,-0.15l0.949,1.947l0.299,2.995l-2.296,-0.45l-1.996,0.5l0.449,2.246l-2.496,-0.3l0.3,0.998l1.597,0.799l1.847,2.745l3.194,1.048l0.749,1.048l-0.35,1.298l0.35,0.749l0.898,-0.998l2.745,-0.649l1.897,0.848l2.446,2.446l1.248,-0.15l-3.095,-11.38l5.939,-1.797l0.55,0.25l4.541,2.246l2.396,1.148l3.244,2.745l2.845,-0.449l4.293,-0.25l3.743,2.246l0.749,3.095l1.248,0.05l1.297,2.495l3.295,0.1l1.148,1.498l0.948,-0l0.449,-2.246l2.695,-2.147l1.248,-0.599l0.15,-1.347l1.547,-0.399l4.542,1.048l-0.25,-1.797l1.248,-0.649l4.043,1.298l0.799,-0.35l4.292,0.1l3.893,0.3l1.647,1.098l1.747,0.449l-0.848,-1.747l1.447,-0.799l-4.342,-5.34l4.492,-1.198l0.998,-0.699l-0.499,-5.54l5.341,0.998l0.798,-1.397l-1.248,-3.095l1.897,-0.299l0.898,-2.097l-2.146,-1.896l-2.995,0.449l-1.647,-1.298l-1.946,-0.599l-2.047,-1.796l-1.597,-0.55l-3.094,0.799l-4.143,-1.797l-0.549,1.647l-9.044,-7.736l-4.143,-2.346l0.4,-0.948l-4.542,2.845l-2.196,0.199l-0.599,-1.647l-3.494,-1.048l-2.146,0.749l-2.147,-3.145l0.01,0Z" style="fill:#f9fafe;fill-rule:nonzero;stroke:#1d1d1d;stroke-width:0.45px;"/><path id="KE" d="M166.945,532.618l-1.896,-0l-1.158,-1.048l-2.546,1.297l-0.798,1.348l-1.897,-0.25l-0.599,-0.349l-0.649,0.05l-0.898,-0l-3.594,-2.695l-1.946,-0l-0.999,-1.048l0,-1.797l-1.447,-0.549l-1.897,2.096l-1.697,1.897l1.348,2.196l0.349,1.597l1.298,3.643l-1.048,2.346l-1.348,2.097l-0.798,1.297l-0,0.15l0.698,1.198l-0.199,2.346l10.082,6.488l0.2,1.847l3.992,3.144l1.098,-1.048l0.599,-2.096l0.899,-1.298l0.449,-2.246l1.048,-0.199l0.699,-1.348l1.996,-1.248l-1.647,-2.645l-0.099,-11.58l2.395,-3.593l0.01,-0Z" style="fill:#f9fafe;fill-rule:nonzero;stroke:#1d1d1d;stroke-width:0.45px;"/><path id="KG" d="M254.54,410.534l-1.747,-0.449l-1.647,-1.098l-3.893,-0.3l-4.292,-0.1l-0.799,0.35l-4.043,-1.298l-1.248,0.649l0.25,1.797l-4.542,-1.048l-1.547,0.399l-0.15,1.347l0.898,0.3l-1.547,2.046l2.296,1.148l1.597,-0.798l3.544,1.647l-2.595,2.246l-2.047,-0.3l-0.698,0.999l-2.945,-0.549l0.299,1.846l2.695,-0.249l3.544,0.998l4.742,-0.449l0.499,-0.749l-0.549,-0.749l1.996,-1.497l1.597,-0.599l2.845,0.449l0.3,-1.996l3.194,-0.399l0.499,-1.198l3.394,-1.697l0.1,-0.699Z" style="fill:#f9fafe;fill-rule:nonzero;stroke:#1d1d1d;stroke-width:0.45px;"/><path id="KW" d="M178.864,449.864l-1.847,-0.249l-1.597,3.044l2.446,0.3l0.848,1.547l1.897,-0.1l-1.198,-2.396l0.15,-0.748l-0.699,-1.398Z" style="fill:#f9fafe;fill-rule:nonzero;stroke:#1d1d1d;stroke-width:0.45px;"/><path id="LB" d="M145.034,439.433l0.449,-1.747l1.298,-1.198l-0.599,-1.248l-1.198,-0.15l-0.05,0.1l-1.048,2.246l-0.649,2.596l0.899,-0l0.199,-0.549l0.699,-0.05Z" style="fill:#f9fafe;fill-rule:nonzero;stroke:#1d1d1d;stroke-width:0.45px;"/><path id="LR" d="M26.045,520.689l-0.799,-0.1l-0.549,1.298l-0.799,-0.05l-0.549,-0.649l0.2,-1.298l-1.148,-1.946l-0.749,0.349l-0.599,0.1l-1.297,1.497l-1.298,1.697l-0.15,0.949l-0.648,0.998l1.846,2.046l2.396,1.747l2.545,2.396l2.845,1.547l0.749,-0.05l0.25,-2.595l0.249,-0.399l-0.1,-1.248l-1.148,-1.348l-0.898,-0.2l-0.799,-0.898l0.599,-1.397l-0.299,-1.548l0.15,-0.898Z" style="fill:#f9fafe;fill-rule:nonzero;stroke:#1d1d1d;stroke-width:0.45px;"/><path id="LY" d="M117.084,444.873l-0.749,-1.048l-2.695,-0.399l-0.899,-0.549l-0.998,-0l-0.998,-1.398l-3.644,-0.649l-1.797,0.4l-1.846,1.497l-0.749,1.547l0.749,2.396l-1.198,1.497l-1.248,0.799l-2.945,-1.547l-3.843,-1.348l-2.446,-0.599l-1.397,-2.845l-3.594,-1.397l-2.246,-0.549l-1.098,0.299l-3.194,-1.098l-0.05,2.446l-1.298,0.898l-0.749,0.998l-1.846,1.248l0.349,1.298l-0.2,1.347l-1.297,0.699l0.948,2.795l0.2,1.498l-0.45,2.595l0.25,1.447l-0.299,1.747l0.249,1.997l-1.048,1.297l1.697,2.346l0.1,1.348l0.998,1.797l1.298,-0.599l2.146,1.447l1.248,1.997l4.392,1.397l1.547,1.747l1.947,-1.198l2.695,-1.747l11.13,6.09l11.181,6.089l-0,-1.348l3.144,0l-0.25,-6.339l-0.499,-11.679l-0.649,-11.33l-0.998,-2.545l0.599,-1.947l-0.549,-1.348l0.899,-1.497Z" style="fill:#f9fafe;fill-rule:nonzero;stroke:#1d1d1d;stroke-width:0.45px;"/><path id="LS" d="M125.219,642.074l0.549,-0.998l1.547,-0.499l0.549,-1.048l0.949,-1.548l-0.849,-0.948l-1.148,-0.998l-1.297,0.649l-1.548,1.247l-1.597,1.997l1.847,2.446l0.998,-0.3Z" style="fill:#f9fafe;fill-rule:nonzero;stroke:#1d1d1d;stroke-width:0.45px;"/><path id="LT" d="M111.394,369.906l-2.496,-1.448l-1.248,-0.199l-0.449,-0.649l-2.196,0.299l-3.943,-0.199l-2.496,0.948l0.849,2.496l2.495,0.549l1.098,0.449l-0.099,0.848l0.299,0.749l1.248,0.299l0.699,0.949l2.296,-0l2.395,-1.098l0.25,-1.697l1.747,-0.999l-0.449,-1.297Z" style="fill:#f9fafe;fill-rule:nonzero;stroke:#1d1d1d;stroke-width:0.45px;"/><path id="LU" d="M64.776,388.573l0.1,-1.348l-0.499,-0.699l-0.649,0.1l-0.2,1.747l0.549,0.25l0.699,-0.05Z" style="fill:#f9fafe;fill-rule:nonzero;stroke:#1d1d1d;stroke-width:0.45px;"/><path id="LV" d="M112.242,364.366l-1.897,-0l-2.196,-1.098l-1.048,-0.35l-1.847,0.499l-0.099,2.296l-1.797,0.05l-2.196,-2.246l-1.997,1.048l-0.848,1.847l0.249,2.246l2.496,-0.948l3.943,0.199l2.196,-0.299l0.449,0.649l1.248,0.199l2.496,1.448l1.297,-0.499l2.296,-1.148l-1.048,-1.797l-0.499,-1.398l-1.198,-0.698Z" style="fill:#f9fafe;fill-rule:nonzero;stroke:#1d1d1d;stroke-width:0.45px;"/><path id="MA" d="M43.913,433.393l-1.148,-0.05l-2.745,-0.698l-2.496,0.199l-1.547,-1.347l-1.946,-0l-0.909,1.946l-1.847,3.344l-1.996,1.298l-2.695,1.448l-1.747,2.146l-0.449,1.697l-1.049,2.695l0.549,3.943l-2.345,2.645l-1.348,0.849l-2.196,2.196l-2.546,0.349l-1.397,1.198l-0.05,0.05l-1.797,3.244l-1.847,1.148l-1.048,1.997l-0.1,1.647l-0.798,1.897l-0.948,0.499l-1.548,1.996l-0.998,2.246l0.15,1.098l-0.949,1.647l-1.098,0.849l-0.149,1.497l0.05,0l6.189,-0.249l0.349,-1.148l1.148,-1.448l0.998,-4.392l3.893,-3.394l1.398,-4.043l0.848,-0.2l0.949,-2.495l2.296,-0.35l0.948,0.45l1.248,-0l0.898,-0.749l1.697,-0.1l-0.05,-1.697l0.4,0l0.049,-3.743l4.443,-2.346l2.695,-0.499l2.196,-0.849l1.048,-1.597l3.144,-1.248l0.15,-2.345l1.547,-0.25l1.248,-1.198l3.494,-0.499l0.499,-1.248l-0.699,-0.699l-0.898,-3.344l-0.15,-1.946l-0.998,-2.047l0.01,0Z" style="fill:#f9fafe;fill-rule:nonzero;stroke:#1d1d1d;stroke-width:0.45px;"/><path id="MD" d="M120.428,400.901l0.599,-0.349l0.249,-1.049l0.549,-0.998l-0.249,-0.549l0.499,-0.249l0.299,0.449l1.497,0.1l0.599,-0.25l-0.499,-0.299l0.1,-0.5l-0.998,-0.748l-0.549,-1.298l-0.948,-0.549l-0,-1.048l-1.248,-0.799l-0.998,-0.149l-1.947,-0.949l-1.597,0.3l-0.549,0.449l0.798,0.299l0.899,0.949l0.948,1.297l1.697,1.847l0.3,1.348l-0.1,1.347l0.649,1.398Z" style="fill:#f9fafe;fill-rule:nonzero;stroke:#1d1d1d;stroke-width:0.45px;"/><path id="MG" d="M188.906,588.12l-0.549,-2.097l-0.698,-1.347l-0.899,-1.348l-0.998,1.398l-0.15,1.896l-1.647,2.246l-1.148,-0.399l0.3,1.348l-0.899,1.597l-2.396,1.946l-1.697,1.847l-1.197,-0l-1.098,0.599l-1.548,0.649l-1.397,0.1l-0.499,2.046l-1.098,1.747l0.049,2.945l0.4,1.996l0.549,1.497l-0.399,2.047l-1.448,2.396l-0.1,1.048l-1.297,0.549l-0.649,2.296l0.1,2.296l0.798,2.495l-0.05,2.845l0.599,1.647l2.096,1.148l1.498,0.849l2.495,-1.348l2.296,-0.749l1.548,-3.693l1.397,-4.442l2.146,-5.99l1.647,-4.392l1.348,-3.693l0.399,-2.695l0.799,-0.749l0.349,-1.348l-0.399,-2.346l0.599,-0.948l0.798,1.897l0.549,-0.949l0.4,-1.547l-0.649,-1.447l-0.25,-3.843Z" style="fill:#f9fafe;fill-rule:nonzero;stroke:#1d1d1d;stroke-width:0.45px;"/><path id="MK" d="M108.199,411.632l-1.397,-0.998l-1.198,0.05l-0.849,0.199l-0.549,0.1l-1.447,0.499l-0.05,0.599l-0.349,0l-0.2,1.048l0.449,1.298l1.148,0.799l1.647,-0.3l0.949,-0.649l1.397,0.05l0.349,-0.549l0.5,-0.1l-0.4,-2.046Z" style="fill:#f9fafe;fill-rule:nonzero;stroke:#1d1d1d;stroke-width:0.45px;"/><path id="ML" d="M61.432,484.253l-3.045,0.3l-0.05,-1.997l-1.297,-0.549l-1.697,-0.898l-0.649,-1.497l-9.284,-6.888l-9.183,-6.938l-4.193,0.05l1.198,13.676l1.198,13.725l0.499,0.4l-0.649,2.196l-11.13,0.05l-0.449,0.699l-1.049,-0.2l-1.597,0.649l-1.906,-0.899l-0.899,0.1l-0.499,1.847l-0.948,0.599l0.1,1.946l0.549,1.847l1.048,0.899l0.199,1.197l-0.149,0.999l0.149,1.148l0.45,-0l0.748,-0.4l0.45,0.1l0.748,0.799l1.198,0.249l0.799,-0.698l0.898,-0.4l0.649,-0.449l0.549,0.1l0.649,0.699l0.299,0.848l1.148,1.348l-0.599,0.798l-0.1,1.048l0.599,-0.299l0.35,0.349l-0.15,0.949l0.849,0.898l0.349,-0.299l0.799,0.499l2.146,0.05l0.499,-0.949l0.499,0.05l0.799,-0.349l0.449,1.347l0.649,-0.399l1.148,-0.449l-0.2,-1.847l0.799,-1.347l-0.1,-1.098l2.246,-2.596l0.399,-2.196l0.799,-0.799l1.347,0.45l1.148,-0.649l0.399,-0.799l2.147,-1.447l0.549,-0.998l2.595,-1.298l1.497,-0.449l0.699,0.599l1.797,-0l1.797,-0.15l0.998,-1.098l3.793,-0.3l2.446,-0.499l0.25,-1.946l1.497,-2.147l-0.05,-7.287l0.01,0Z" style="fill:#f9fafe;fill-rule:nonzero;stroke:#1d1d1d;stroke-width:0.45px;"/><path id="ME" d="M101.212,409.136l0.199,-0.299l-0.998,-0.599l-0.898,-0.349l-0.4,-0.4l-0.748,-0.549l-0.45,0.3l-0.748,0.698l-0.2,1.697l-0.249,0.5l1.148,0.599l0.798,1.048l0.549,0.199l-0.249,-0.948l0.998,-1.547l0.199,0.599l0.649,-0.25l0.4,-0.699Z" style="fill:#f9fafe;fill-rule:nonzero;stroke:#1d1d1d;stroke-width:0.45px;"/><path id="MZ" d="M162.603,579.285l-0.399,-1.447l-2.296,1.846l-3.095,1.248l-1.647,-0.05l-1.048,0.949l-1.947,0.05l-0.698,0.399l-3.344,-0.899l-1.049,0.15l-0.798,2.995l0.349,3.643l0.15,0l0.948,0.999l1.098,2.296l0.05,4.092l-1.248,0.649l-0.948,2.246l-1.697,-1.996l-0.1,-2.246l0.649,-1.448l-0.15,-1.297l-1.048,-0.799l-0.798,0.299l-1.498,-1.497l-8.535,2.596l0.15,2.246l0.15,1.197l2.296,-0.049l1.298,0.648l0.549,0.799l1.297,0.25l1.398,0.998l-0.15,4.043l-0.649,2.196l-0.249,2.346l0.399,0.948l-0.399,1.847l-0.45,0.299l-0.798,2.296l-3.095,3.594l1.647,6.738l-0.698,3.543l0.199,1.148l0.3,1.448l0.15,1.397l2.046,0l0.349,-1.647l-0.698,-0.249l-0.15,-1.298l1.297,-1.198l3.394,-1.697l2.296,-1.098l1.248,-1.148l0.449,-1.298l-0.599,-0.549l0.55,-1.497l0.249,-3.094l-0.499,0.149l-0,-0.948l-0.399,-1.847l-1.198,-2.396l0.349,-2.295l1.148,-0.699l2.047,-2.296l1.098,-0.549l3.344,-3.394l3.194,-1.547l2.595,-1.248l1.847,-1.947l1.198,-2.196l0.948,-2.296l-0.449,-1.547l0.1,-4.941l-0.2,-2.795l0.2,-3.145Z" style="fill:#f9fafe;fill-rule:nonzero;stroke:#1d1d1d;stroke-width:0.45px;"/><path id="MR" d="M36.227,465.786l-10.132,-7.736l-0.1,4.841l-8.934,-0.15l-0.1,8.136l-2.596,0.25l-0.708,1.647l0.449,4.592l-10.781,-0.05l-0.599,1.098l1.397,1.347l0.699,1.498l-0.349,1.597l0.299,1.597l0.25,3.144l-0.399,2.945l-0.849,1.597l0.2,1.697l0.998,-0.998l1.348,0.25l1.397,-0.699l1.547,-0l1.298,0.898l1.847,0.849l1.597,2.346l1.797,2.196l0.948,-0.599l0.499,-1.847l0.899,-0.1l1.896,0.899l1.597,-0.649l1.049,0.2l0.449,-0.699l11.13,-0.05l0.649,-2.196l-0.499,-0.4l-1.198,-13.725l-1.198,-13.676l4.193,-0.05l0.01,0Z" style="fill:#f9fafe;fill-rule:nonzero;stroke:#1d1d1d;stroke-width:0.45px;"/><path id="MW" d="M145.733,589.667l0.05,-1.148l-0.599,-0.948l0.05,-1.398l-0.749,-2.346l0.849,-1.747l-0.05,-3.843l-0.949,-2.046l0.1,-0.35l-0.549,-0.848l-2.695,-0.599l1.298,1.397l0.598,2.696l-0.499,0.898l-0.599,2.545l0.45,2.646l-0.899,1.098l-0.948,2.945l1.447,0.848l1.498,1.497l0.798,-0.299l1.048,0.799l0.15,1.297l-0.649,1.448l0.1,2.246l1.697,1.996l0.948,-2.246l1.248,-0.649l-0.05,-4.092l-1.098,-2.296l-0.948,-0.999l-0.15,0l0,0.4l0.549,0.149l0.499,1.697l-0.099,0.4l-0.949,-1.248l-0.499,0.799l-0.399,-0.699Z" style="fill:#f9fafe;fill-rule:nonzero;stroke:#1d1d1d;stroke-width:0.45px;"/><path id="NA" d="M113.889,600.747l-5.141,1.248l-6.688,-0.449l-1.847,-1.498l-11.23,0.15l-0.449,0.2l-1.597,-1.448l-1.797,-0.05l-1.647,0.5l-1.348,0.599l0.1,2.445l2.196,3.095l0.549,1.996l1.398,3.843l1.347,2.596l1.049,1.297l0.299,1.747l0,3.794l0.799,4.891l0.599,2.296l0.499,3.094l0.948,2.346l1.947,2.396l1.347,-1.597l1.048,0.898l0.4,1.348l1.198,0.249l1.647,0.599l1.447,-0.249l2.496,-1.597l0.549,-11.779l0.299,-9.234l2.695,-0.1l0.45,-11.33l2.046,-0.1l4.292,-1.098l0.999,1.298l1.846,-1.248l0.799,0l1.597,-0.749l0,-0.249l-1.048,-0.699l-1.797,-0.199l-2.296,0.748Z" style="fill:#f9fafe;fill-rule:nonzero;stroke:#1d1d1d;stroke-width:0.45px;"/><path id="NE" d="M86.887,471.925l-4.392,-1.397l-9.284,6.089l-7.886,6.239l-3.893,1.397l0.05,7.287l-1.497,2.147l-0.25,1.946l-2.446,0.499l-3.793,0.3l-0.998,1.098l-1.797,0.15l-0.25,1.547l0.4,1.447l1.547,2.047l0.1,1.547l3.194,0.699l-0.05,2.196l0.949,-0.948l0.998,-0l2.146,1.846l0.15,-2.845l0.798,-1.297l0.4,-1.797l0.698,-0.699l2.995,-0.399l2.795,1.198l1.048,1.197l1.448,0.05l1.297,-0.748l3.394,1.647l1.398,-0.1l1.647,-1.348l1.647,0.1l0.799,-0.449l1.497,0.2l2.146,0.898l2.146,-1.747l0.649,0.1l1.947,3.494l0.499,-0.1l0.1,-0.998l0.798,-0.2l0.25,-1.447l-1.797,-0.1l0,-2.047l-1.198,-1.148l1.148,-4.192l3.444,-2.995l0.1,-4.143l0.898,-6.438l0.549,-1.348l-1.148,-1.098l-0.099,-1.048l-0.999,-0.799l-0.798,-4.941l-1.947,1.198l-1.547,-1.747Z" style="fill:#f9fafe;fill-rule:nonzero;stroke:#1d1d1d;stroke-width:0.45px;"/><path id="NG" d="M89.133,505.416l-0.499,0.1l-1.947,-3.494l-0.649,-0.1l-2.146,1.747l-2.146,-0.898l-1.497,-0.2l-0.799,0.449l-1.647,-0.1l-1.647,1.348l-1.398,0.1l-3.394,-1.647l-1.297,0.748l-1.448,-0.05l-1.048,-1.197l-2.795,-1.198l-2.995,0.399l-0.708,0.699l-0.4,1.797l-0.798,1.297l-0.15,2.845l-0.1,1.048l0.599,1.897l-0.549,1.248l0.3,0.848l-1.348,1.997l-0.849,0.948l-0.499,1.997l0.05,2.046l-0.149,5.091l4.591,-0l1.947,2.096l0.948,2.296l1.498,1.947l2.246,0.1l1.098,-0.699l1.048,0.15l2.895,-1.148l0.699,-2.246l1.347,-3.045l0.799,-0.05l1.647,-1.847l1.048,-0.05l1.597,1.298l1.947,-1.098l0.249,-1.298l0.599,-1.297l0.399,-1.598l1.498,-1.297l0.549,-2.246l0.599,-0.699l0.349,-1.647l0.749,-1.997l2.296,-2.495l0.15,-1.048l0.299,-0.549l-1.148,-1.298l0.01,-0Z" style="fill:#f9fafe;fill-rule:nonzero;stroke:#1d1d1d;stroke-width:0.45px;"/><path id="NL" d="M64.027,381.236l1.448,-0l0.549,-1.148l0.499,-2.795l-0.499,-0.999l-1.947,-0.099l-3.244,1.297l-1.946,4.442l-1.248,0.849l1.797,0.25l2.196,-0.649l1.547,1.347l1.397,0.699l-0.549,-3.194Z" style="fill:#f9fafe;fill-rule:nonzero;stroke:#1d1d1d;stroke-width:0.45px;"/><path id="OM" d="M211.516,478.014l1.049,-0.998l0.399,-0.898l0.798,-1.897l-0.05,-0.699l-1.048,-0.399l-0.798,-1.048l-1.448,-1.847l-1.647,-0.549l-2.046,-0.449l-1.647,-1.148l-1.448,-2.146l-1.397,-0l-0.05,2.096l0.549,0.399l-1.198,0.649l0.15,1.298l-0.699,1.298l0.05,1.297l1.447,2.246l-1.297,6.339l-8.036,3.195l2.595,5.24l1.048,2.196l1.248,-0.149l1.797,-1.098l1.547,0.299l1.248,-0.898l-0.1,-1.248l1.048,-0.799l1.697,0l0.599,-0.649l0.1,-1.547l1.647,-1.198l1.298,0l0.2,-0.399l-0.5,-2.096l0.3,-1.598l0.499,-0.748l1.248,0.15l0.848,-2.197Zm-8.285,-15.173l0.1,-1.297l-0.35,-0.3l-0.648,1.098l0.648,1.098l0.25,-0.599Z" style="fill:#f9fafe;fill-rule:nonzero;stroke:#1d1d1d;stroke-width:0.45px;"/><path id="PK" d="M255.089,432.345l-4.691,-1.297l-1.448,-2.496l-2.346,-1.497l-1.397,0.349l-1.198,0.599l-2.895,0.399l-2.645,0.649l-1.198,1.398l0.948,1.397l0.699,1.597l-0.998,1.348l0.399,1.248l-0.449,1.148l-2.546,-0.1l1.498,2.096l-1.498,0.799l-0.748,1.896l0.549,1.897l-0.849,0.898l-1.048,-0.299l-1.997,0.449l-0.099,0.849l-1.997,-0l-1.148,1.796l0.4,2.696l-3.295,1.297l-1.896,-0.249l-0.45,0.699l-1.647,-0.4l-2.645,0.45l-4.791,-1.598l1.597,1.647l1.397,1.947l2.795,1.348l0.499,2.845l1.348,0.499l0.449,1.447l-3.693,1.647l-0.599,3.694l3.793,-0.45l4.442,-0.049l4.942,-0.599l2.445,2.395l1.048,2.296l2.097,0.799l1.597,-2.096l5.989,-0l-0.898,-2.746l-1.747,-1.597l-0.649,-2.445l-1.996,-1.448l2.445,-3.294l3.195,0.25l2.246,-3.344l1.048,-3.245l1.946,-3.144l-0.499,-2.246l1.847,-1.847l-2.496,-1.547l-1.447,-2.146l-1.597,-2.795l0.948,-1.398l4.243,0.799l2.845,-0.5l1.846,-2.695Z" style="fill:#f9fafe;fill-rule:nonzero;stroke:#1d1d1d;stroke-width:0.45px;"/><path id="PL" d="M95.921,373.45l-2.296,-0.05l-0.25,-0.699l-2.395,-0.549l-2.845,1.048l-3.544,1.397l-1.547,0.849l0.699,1.547l-0.599,0.799l0.998,1.098l0.699,1.647l-0.05,1.048l1.148,1.947l1.198,0.948l1.846,0.299l-0.05,0.849l1.348,0.599l0.299,-0.749l1.697,0.3l0.35,0.998l1.797,0.15l1.297,1.547l0.15,0.2l0.948,-0.45l1.348,1.098l1.398,-0.648l1.197,0.299l1.697,-0.399l2.446,1.148l0.549,0.199l-0.798,-1.397l1.896,-2.546l1.148,-0.349l0.15,-0.898l-1.547,-2.646l-0.25,-1.347l-0.948,-1.448l1.347,-0.599l-0.149,-1.198l-0.849,-1.148l-0.299,-1.347l-0.699,-0.949l-1.248,-0.299l-4.342,0.05l-2.945,-0.349Z" style="fill:#f9fafe;fill-rule:nonzero;stroke:#1d1d1d;stroke-width:0.45px;"/><path id="PT" d="M30.127,427.154l-0.199,-1.048l0.998,-1.247l0.399,-0.849l-0.898,-0.948l0.798,-2.147l-0.998,-1.896l1.098,-0.25l0.15,-1.497l0.449,-0.449l0.1,-2.446l1.198,-0.848l-0.649,-1.548l-1.497,-0.1l-0.449,0.4l-1.498,-0l-0.599,-1.547l-1.048,0.449l-0.948,0.798l0.05,1.048l0.449,1.099l0.05,1.347l-0.649,1.897l-0.2,1.248l-1.098,1.148l-0.299,2.096l0.599,1.198l1.148,0.299l0.199,1.997l-0.499,2.545l1.398,-0.349l1.347,0.449l1.098,-0.849Z" style="fill:#f9fafe;fill-rule:nonzero;stroke:#1d1d1d;stroke-width:0.45px;"/><path id="PS" d="M144.585,442.228l-0.998,-0.449l-0.35,2.146l0.699,0.349l-0.599,0.399l-0.05,0.849l1.198,-0.399l0.299,-0.949l-0.199,-1.946Z" style="fill:#f9fafe;fill-rule:nonzero;stroke:#1d1d1d;stroke-width:0.45px;"/><path id="QA" d="M190.054,466.884l0.4,-1.897l-0.25,-1.846l-0.948,-0.998l-0.699,0.349l-0.549,1.647l0.399,2.346l0.899,0.599l0.748,-0.2Z" style="fill:#f9fafe;fill-rule:nonzero;stroke:#1d1d1d;stroke-width:0.45px;"/><path id="RO" d="M115.237,392.416l-1.048,-0l-0.499,0.749l-1.797,0.299l-0.799,0.449l-1.198,-0.748l-1.597,-0l-1.597,-0.35l-0.948,0.649l-1.448,0.649l-0.948,2.096l-1.298,2.146l-1.897,0.549l1.448,1.248l0.399,0.949l1.597,0.748l0.35,1.248l1.547,0.898l0.699,-0.648l0.699,0.349l-0.549,0.549l0.499,0.499l0.898,1.298l0.948,-0.25l1.997,0.499l3.743,0.15l1.148,-0.798l2.895,-0.699l1.997,1.098l1.497,0.349l0.2,-3.693l0.798,0.249l1.148,-0.649l-0.2,-0.798l-1.197,-0.549l-1.099,0.499l-1.197,-0.549l-0.649,-1.398l0.1,-1.347l-0.3,-1.348l-1.697,-1.847l-0.948,-1.297l-0.899,-0.949l-0.798,-0.299Z" style="fill:#f9fafe;fill-rule:nonzero;stroke:#1d1d1d;stroke-width:0.45px;"/><path id="RW" d="M134.942,548.689l-1.647,0.949l-0.699,-0.3l-0.799,0.899l-0.099,1.896l-0.4,0.2l-0.299,1.747l1.747,0.249l0.848,-1.796l1.498,0.199l0.798,-0.399l0.2,-1.847l-1.148,-1.797Z" style="fill:#f9fafe;fill-rule:nonzero;stroke:#1d1d1d;stroke-width:0.45px;"/><path id="EH" d="M26.135,457.251l-0.4,0l0.05,1.697l-1.697,0.1l-0.898,0.749l-1.248,-0l-0.948,-0.45l-2.296,0.35l-0.949,2.495l-0.848,0.2l-1.398,4.043l-3.893,3.394l-0.998,4.392l-1.148,1.448l-0.349,1.148l-6.189,0.249l-0.05,0l-0.15,1.348l0.599,-1.098l10.781,0.05l-0.449,-4.592l0.698,-1.647l2.596,-0.25l0.1,-8.136l8.934,0.15l0.1,-4.841l0.05,-0.599l-0,-0.2Z" style="fill:#f9fafe;fill-rule:nonzero;stroke:#1d1d1d;stroke-width:0.45px;"/><path id="SA" d="M175.43,452.659l-5.091,-0.249l-8.335,-6.339l-4.242,-2.246l-3.345,-0.849l-0.449,0.5l-5.191,1.547l3.045,3.194l-0.848,0.499l-0.35,1.098l-1.996,0.4l-0.549,1.148l-1.048,0.998l-3.045,-0.499l-0.25,1.248l0,1.098l-0.299,1.746l1.347,0l1.598,2.197l1.846,2.545l1.248,2.346l0.849,0.749l0.848,1.647l-0.1,0.698l1.048,1.847l1.498,0.649l1.397,1.248l1.797,3.494l0,1.896l0.449,2.196l1.997,3.045l1.248,0.499l2.046,2.196l0.948,2.596l1.598,2.645l1.497,1.148l0.299,1.248l0.899,0.948l0.449,1.398l1.138,-1.049l-0.349,-1.347l0.599,-1.547l1.197,0.848l0.749,-0.299l3.194,-0.1l0.5,0.349l2.695,0.3l1.048,-0.15l0.798,1.048l1.248,-0.499l1.747,-3.344l2.496,-1.448l7.836,-1.197l8.036,-3.195l1.297,-6.339l-1.447,-2.246l-0.499,0.649l-8.385,-1.597l-1.298,-3.194l-0.2,-0.749l-0.599,-1.198l-0.748,0.2l-0.899,-0.599l-0.499,-0.799l-0.449,-1.048l-0.849,-0.898l-0.499,-1.048l0.2,-1.049l-0.299,-1.347l-1.997,-1.298l-0.599,-1.148l-1.447,-0.699l-1.348,-2.745l-1.897,0.1l-0.848,-1.547l-2.446,-0.3l0.01,0Z" style="fill:#f9fafe;fill-rule:nonzero;stroke:#1d1d1d;stroke-width:0.45px;"/><path id="SD" d="M151.523,493.337l0.199,-2.096l0.799,-0.998l1.996,-0.499l1.298,-1.797l-1.547,-1.198l-1.098,-0.799l-1.258,-3.793l-0.549,-3.244l0.549,-0.599l-1.048,-3.095l-32.593,0l0.25,6.339l-3.144,0l-0,1.348l0.549,12.578l-2.396,-0.2l-1.198,2.346l-0.699,1.946l0.599,0.749l-0.898,0.948l0.349,1.348l-0.699,1.298l-0.249,1.197l0.998,-0.199l0.599,1.248l0.05,1.846l1.048,0.899l-0,0.798l0.349,1.348l1.647,1.996l0,1.298l-0.399,1.298l0.15,0.998l0.998,0.898l0.25,0.15l0.848,-0.349l0.949,-0.599l0.648,-2.845l0.749,-1.448l1.996,-0.449l0.5,0.899l1.497,1.846l0.749,0.25l0.998,-0.549l2.046,0.15l0.4,0.649l2.745,-0l0.1,-0.649l1.447,-0.599l0.249,-0.949l1.049,-0.648l2.395,1.846l1.398,-0.349l1.348,-2.246l1.497,-1.747l-0.3,-1.947l-0.698,-0.898l1.697,-0.15l0.149,-0.748l1.298,0.249l-0.249,2.346l0.399,2.296l1.447,1.248l0.35,1.098l-0,1.547l0.399,0.05l-0,-0.349l0.699,-3.344l1.297,-0.899l0.25,-1.298l1.148,-2.395l1.597,-1.598l1.048,-3.094l0.35,-2.745l-0.35,-1.248l0.949,-4.692l0.01,0Z" style="fill:#f9fafe;fill-rule:nonzero;stroke:#1d1d1d;stroke-width:0.45px;"/><path id="SS" d="M144.136,513.402l-0.35,-1.098l-1.447,-1.248l-0.399,-2.296l0.249,-2.346l-1.298,-0.249l-0.149,0.748l-1.697,0.15l0.698,0.898l0.3,1.947l-1.497,1.747l-1.348,2.246l-1.398,0.349l-2.395,-1.846l-1.049,0.648l-0.249,0.949l-1.448,0.599l-0.099,0.649l-2.745,-0l-0.4,-0.649l-2.046,-0.15l-0.998,0.549l-0.749,-0.25l-1.497,-1.846l-0.5,-0.899l-1.996,0.449l-0.749,1.448l-0.649,2.845l-0.948,0.599l-0.848,0.349l1.896,1.248l1.548,1.298l0.049,0.998l1.897,1.697l1.198,1.348l0.749,1.896l2.096,1.248l0.449,1.048l1.747,2.596l1.248,0.399l0.749,-0.549l1.297,0.199l1.548,-0.648l0.698,1.347l2.496,2.096l1.148,-0.848l1.747,0.699l2.246,-0.749l1.996,0.05l1.697,-1.497l1.697,-1.897l1.897,-2.096l-1.747,-3.444l-1.298,-0.749l-0.499,-1.248l-1.447,-1.547l-1.697,-0.249l0.898,-1.797l1.497,-0.05l0.4,-0.998l-0.1,-2.496l-0.399,-0.05l-0,-1.547Z" style="fill:#f9fafe;fill-rule:nonzero;stroke:#1d1d1d;stroke-width:0.45px;"/><path id="SN" d="M15.813,498.678l-1.797,-2.196l-1.597,-2.346l-1.847,-0.849l-1.298,-0.898l-1.547,-0l-1.397,0.699l-1.348,-0.25l-0.998,0.998l-0.649,1.648l-1.398,2.196l-1.257,0.599l1.347,1.148l1.098,2.495l3.045,-0.1l0.649,-0.748l0.898,-0.05l1.048,0.748l0.899,0.05l0.898,-0.549l0.549,0.899l-1.198,0.748l-1.198,-0.05l-1.198,-0.698l-1.048,0.748l-0.499,0l-0.699,0.45l-2.495,-0.05l0.399,2.445l1.497,-0.549l0.899,0.1l0.749,-0.349l5.14,0.149l1.348,0.05l1.997,0.749l0.648,-0.05l0.2,-0.349l1.497,0.249l0.4,-0.199l0.149,-0.999l-0.199,-1.197l-1.048,-0.899l-0.549,-1.847l-0.1,-1.946l0.01,-0Z" style="fill:#f9fafe;fill-rule:nonzero;stroke:#1d1d1d;stroke-width:0.45px;"/><path id="SL" d="M21.053,518.393l-0.748,0.15l-0,-1.148l-0.449,-0.849l0.099,-0.898l-0.599,-1.348l-0.748,-1.148l-2.246,0l-0.649,0.599l-0.749,0.1l-0.499,0.699l-0.349,0.848l-1.498,1.398l0.35,2.346l0.449,1.148l1.447,1.747l2.047,1.247l0.749,0.25l0.648,-0.998l0.15,-0.949l1.298,-1.697l1.297,-1.497Z" style="fill:#f9fafe;fill-rule:nonzero;stroke:#1d1d1d;stroke-width:0.45px;"/><path id="RS" d="M103.607,401.849l-1.597,-0.748l-0.399,-0.949l-1.448,-1.248l-1.597,-0.099l-1.846,0.798l0.748,1.198l0.849,0.899l-0.849,1.147l0.899,0l-0.499,1.348l1.347,1.148l-0.249,1.447l-0.599,0.15l0.748,0.549l0.4,0.4l0.898,0.349l0.998,0.599l-0.199,0.299l0.599,-0.249l0.249,-0.998l0.449,-0.2l0.4,0.449l0.499,0.2l0.399,0.499l0.399,0.15l0.549,0.549l0.4,-0l-0.25,0.748l-0.249,0.35l0.099,0.249l0.849,-0.199l1.198,-0.05l0.349,-0.45l-0.299,-0.349l0.349,-0.998l0.849,-0.948l-1.398,-1.298l-0.349,-1.148l0.549,-0.699l-0.499,-0.499l0.549,-0.549l-0.699,-0.349l-0.699,0.648l-1.547,-0.898l-0.35,-1.248Z" style="fill:#f9fafe;fill-rule:nonzero;stroke:#1d1d1d;stroke-width:0.45px;"/><path id="SK" d="M104.905,389.721l-2.446,-1.148l-1.697,0.399l-1.197,-0.299l-1.398,0.648l-1.348,-1.098l-0.948,0.45l-0.15,-0.2l-0.748,-0l-0.3,0.549l-0.549,0.15l-0.1,0.698l-0.449,0.15l-0.05,0.3l-0.798,0.299l-1.098,-0.05l-0.3,0.699l-0.15,0.399l0.35,1.048l1.297,0.799l0.949,0.349l2.046,-0.399l0.15,-0.599l0.948,-0.1l1.148,-0.499l0.3,0.2l1.098,-0.35l0.499,-0.748l0.798,-0.2l2.746,0.948l0.499,-0.299l0.349,-1.248l0.549,-0.848Z" style="fill:#f9fafe;fill-rule:nonzero;stroke:#1d1d1d;stroke-width:0.45px;"/><path id="SI" d="M90.93,397.756l-0.599,-1.048l-0.399,-0.05l-0.45,0.549l-2.146,0.05l-1.198,0.699l-2.096,-0.2l-0.15,1.498l0.699,1.347l-0.549,0.25l1.747,0.1l0.399,-0.499l0.899,0.499l0.998,0.05l-0.1,-0.849l0.849,-0.299l0.149,-1.248l1.947,-0.849Z" style="fill:#f9fafe;fill-rule:nonzero;stroke:#1d1d1d;stroke-width:0.45px;"/><path id="SE" d="M100.064,339.909l-0.949,-1.098l-0.848,-4.193l-3.594,-1.846l-2.945,-1.348l-1.247,0.15l-0,1.747l-3.943,-0.45l-0.3,1.548l-1.996,-0.05l-1.098,1.946l-1.697,3.045l-2.845,3.943l0.898,0.948l-0.649,1.098l-2.146,-0.05l-1.158,2.646l0.499,3.793l1.547,1.447l-0.449,3.444l-1.697,1.997l-0.848,1.647l2.096,4.192l2.196,3.344l0.998,2.845l2.646,-0.149l1.098,-2.346l2.845,0.249l0.998,-2.745l0.299,-4.991l2.296,-0.649l1.647,-3.294l-2.395,-1.647l-1.797,-1.996l1.048,-4.043l3.843,-2.446l3.045,-2.246l-0.599,-1.747l1.697,-1.946l3.494,-0.749l0.01,-0Z" style="fill:#f9fafe;fill-rule:nonzero;stroke:#1d1d1d;stroke-width:0.45px;"/><path id="SZ" d="M136.399,627.15l-1.347,-0.598l-0.799,0.249l-0.349,0.898l-0.799,1.198l-0.05,1.098l1.498,1.747l1.647,-0.349l0.649,-1.398l-0.15,-1.397l-0.3,-1.448Z" style="fill:#f9fafe;fill-rule:nonzero;stroke:#1d1d1d;stroke-width:0.45px;"/><path id="SY" d="M152.87,439.133l5.49,-3.344l0.45,-3.893l-0.599,-2.346l1.347,-0.798l1.048,-2.047l-2.944,0.549l-1.398,-0.1l-2.845,1.248l-2.146,0l-1.497,-0.599l-2.745,0.899l-0.949,-0.649l0.05,1.797l-0.599,0.748l-0.599,0.699l-0.499,1.298l0.549,2.495l1.198,0.15l0.599,1.248l-1.298,1.198l-0.449,1.747l0.15,1.297l-0.3,0.5l0.05,-0l3.145,1.247l4.791,-3.344Z" style="fill:#f9fafe;fill-rule:nonzero;stroke:#1d1d1d;stroke-width:0.45px;"/><path id="TD" d="M115.387,482.906l-11.181,-6.089l-11.13,-6.09l-2.695,1.747l0.798,4.941l0.999,0.799l0.099,1.048l1.148,1.098l-0.549,1.348l-0.898,6.438l-0.1,4.143l-3.444,2.995l-1.148,4.192l1.198,1.148l0,2.047l1.797,0.1l-0.25,1.447l1.098,2.046l0.25,2.097l-0.1,2.146l1.547,2.895l-1.547,-0.05l-0.798,0.2l-1.248,-0.3l-0.599,1.497l1.647,1.847l1.248,0.549l0.399,1.298l0.898,2.196l-0.449,0.848l2.346,-0.199l0.499,-0.849l0.449,0.1l0.699,0.699l3.544,-1.198l1.148,-1.248l1.447,-1.098l-0.299,-1.148l0.798,-0.299l2.696,0.199l2.595,-1.447l1.997,-3.494l1.397,-1.248l1.747,-0.549l-0,-0.798l-1.048,-0.899l-0.05,-1.846l-0.599,-1.248l-0.998,0.199l0.249,-1.197l0.699,-1.298l-0.349,-1.348l0.898,-0.948l-0.599,-0.749l0.699,-1.946l1.198,-2.346l2.396,0.2l-0.549,-12.578Z" style="fill:#f9fafe;fill-rule:nonzero;stroke:#1d1d1d;stroke-width:0.45px;"/><path id="TG" d="M52.148,510.158l-2.445,-0.05l-0.2,0.948l1.198,1.647l-0.05,2.296l0.3,2.545l0.698,1.148l-0.599,2.845l0.2,1.598l0.749,1.996l0.599,1.098l2.296,-0.649l-0.699,-2.196l0.1,-7.287l-0.549,-0.649l-0.1,-1.547l-0.998,-1.148l-0.849,-0.948l0.349,-1.647Z" style="fill:#f9fafe;fill-rule:nonzero;stroke:#1d1d1d;stroke-width:0.45px;"/><path id="TJ" d="M233.028,417.072l-1.048,0.1l-0.649,-0.898l0.1,-1.448l-3.194,0.749l-0.25,1.996l-0.748,1.747l-2.197,-0.149l-0.299,1.397l2.096,0.799l1.198,2.346l-0.649,3.294l0.899,0.399l1.647,-1.048l1.048,0.649l0.449,-1.498l1.597,0.05l0.3,-0.449l-0.1,-1.298l0.848,-1.148l1.598,0.749l-0,0.998l0.798,0.15l0.499,2.695l1.298,1.048l0.749,-0.648l1.048,-0.35l1.248,-1.447l1.896,0.249l2.695,0l-0.898,-1.846l-0.299,-1.248l-1.747,-0.699l-0.799,0.299l-1.497,-2.944l-4.742,0.449l-3.544,-0.998l-2.695,0.249l-0.299,-1.846l2.945,0.549l0.698,-0.999Z" style="fill:#f9fafe;fill-rule:nonzero;stroke:#1d1d1d;stroke-width:0.45px;"/><path id="TM" d="M223.785,426.306l-0.4,-1.997l-3.843,-1.347l-3.094,-1.597l-2.097,-1.498l-3.493,-2.196l-2.147,-3.194l-0.998,-0.599l-2.745,0.15l-1.148,-0.649l-0.948,-2.446l-3.893,-1.647l-1.648,1.797l-1.896,1.098l0.798,1.547l-2.894,0.05l-1.248,0.15l-2.446,-2.446l-1.897,-0.848l-2.745,0.649l-0.898,0.998l1.248,1.996l-0.25,-2.246l1.847,-0.798l1.198,1.796l2.296,1.847l-1.997,0.998l-2.645,-0.748l0.05,2.595l1.747,0.2l-0.2,2.196l2.246,1.048l0.349,3.394l0.899,2.246l2.196,-0.599l1.497,-1.847l1.747,0.1l1.048,-0.599l1.897,0.3l3.244,1.647l2.146,0.349l3.644,2.845l1.947,0.1l0.798,2.745l2.945,1.198l1.947,-0.399l0.199,-1.498l1.997,-0.449l1.247,-0.998l-0.049,-2.595l2.046,-0.599l0.15,-1.148l1.447,0.848l0.799,0.1Z" style="fill:#f9fafe;fill-rule:nonzero;stroke:#1d1d1d;stroke-width:0.45px;"/><path id="TN" d="M80.249,439.882l-0.999,-0.499l-0.748,-1.498l-1.398,-0.049l-0.549,-1.747l1.697,-1.598l0.25,-2.795l-0.949,-0.798l-0.049,-1.498l1.247,-1.597l-0.199,-0.649l-2.196,1.198l0.05,-1.647l-1.847,-0.349l-2.795,1.298l-0.499,1.647l0.499,3.094l-0.549,2.645l-1.597,1.797l0.299,2.396l2.246,1.897l0,0.748l1.697,1.298l1.298,5.64l1.297,-0.699l0.2,-1.347l-0.349,-1.298l1.846,-1.248l0.749,-0.998l1.298,-0.898l0.05,-2.446Z" style="fill:#f9fafe;fill-rule:nonzero;stroke:#1d1d1d;stroke-width:0.45px;"/><path id="TR" d="M144.425,413.678l-4.841,-2.196l-4.243,0.1l-2.845,0.849l-2.795,1.996l-4.941,-0.399l-0.799,2.395l-3.943,0.1l-2.545,3.045l1.797,1.497l-0.999,2.496l2.097,1.797l1.846,3.194l2.895,-0.05l2.696,1.747l1.796,-0.399l0.45,-1.348l2.845,0.1l2.295,1.747l3.993,-0.35l1.548,-1.846l2.296,0.748l1.597,-0.299l-0.849,1.198l1.148,1.497l0.599,-0.699l0.599,-0.748l-0.05,-1.797l0.949,0.649l2.745,-0.899l1.497,0.599l2.146,0l2.845,-1.248l1.398,0.1l2.944,-0.549l1.049,-0.499l3.094,0.449l1.048,0.799l1.148,-0.549l-1.846,-2.596l0.349,-0.998l-1.448,-3.643l1.648,-0.899l-1.198,-0.948l-2.097,-0.749l0,-1.547l-0.648,-1.098l-2.796,-1.497l-2.695,0.149l-2.745,1.598l-2.246,-0.3l-2.895,0.499l-3.893,-1.198Zm-24.756,1.997l0.998,-0.949l3.045,-0.199l0.349,-0.749l-2.346,-0.998l-0.449,-1.198l-2.246,-0.399l-2.495,0.998l1.347,0.799l-0.599,1.946l-0.549,0.349l0.05,0.649l0.948,1.448l1.947,-1.697Z" style="fill:#f9fafe;fill-rule:nonzero;stroke:#1d1d1d;stroke-width:0.45px;"/><path id="TZ" d="M135.94,548.29l-0.998,0.399l1.148,1.797l-0.2,1.847l-0.798,0.399l0.149,1.248l0.599,0.749l0,0.998l-0.698,0.699l-1.099,1.647l-1.048,1.148l-0.299,0.05l-0.15,1.347l0.549,0.449l-0.1,1.348l0.499,1.298l-0.648,1.198l2.246,2.146l0.149,1.946l1.348,3.245l0.15,0.099l1.098,0.549l1.747,0.55l1.597,0.948l2.695,0.599l0.549,0.848l0.2,-0.599l1.397,1.697l0.15,3.344l0.898,1.198l0,0.05l1.049,-0.15l3.344,0.899l0.698,-0.399l1.947,-0.05l1.048,-0.949l1.647,0.05l3.095,-1.248l2.296,-1.846l-0.999,-0.699l-1.098,-3.144l-0.898,-1.947l0.2,-1.547l-0.15,-0.949l0.848,-1.946l-0.099,-0.799l-1.747,-1.148l-0.15,-1.797l1.397,-3.943l-3.992,-3.144l-0.2,-1.847l-10.082,-6.488l-1.398,1.397l-0.948,1.448l1.098,1.098l-1.597,0.798l-0.35,-0.399l-1.597,0.2l-1.248,0.698l-0.798,-1.197l0.549,-2.246l0.1,-1.897l-3.095,-0.05Z" style="fill:#f9fafe;fill-rule:nonzero;stroke:#1d1d1d;stroke-width:0.45px;"/><path id="UG" d="M144.924,531.57l-1.697,1.497l-1.996,-0.05l-2.246,0.749l-1.747,-0.699l-1.148,0.848l-0.15,3.744l1.148,0.399l-0.898,1.148l-1.098,0.849l-1.049,1.647l-0.598,1.497l-0.15,2.546l-0.649,1.197l-0.05,2.396l0.699,0.3l1.647,-0.949l0.998,-0.399l3.095,0.05l-0.15,-1.248l1.298,-1.847l1.747,-0.449l1.197,-0.748l1.448,0.598l0.15,0.25l-0,-0.15l0.798,-1.297l1.348,-2.097l1.048,-2.346l-1.298,-3.643l-0.349,-1.597l-1.348,-2.196Z" style="fill:#f9fafe;fill-rule:nonzero;stroke:#1d1d1d;stroke-width:0.45px;"/><path id="UA" d="M130.41,379.788l-2.396,0.25l-0.749,-0.15l-0.499,0.699l-0.898,-0.1l-2.046,0.15l-0.599,0.699l0.099,1.547l-0.998,-0.3l-2.146,0.15l-0.749,-0.749l-0.798,0.549l-0.998,-0.449l-1.897,-0.05l-2.795,-0.748l-2.496,-0.25l-1.846,0.1l-1.198,0.798l-1.098,0.15l1.547,2.646l-0.15,0.898l-1.148,0.349l-1.896,2.546l0.798,1.397l-0.549,-0.199l-0.549,0.848l-0.359,1.248l1.447,0.849l0.3,0.798l0.948,-0.649l1.597,0.35l1.597,-0l1.198,0.748l0.799,-0.449l1.797,-0.299l0.499,-0.749l1.048,-0l0.549,-0.449l1.597,-0.3l1.947,0.949l0.998,0.149l1.248,0.799l-0,1.048l0.948,0.549l0.549,1.298l0.998,0.748l-0.1,0.5l0.499,0.299l-0.598,0.25l-1.498,-0.1l-0.299,-0.449l-0.499,0.249l0.249,0.549l-0.549,0.998l-0.249,1.049l-0.599,0.349l1.197,0.549l1.099,-0.499l1.197,0.549l1.648,-2.296l0.648,-1.697l2.246,-0.399l0.35,1.198l3.993,0.748l0.848,0.699l-2.246,1.048l-0.349,0.599l2.895,0.898l-0.3,1.448l1.498,0.649l3.144,-1.797l2.645,-0.549l0.3,-1.098l-2.546,0.199l-1.347,-0.748l-0.499,-1.947l1.946,-1.148l2.296,-0.149l1.497,-0.999l1.947,-0.249l-0.2,-1.398l1.098,-0.848l2.346,-0.25l0.15,-1.048l-0.898,-1.697l0.648,-1.597l-0.199,-0.948l-3.794,-0.999l-1.447,0.05l-1.797,-1.447l-1.747,0.499l-3.294,-1.098l-0.1,-0.599l-1.098,-1.348l-1.996,-0.1l-0.35,-0.948l0.45,-0.649l-1.897,-1.697l0.01,0Z" style="fill:#f9fafe;fill-rule:nonzero;stroke:#1d1d1d;stroke-width:0.45px;"/><path id="UZ" d="M230.882,410.783l-1.248,0.599l-2.695,2.147l-0.449,2.246l-0.948,-0l-1.148,-1.498l-3.295,-0.1l-1.297,-2.495l-1.248,-0.05l-0.749,-3.095l-3.743,-2.246l-4.293,0.25l-2.845,0.449l-3.244,-2.745l-2.396,-1.148l-4.541,-2.246l-0.55,-0.25l-5.939,1.797l3.085,11.38l2.894,-0.05l-0.798,-1.547l1.896,-1.098l1.648,-1.797l3.893,1.647l0.948,2.446l1.148,0.649l2.745,-0.15l0.998,0.599l2.147,3.194l3.493,2.196l2.097,1.498l3.094,1.597l3.843,1.347l0.4,1.997l1.447,-0l2.146,0.699l0.649,-3.294l-1.198,-2.346l-2.096,-0.799l0.299,-1.397l2.197,0.149l0.748,-1.747l0.25,-1.996l3.194,-0.749l-0.1,1.448l0.649,0.898l1.048,-0.1l2.047,0.3l2.595,-2.246l-3.544,-1.647l-1.597,0.798l-2.296,-1.148l1.548,-2.046l-0.899,-0.3l0.01,0Z" style="fill:#f9fafe;fill-rule:nonzero;stroke:#1d1d1d;stroke-width:0.45px;"/><path id="YE" d="M196.792,492.189l-1.048,-2.196l-2.595,-5.24l-7.836,1.197l-2.496,1.448l-1.747,3.344l-1.248,0.499l-0.798,-1.048l-1.048,0.15l-2.695,-0.3l-0.5,-0.349l-3.194,0.1l-0.749,0.299l-1.198,-0.848l-0.598,1.547l0.349,1.347l-1.148,1.049l0.2,1.347l-0.3,0.649l0.35,1.447l-0.55,0.15l0.849,1.298l0.649,2.346l0.499,0.948l-0,1.697l0.799,1.897l1.946,0.149l0.899,-0.449l1.347,0.1l0.399,-0.848l0.749,-0.2l0.549,-0.849l0.699,-0.199l2.346,-0.15l1.747,-0.599l1.547,-1.348l0.848,0.2l1.198,-0.15l2.346,-2.246l4.392,-1.497l2.646,-1.348l-0,-1.048l0.449,-1.447l1.946,-0.849Z" style="fill:#f9fafe;fill-rule:nonzero;stroke:#1d1d1d;stroke-width:0.45px;"/><path id="ZA" d="M135.251,615.721l-1.447,-0.3l-0.948,0.4l-1.298,-0.55l-1.098,-0.049l-3.993,2.345l-2.596,2.346l-0.998,2.146l-0.848,1.198l-1.498,0.25l-0.599,1.497l-0.299,0.998l-1.797,0.749l-2.196,-0.15l-1.248,-0.898l-1.148,-0.399l-1.347,0.748l-0.749,1.548l-1.348,0.948l-1.397,1.397l-1.997,0.35l-0.549,-1.148l0.35,-1.897l-1.498,-3.044l-0.698,-0.499l-0.549,11.779l-2.496,1.597l-1.447,0.249l-1.647,-0.599l-1.198,-0.249l-0.4,-1.348l-1.048,-0.898l-1.347,1.597l1.747,4.093l-0,0.05l1.247,2.645l1.597,2.995l-0.099,2.396l-0.849,0.598l0.699,2.097l-0.1,1.896l0.3,0.849l0.149,-0.449l1.048,1.447l0.899,0.05l1.048,1.148l1.198,-0.1l1.737,-1.198l2.296,-0.499l2.795,-1.248l1.098,0.15l1.647,-0.399l2.845,0.599l1.348,-0.599l1.597,0.499l0.399,-0.898l1.348,-0.15l2.894,-1.248l2.147,-1.447l2.046,-1.897l3.344,-3.244l1.697,-2.296l0.899,-1.597l1.247,-1.648l0.599,-0.449l1.947,-1.597l0.798,-1.447l0.549,-2.596l0.849,-2.346l-2.046,0l-0.649,1.398l-1.647,0.349l-1.498,-1.747l0.05,-1.098l0.799,-1.198l0.349,-0.898l0.799,-0.249l1.347,0.598l-0.199,-1.148l0.698,-3.543l-1.647,-6.738l0.01,-0Zm-10.032,26.353l-0.998,0.3l-1.847,-2.446l1.597,-1.997l1.548,-1.247l1.297,-0.649l1.148,0.998l0.849,0.948l-0.949,1.548l-0.549,1.048l-1.547,0.499l-0.549,0.998Z" style="fill:#f9fafe;fill-rule:nonzero;stroke:#1d1d1d;stroke-width:0.45px;"/><path id="ZM" d="M135.75,572.298l-0.948,-0.25l0.2,-0.649l-0.499,-0.15l-3.744,0.549l-0.798,0.35l-0.799,2.046l0.599,1.398l-0.599,3.743l-0.399,3.194l0.699,0.549l1.946,1.248l0.749,-0.599l0.15,3.444l-2.147,0l-1.048,-1.747l-0.998,-1.397l-2.146,-0.4l-0.599,-1.697l-1.697,0.999l-2.246,-0.449l-0.899,-1.398l-1.746,-0.299l-1.298,0.049l-0.15,-0.998l-0.948,-0.05l0.249,0.999l-0.349,1.497l0.449,1.497l-0.449,1.198l0.249,1.098l-5.789,-0.05l-0.4,10.132l1.797,2.596l1.747,1.996l2.296,-0.748l1.797,0.199l1.048,0.699l0,0.249l0.499,0.25l3.095,0.349l0.848,0.35l0.949,-0.05l1.597,-2.046l2.545,-2.646l0.998,-0.249l0.35,-1.098l1.647,-1.248l2.096,-0.449l-0.15,-2.246l8.535,-2.596l-1.447,-0.848l0.948,-2.945l0.899,-1.098l-0.45,-2.646l0.599,-2.545l0.499,-0.898l-0.598,-2.696l-1.298,-1.397l-1.597,-0.948l-1.747,-0.55l-1.098,-0.549l-0.15,-0.099l0.25,0.549l-0.5,0.199l-0.599,-0.698Z" style="fill:#f9fafe;fill-rule:nonzero;stroke:#1d1d1d;stroke-width:0.45px;"/><path id="ZW" d="M135.251,615.721l3.095,-3.594l0.798,-2.296l0.45,-0.299l0.399,-1.847l-0.399,-0.948l0.249,-2.346l0.649,-2.196l0.15,-4.043l-1.398,-0.998l-1.297,-0.25l-0.549,-0.799l-1.298,-0.648l-2.296,0.049l-0.15,-1.197l-2.096,0.449l-1.647,1.248l-0.35,1.098l-0.998,0.249l-2.545,2.646l-1.597,2.046l-0.949,0.05l-0.848,-0.35l-3.095,-0.349l0.939,2.546l0.549,0.549l0.798,1.846l2.995,3.494l1.148,0.349l-0.05,1.099l0.749,2.046l2.096,0.449l1.697,1.448l1.098,0.049l1.298,0.55l0.948,-0.4l1.447,0.3l0.01,-0Z" style="fill:#f9fafe;fill-rule:nonzero;stroke:#1d1d1d;stroke-width:0.45px;"/><path id="SO" d="M172.785,511.904l-1.298,-1.347l-0.599,-1.298l-0.898,-0.599l-0.998,1.697l-0.549,1.148l1.098,1.747l1.048,1.547l1.098,1.098l9.234,3.794l2.395,-0.05l-7.686,9.533l-3.694,0.15l-2.445,2.246l-1.797,0.05l-0.749,0.998l-2.396,3.593l0.1,11.58l1.647,2.645l0.649,-0.748l0.649,-1.697l3.045,-3.844l2.645,-2.395l4.143,-3.195l2.795,-2.545l3.194,-4.343l2.346,-3.543l2.296,-4.642l1.597,-4.093l1.248,-3.544l0.649,-3.394l0.549,-1.147l-0.1,-1.697l0.2,-1.847l-0.1,-0.849l-1.048,0l-1.298,1.098l-1.448,0.3l-1.247,0.449l-0.899,0.1l-1.597,0.1l-0.948,0.549l-1.398,0.249l-2.396,0.949l-3.044,0.399l-2.596,0.798l-1.397,0Z" style="fill:#f9fafe;fill-rule:nonzero;stroke:#1d1d1d;stroke-width:0.45px;"/><path id="FR" d="M74.11,411.133l-0.549,-2.596l-1.598,1.148l-0.499,1.148l0.699,2.097l1.198,0.599l0.749,-2.396Zm-15.723,-25.405l-1.197,-1.198l-1.099,-0.05l-0.349,-1.098l-2.146,0.599l-0.699,2.545l-5.64,2.396l-2.296,-1.298l0.699,3.494l-4.093,-0.798l-3.194,0.649l0.199,2.295l3.744,1.198l1.797,1.548l2.545,3.244l-0.499,6.139l-1.348,1.847l0.999,1.198l4.691,1.397l0.949,-0.649l2.845,1.398l2.994,-0.4l0.25,-1.846l3.693,-0.998l4.992,0.798l2.246,-1.697l0.249,-1.347l-1.347,-0.4l-0.749,-2.396l0.848,-0.898l-0.798,-1.198l0.1,-0.848l-0.899,-1.348l-1.198,0.449l0,-1.397l1.747,-1.747l-0.1,-0.799l1.148,0.3l0.649,-0.499l0.25,-2.246l1.148,-2.097l-3.544,-0.599l-1.198,-0.798l-0.699,0.05l-0.549,-0.25l-2.196,-1.397l-1.248,0.199l-1.697,-1.447Z" style="fill:#f9fafe;fill-rule:nonzero;stroke:#1d1d1d;stroke-width:0.45px;"/><path id="ES" d="M53.796,422.063l-0,-0.099l-0.25,-0l-0.15,-0.2l-0.1,0.2l0,0.099l0.25,0l0.2,0.05l0.05,-0.05Zm-0.4,-0.798l0.15,-0l0.299,-0.35l0,-0.149l-0.149,-0.1l-0.549,0.1l-0.1,0.149l-0,0.15l-0.15,0.05l-0.05,0.2l0.05,0.1l0.399,0.05l0.1,-0.2Zm-8.585,-14.025l-4.092,-0.1l-2.107,0.15l-2.695,-0.5l-3.394,0l-3.094,-0.549l-3.694,2.246l0.998,1.298l-0.199,2.196l0.948,-0.798l1.048,-0.449l0.599,1.547l1.498,-0l0.449,-0.4l1.497,0.1l0.649,1.548l-1.198,0.848l-0.1,2.446l-0.449,0.449l-0.15,1.497l-1.098,0.25l0.998,1.896l-0.798,2.147l0.898,0.948l-0.399,0.849l-0.998,1.247l0.199,1.048l2.396,0.5l0.699,1.846l0.998,1.098l1.248,0.3l1.048,-1.248l1.647,-1.148l2.496,0.05l3.344,-0l1.897,-2.496l1.946,-0.648l0.599,-2.097l1.497,-1.447l-0.998,-1.847l0.998,-2.545l1.548,-1.747l0.249,-1.048l3.294,-0.649l2.396,-2.097l-0.15,-1.747l-2.994,0.4l-2.845,-1.398l-0.949,0.649l-4.691,-1.397l-0.999,-1.198l0.01,-0Zm12.977,11.28l0.05,-0.15l0.05,-0.1l0.05,-0.05l-0.1,-0.1l0,-0.049l0.1,-0.1l-0.1,-0.05l-0.648,0.199l-0.35,0.2l-1.048,0.749l0,0.15l0.05,0.099l0.2,0l0.099,0.2l0.2,-0.2l0.15,-0.05l0.15,0.05l0.149,0.1l0.05,0.3l0.05,0.099l0.3,0.05l0.449,0.2l0.199,-0.1l0.25,-0.15l0.1,-0.299l0.299,-0.499l0.15,-0.2l-0.05,-0.199l-0.299,-0.1l-0.25,0.1l-0.25,-0.1Zm2.995,-0.15l0.05,-0.2l0,-0.05l-0.249,-0.349l-0.45,-0.15l-0.499,0.05l-0.05,0.05l0,0.2l0.05,0.05l0.3,0.05l0.798,0.349l0.05,0Z" style="fill:#f9fafe;fill-rule:nonzero;stroke:#1d1d1d;stroke-width:0.45px;"/><path id="AD" d="M53.995,410.085l0.1,-0.2l0,-0.05l-0.1,-0.05l-0.349,-0.1l-0.15,-0.05l-0.1,0.05l-0.1,0.1l-0.049,0.15l0.049,0.05l0,0.199l0.05,0.1l0.2,0l0.15,-0.05l0.249,-0.149l0.05,-0Z" style="fill:#f9fafe;fill-rule:nonzero;stroke:#1d1d1d;stroke-width:0.45px;"/><path id="KM" d="M171.837,584.376l-0.4,-0.399l-0.199,-0l-0,0.1l0.05,0.199l0.549,0.1Zm1.747,-0.948l-0.05,-0l-0.1,0.05l-0.05,0.1l-0.05,0.149l-0.459,0l0.399,0.25l0.349,0.349l0.05,-0.1l0.05,-0.349l-0.149,-0.449l0.01,-0Zm-2.796,-0.549l0.1,-0.15l-0.1,-0.349l-0.199,-0.4l0.05,-0.698l-0.1,-0.1l-0.16,-0l-0.05,0.05l-0.05,0.149l-0.149,0.999l0.199,0.299l0.15,0.05l0.25,0.2l0.049,-0.05l0.01,-0Z" style="fill:#f9fafe;fill-rule:nonzero;stroke:#1d1d1d;stroke-width:0.45px;"/><path id="FO" d="M34.829,352.786l0,-0.15l-0.05,-0.149l0,-0.1l-0.05,-0l-0.249,-0.05l-0.05,-0.1l-0.05,0l-0,0.1l0.05,0.2l0.249,0.199l0.15,0.1l0.05,0l-0.05,-0.05Zm0.25,-1.048l-0,-0.05l-0.1,-0.1l-0.25,-0.1l-0.1,-0.05l-0.099,0.05l-0,0.1l0.05,0.05l0.199,0.05l0.2,0.15l0.05,-0l0.05,-0.1Zm-0.999,-0.849l-0.299,-0.149l-0.25,0.05l-0.149,-0l0.05,0.149l0.299,0.1l0.3,0l0.099,-0.05l-0.05,-0.1Zm1.049,-0.349l-0.4,-0.1l-0.299,-0.149l-0.499,0.049l0.349,0.549l0.399,0.35l0.2,0.1l0,-0.15l-0.2,-0.25l-0.06,-0.05l0,-0.049l0.05,-0.05l0.1,-0l0.15,0.099l0.1,0l0.1,-0.349l0.01,0Zm0.499,-0.1l-0.15,-0.1l-0.2,-0.199l0,0.449l0.05,-0l0.15,0.05l0.15,-0.2Z" style="fill:#f9fafe;fill-rule:nonzero;stroke:#1d1d1d;stroke-width:0.45px;"/><path id="LI" d="M73.461,396.059l-0,-0.099l0.05,-0.1l-0.05,-0.05l-0.05,-0.1l-0.05,-0.05l-0,-0.1l-0.05,-0.05l-0,-0.099l-0.05,-0.05l-0.1,0.299l0,0.25l0.05,0.1l0.05,-0l0.2,0.049Z" style="fill:#f9fafe;fill-rule:nonzero;stroke:#1d1d1d;stroke-width:0.45px;"/><path id="MT" d="M88.025,431.197l-0.349,-0.349l-0.25,-0.05l0.05,0.299l0.2,0.2l0.249,0l0.1,-0.1Zm-0.699,-0.599l0,-0.099l-0.15,-0.05l-0.199,0.05l0.05,0.049l0.149,0.1l0.15,-0.05Z" style="fill:#f9fafe;fill-rule:nonzero;stroke:#1d1d1d;stroke-width:0.45px;"/><path id="ST" d="M68.32,544.696l0.249,-0.399l0,-0.249l-0.149,-0.25l-0.2,-0l-0.25,0.2l-0.149,0.199l-0,0.15l0.05,0.349l0.05,0.15l0.149,0.1l0.25,-0.25Zm2.146,-4.591l0.1,-0.2l-0,-0.1l-0.1,-0.1l-0.1,0.05l-0.15,0.25l0.05,0.1l0.1,0.099l0.1,-0.099Z" style="fill:#f9fafe;fill-rule:nonzero;stroke:#1d1d1d;stroke-width:0.45px;"/><path id="CY" d="M136.25,433.443l-0.3,-0.1l-0.249,0.1l-0.2,0.2l-0.2,0.15l-0.249,-0.15l0.1,0.449l0.299,0.549l0.1,0.15l0.15,0.1l0.549,0.149l0.449,0l0.1,0.05l0.099,0.2l0.2,0l0,-0.2l0.1,-0.099l0.15,-0.1l0.149,-0l0.3,-0.05l0.299,-0.1l0.25,-0.2l0.449,-0.499l0.599,0l0.299,-0.05l-0.099,-0.199l-0.05,-0.05l-0.2,-0.25l-0.1,-0.199l0.05,-0.3l1.248,-0.948l0.25,-0.25l-0.4,0.1l-0.299,0.2l-0.2,0.1l-0.349,0.199l-1.148,0.399l-0.4,0.05l-0.399,0l-0.499,-0.05l-0.449,-0.099l-0,0.349l-0.1,0.299l-0.299,0.1Z" style="fill:#f9fafe;fill-rule:nonzero;stroke:#1d1d1d;stroke-width:0.45px;"/><path id="YT" d="M175.43,586.273l0,-0.15l0.1,-0.249l0,-0.05l0.05,-0.25l-0.15,-0.15l-0.1,0l-0.099,-0.149l-0.15,0.149l0.15,0.25l-0.05,0.15l-0.05,0.199l0.05,0.2l0.1,0.1l0.149,-0.05Z" style="fill:#f9fafe;fill-rule:nonzero;stroke:#1d1d1d;stroke-width:0.45px;"/><path id="IC" d="M1.179,456.752l-0.1,-0.1l-0.35,0.25l-0.299,-0l0.1,0.199l0.349,0.2l0.3,-0.549Zm6.738,-0.799l-0,-0.299l-0.05,0l-0.05,0.05l-0.649,-0.05l-0.1,0.299l-0.249,0.2l-0,0.35l0.249,0.349l0.15,0.05l0.25,0.05l0.349,-0.2l0.1,-0.2l0.05,-0.399l-0.05,-0.2Zm-4.842,0.15l0.25,-0.199l-0,-0.1l-0.05,-0.15l-0.25,-0.15l-0.099,0l-0.1,0.1l-0.1,0.2l0.15,0.249l0.099,0.05l0.1,0Zm2.346,-1.148l0.599,-0.499l0,-0.15l-0.499,0.05l-0.549,0.499l-0.15,0.05l-0.499,0.05l-0.249,0l-0.2,0.1l0.1,0.15l0.199,0.499l0.35,0.449l0.299,-0.1l0.15,-0.1l0.2,-0.299l0.249,-0.699Zm5.79,0.649l0.749,-0.249l0.149,-0.5l0.15,-0.549l0,-0.349l-0.1,-0.15l-0.249,0l-0.15,0.1l-0.05,0.3l-0.349,0.648l-0.25,0.599l-0.349,0.3l-0.35,0.1l0.05,0.05l0.35,0.049l0.399,-0.349Zm-9.833,-0.998l0.25,-0.25l0.05,-0.149l-0.05,-0.25l0.1,-0.1l-0.05,-0.199l-0.15,-0.2l-0.349,-0l-0.2,0.299l0.299,0.599l0.05,0.25l0.05,-0Zm11.181,-1.348l0.449,-0.149l0.249,-0.15l0.05,-0.449l0.1,-0.15l-0.1,-0.15l-0.1,0.1l-0.099,0.2l-0.3,0.099l-0.399,0.2l-0.1,0.15l-0.1,0.449l0.2,0.05l0.15,-0.2Z" style="fill:#f9fafe;fill-rule:nonzero;stroke:#1d1d1d;stroke-width:0.45px;"/></svg>